<?xml version="1.0" encoding="utf-8"?>
<!-- Generator: Adobe Illustrator 16.0.0, SVG Export Plug-In . SVG Version: 6.00 Build 0)  -->
<!DOCTYPE svg PUBLIC "-//W3C//DTD SVG 1.1//EN" "http://www.w3.org/Graphics/SVG/1.1/DTD/svg11.dtd">
<svg version="1.1" id="Layer_1" xmlns="http://www.w3.org/2000/svg" xmlns:xlink="http://www.w3.org/1999/xlink" x="0px" y="0px"
	 width="7.003px" height="15.523px" viewBox="0 0 7.003 15.523" enable-background="new 0 0 7.003 15.523" xml:space="preserve">
<g>
	<polygon fill="#B0E2F7" points="5.458,12.282 6.828,12.282 4.878,9.423 6.046,9.423 4.484,7.242 5.568,7.242 4.095,5.062 
		4.671,5.062 5.089,5.062 3.711,2.881 4.611,2.881 3.591,1.139 4.116,1.139 3.502,0 2.923,1.139 3.412,1.139 2.393,2.881 
		3.292,2.881 1.914,5.062 2.909,5.062 1.436,7.242 2.519,7.242 0.957,9.423 2.124,9.423 0.175,12.282 1.545,12.282 0,14.503 
		3.5,15.523 7.003,14.503 	"/>
</g>
</svg>
