<?xml version="1.0" encoding="utf-8"?>
<!-- Generator: Adobe Illustrator 16.0.0, SVG Export Plug-In . SVG Version: 6.00 Build 0)  -->
<!DOCTYPE svg PUBLIC "-//W3C//DTD SVG 1.1//EN" "http://www.w3.org/Graphics/SVG/1.1/DTD/svg11.dtd">
<svg version="1.1" id="Outline" xmlns="http://www.w3.org/2000/svg" xmlns:xlink="http://www.w3.org/1999/xlink" x="0px" y="0px"
	 width="20px" height="11.018px" viewBox="0 0 20 11.018" enable-background="new 0 0 20 11.018" xml:space="preserve">
<g opacity="0.39">
	<g>
		<defs>
			<rect id="SVGID_1_" x="2.594" y="0.295" width="17.498" height="10.728"/>
		</defs>
		<clipPath id="SVGID_2_">
			<use xlink:href="#SVGID_1_"  overflow="visible"/>
		</clipPath>
		<polygon clip-path="url(#SVGID_2_)" fill="none" stroke="#77AFDF" stroke-width="0.015" stroke-miterlimit="10" points="
			11.746,1.698 12.822,3.561 11.746,5.425 9.595,5.425 8.519,3.561 9.595,1.698 		"/>
		<polygon clip-path="url(#SVGID_2_)" fill="none" stroke="#77AFDF" stroke-width="0.015" stroke-miterlimit="10" points="
			17.127,7.288 18.203,9.153 17.127,11.016 14.975,11.016 13.898,9.153 14.975,7.288 		"/>
		<polygon clip-path="url(#SVGID_2_)" fill="none" stroke="#77AFDF" stroke-width="0.015" stroke-miterlimit="10" points="
			14.975,3.561 16.051,5.425 14.975,7.288 12.822,7.288 11.746,5.425 12.822,3.561 		"/>
		<polygon clip-path="url(#SVGID_2_)" fill="none" stroke="#77AFDF" stroke-width="0.015" stroke-miterlimit="10" points="
			19.012,1.232 20.088,3.095 19.012,4.959 16.859,4.959 15.783,3.095 16.859,1.232 		"/>
		<polygon clip-path="url(#SVGID_2_)" fill="none" stroke="#77AFDF" stroke-width="0.015" stroke-miterlimit="10" points="
			7.98,4.493 9.057,6.356 7.98,8.221 5.828,8.221 4.752,6.356 5.828,4.493 		"/>
		<polygon clip-path="url(#SVGID_2_)" fill="none" stroke="#77AFDF" stroke-width="0.015" stroke-miterlimit="10" points="
			13.898,1.698 14.438,2.63 13.898,3.561 12.822,3.561 12.285,2.63 12.822,1.698 		"/>
		<polygon clip-path="url(#SVGID_2_)" fill="none" stroke="#77AFDF" stroke-width="0.015" stroke-miterlimit="10" points="
			16.32,0.3 16.859,1.232 16.32,2.163 15.244,2.163 14.707,1.232 15.244,0.3 		"/>
		<polygon clip-path="url(#SVGID_2_)" fill="none" stroke="#77AFDF" stroke-width="0.015" stroke-miterlimit="10" points="
			7.98,2.63 8.519,3.561 7.98,4.493 6.904,4.493 6.366,3.561 6.904,2.63 		"/>
		<polygon clip-path="url(#SVGID_2_)" fill="none" stroke="#77AFDF" stroke-width="0.015" stroke-miterlimit="10" points="
			11.746,5.425 12.285,6.356 11.746,7.288 10.672,7.288 10.133,6.356 10.672,5.425 		"/>
		<polygon clip-path="url(#SVGID_2_)" fill="none" stroke="#77AFDF" stroke-width="0.015" stroke-miterlimit="10" points="
			4.214,5.425 4.752,6.356 4.214,7.288 3.138,7.288 2.6,6.356 3.138,5.425 		"/>
		<polygon clip-path="url(#SVGID_2_)" fill="none" stroke="#77AFDF" stroke-width="0.015" stroke-miterlimit="10" points="
			5.828,8.221 6.097,8.686 5.828,9.153 5.29,9.153 5.021,8.686 5.29,8.221 		"/>
		<polygon clip-path="url(#SVGID_2_)" fill="none" stroke="#77AFDF" stroke-width="0.015" stroke-miterlimit="10" points="
			15.244,2.163 15.514,2.63 15.244,3.095 14.707,3.095 14.438,2.63 14.707,2.163 		"/>
		<polygon clip-path="url(#SVGID_2_)" fill="none" stroke="#77AFDF" stroke-width="0.015" stroke-miterlimit="10" points="
			10.645,7.241 10.912,7.708 10.645,8.173 10.105,8.173 9.836,7.708 10.105,7.241 		"/>
		<polygon clip-path="url(#SVGID_2_)" fill="none" stroke="#77AFDF" stroke-width="0.015" stroke-miterlimit="10" points="
			16.859,4.959 17.127,5.425 16.859,5.892 16.32,5.892 16.051,5.425 16.32,4.959 		"/>
		<polygon clip-path="url(#SVGID_2_)" fill="none" stroke="#77AFDF" stroke-width="0.015" stroke-miterlimit="10" points="
			9.864,5.892 10.133,6.356 9.864,6.823 9.326,6.823 9.057,6.356 9.326,5.892 		"/>
	</g>
</g>
</svg>
