<?xml version="1.0" encoding="utf-8"?>
<!-- Generator: Adobe Illustrator 16.0.0, SVG Export Plug-In . SVG Version: 6.00 Build 0)  -->
<!DOCTYPE svg PUBLIC "-//W3C//DTD SVG 1.1//EN" "http://www.w3.org/Graphics/SVG/1.1/DTD/svg11.dtd">
<svg version="1.1" id="Layer_1" xmlns="http://www.w3.org/2000/svg" xmlns:xlink="http://www.w3.org/1999/xlink" x="0px" y="0px"
	 width="20px" height="11.018px" viewBox="0 0 20 11.018" enable-background="new 0 0 20 11.018" xml:space="preserve">
<g id="Solid">
</g>
<g opacity="0.39">
	<g>
		<g id="Layer_1_1_">
			<g>
				<defs>
					<rect id="SVGID_1_" x="1.5" y="0.3" width="17.488" height="10.717"/>
				</defs>
				<clipPath id="SVGID_2_">
					<use xlink:href="#SVGID_1_"  overflow="visible"/>
				</clipPath>
				<polygon clip-path="url(#SVGID_2_)" fill="#FFFFFF" points="9.84,9.621 8.764,7.756 9.84,5.892 11.994,5.892 13.07,7.756 
					11.994,9.621 				"/>
			</g>
			<g>
				<defs>
					<rect id="SVGID_3_" x="1.5" y="0.3" width="17.488" height="10.717"/>
				</defs>
				<clipPath id="SVGID_4_">
					<use xlink:href="#SVGID_3_"  overflow="visible"/>
				</clipPath>
				<polygon clip-path="url(#SVGID_4_)" fill="#FFFFFF" points="4.46,4.028 3.383,2.164 4.46,0.3 6.612,0.3 7.688,2.164 
					6.612,4.028 				"/>
			</g>
			<g>
				<defs>
					<rect id="SVGID_5_" x="1.5" y="0.3" width="17.488" height="10.717"/>
				</defs>
				<clipPath id="SVGID_6_">
					<use xlink:href="#SVGID_5_"  overflow="visible"/>
				</clipPath>
				<polygon clip-path="url(#SVGID_6_)" fill="#AEE1F7" points="6.612,7.756 5.536,5.892 6.612,4.028 8.764,4.028 9.84,5.892 
					8.764,7.756 				"/>
			</g>
			<g>
				<defs>
					<rect id="SVGID_7_" x="1.5" y="0.3" width="17.488" height="10.717"/>
				</defs>
				<clipPath id="SVGID_8_">
					<use xlink:href="#SVGID_7_"  overflow="visible"/>
				</clipPath>
				<polygon clip-path="url(#SVGID_8_)" fill="#AEE1F7" points="2.576,10.086 1.5,8.22 2.576,6.359 4.729,6.359 5.805,8.22 
					4.729,10.086 				"/>
			</g>
			<g>
				<defs>
					<rect id="SVGID_9_" x="1.5" y="0.3" width="17.488" height="10.717"/>
				</defs>
				<clipPath id="SVGID_10_">
					<use xlink:href="#SVGID_9_"  overflow="visible"/>
				</clipPath>
				<polygon clip-path="url(#SVGID_10_)" fill="#AEE1F7" points="13.607,6.824 12.531,4.961 13.607,3.095 15.76,3.095 16.836,4.961 
					15.76,6.824 				"/>
			</g>
			<g opacity="0.39">
				<defs>
					<rect id="SVGID_11_" x="1.5" y="0.3" opacity="0.39" width="17.488" height="10.717"/>
				</defs>
				<clipPath id="SVGID_12_">
					<use xlink:href="#SVGID_11_"  overflow="visible"/>
				</clipPath>
				<g clip-path="url(#SVGID_12_)">
					<g opacity="0.58">
						<g>
							<defs>
								<rect id="SVGID_13_" x="7.15" y="7.756" width="2.152" height="1.865"/>
							</defs>
							<clipPath id="SVGID_14_">
								<use xlink:href="#SVGID_13_"  overflow="visible"/>
							</clipPath>
							<polygon clip-path="url(#SVGID_14_)" fill="#FFFFFF" points="7.688,9.621 7.15,8.687 7.688,7.756 8.764,7.756 9.302,8.687 
								8.764,9.621 							"/>
						</g>
					</g>
					<g>
						<defs>
							<rect id="SVGID_15_" x="1.5" y="0.3" width="17.488" height="10.717"/>
						</defs>
						<clipPath id="SVGID_16_">
							<use xlink:href="#SVGID_15_"  overflow="visible"/>
						</clipPath>
						<polygon clip-path="url(#SVGID_16_)" fill="#FFFFFF" points="5.267,11.017 4.729,10.086 5.267,9.152 6.343,9.152 
							6.881,10.086 6.343,11.017 						"/>
					</g>
					<g>
						<defs>
							<rect id="SVGID_17_" x="1.5" y="0.3" width="17.488" height="10.717"/>
						</defs>
						<clipPath id="SVGID_18_">
							<use xlink:href="#SVGID_17_"  overflow="visible"/>
						</clipPath>
						<polygon clip-path="url(#SVGID_18_)" fill="#E2F4FD" points="13.607,8.687 13.07,7.756 13.607,6.824 14.684,6.824 
							15.223,7.756 14.684,8.687 						"/>
					</g>
					<g>
						<defs>
							<rect id="SVGID_19_" x="1.5" y="0.3" width="17.488" height="10.717"/>
						</defs>
						<clipPath id="SVGID_20_">
							<use xlink:href="#SVGID_19_"  overflow="visible"/>
						</clipPath>
						<polygon clip-path="url(#SVGID_20_)" fill="#E2F4FD" points="8.747,4.059 8.209,3.128 8.747,2.195 9.823,2.195 10.361,3.128 
							9.823,4.059 						"/>
					</g>
					<g>
						<defs>
							<rect id="SVGID_21_" x="1.5" y="0.3" width="17.488" height="10.717"/>
						</defs>
						<clipPath id="SVGID_22_">
							<use xlink:href="#SVGID_21_"  overflow="visible"/>
						</clipPath>
						<polygon clip-path="url(#SVGID_22_)" fill="#E2F4FD" points="9.84,5.892 9.302,4.961 9.84,4.028 10.916,4.028 11.455,4.961 
							10.916,5.892 						"/>
					</g>
					<g>
						<defs>
							<rect id="SVGID_23_" x="1.5" y="0.3" width="17.488" height="10.717"/>
						</defs>
						<clipPath id="SVGID_24_">
							<use xlink:href="#SVGID_23_"  overflow="visible"/>
						</clipPath>
						<polygon clip-path="url(#SVGID_24_)" fill="#E2F4FD" points="17.375,5.892 16.836,4.961 17.375,4.028 18.451,4.028 
							18.988,4.961 18.451,5.892 						"/>
					</g>
					<g>
						<defs>
							<rect id="SVGID_25_" x="1.5" y="0.3" width="17.488" height="10.717"/>
						</defs>
						<clipPath id="SVGID_26_">
							<use xlink:href="#SVGID_25_"  overflow="visible"/>
						</clipPath>
						<polygon clip-path="url(#SVGID_26_)" fill="#FFFFFF" points="15.805,3.175 15.535,2.709 15.805,2.243 16.342,2.243 
							16.611,2.709 16.342,3.175 						"/>
					</g>
					<g>
						<defs>
							<rect id="SVGID_27_" x="1.5" y="0.3" width="17.488" height="10.717"/>
						</defs>
						<clipPath id="SVGID_28_">
							<use xlink:href="#SVGID_27_"  overflow="visible"/>
						</clipPath>
						<polygon clip-path="url(#SVGID_28_)" fill="#FFFFFF" points="6.343,9.152 6.074,8.687 6.343,8.22 6.881,8.22 7.15,8.687 
							6.881,9.152 						"/>
					</g>
					<g>
						<defs>
							<rect id="SVGID_29_" x="1.5" y="0.3" width="17.488" height="10.717"/>
						</defs>
						<clipPath id="SVGID_30_">
							<use xlink:href="#SVGID_29_"  overflow="visible"/>
						</clipPath>
						<polygon clip-path="url(#SVGID_30_)" fill="#FFFFFF" points="10.945,4.076 10.675,3.609 10.945,3.143 11.482,3.143 
							11.752,3.609 11.482,4.076 						"/>
					</g>
					<g>
						<defs>
							<rect id="SVGID_31_" x="1.5" y="0.3" width="17.488" height="10.717"/>
						</defs>
						<clipPath id="SVGID_32_">
							<use xlink:href="#SVGID_31_"  overflow="visible"/>
						</clipPath>
						<polygon clip-path="url(#SVGID_32_)" fill="#FFFFFF" points="4.729,6.359 4.46,5.892 4.729,5.426 5.267,5.426 5.536,5.892 
							5.267,6.359 						"/>
					</g>
					<g>
						<defs>
							<rect id="SVGID_33_" x="1.5" y="0.3" width="17.488" height="10.717"/>
						</defs>
						<clipPath id="SVGID_34_">
							<use xlink:href="#SVGID_33_"  overflow="visible"/>
						</clipPath>
						<polygon clip-path="url(#SVGID_34_)" fill="#FFFFFF" points="11.725,5.426 11.455,4.961 11.725,4.494 12.262,4.494 
							12.531,4.961 12.262,5.426 						"/>
					</g>
				</g>
			</g>
		</g>
	</g>
</g>
</svg>
