<?xml version="1.0" encoding="utf-8"?>
<!-- Generator: Adobe Illustrator 16.0.0, SVG Export Plug-In . SVG Version: 6.00 Build 0)  -->
<!DOCTYPE svg PUBLIC "-//W3C//DTD SVG 1.1//EN" "http://www.w3.org/Graphics/SVG/1.1/DTD/svg11.dtd">
<svg version="1.1" id="Layer_1" xmlns="http://www.w3.org/2000/svg" xmlns:xlink="http://www.w3.org/1999/xlink" x="0px" y="0px"
	 width="11.719px" height="5.938px" viewBox="0 0 11.719 5.938" enable-background="new 0 0 11.719 5.938" xml:space="preserve">
<g>
	<defs>
		<rect id="SVGID_1_" x="-10.368" y="-4.377" width="39.124" height="58.039"/>
	</defs>
	<clipPath id="SVGID_2_">
		<use xlink:href="#SVGID_1_"  overflow="visible"/>
	</clipPath>
	<path clip-path="url(#SVGID_2_)" fill="#FFFFFF" d="M5.869,5.565C5.816,5.526,5.75,5.479,5.67,5.432
		C5.351,5.244,4.924,5.149,4.402,5.149C4,5.149,3.681,5.2,3.342,5.253C2.944,5.315,2.493,5.386,1.777,5.386
		c-0.365,0-0.597-0.12-0.752-0.391c-0.16-0.279-0.178-0.612-0.178-0.742c0-0.222-0.072-0.681-0.34-1
		C0.437,3.17,0.361,3.101,0.287,3.041c0.074-0.059,0.15-0.129,0.219-0.211c0.269-0.32,0.34-0.779,0.34-1
		c0-0.13,0.018-0.464,0.178-0.743c0.155-0.27,0.387-0.391,0.752-0.391c0.716,0,1.167,0.071,1.565,0.133
		C3.681,0.883,4,0.933,4.402,0.933c0.522,0,0.949-0.095,1.268-0.282c0.08-0.047,0.146-0.095,0.199-0.133
		c0.006-0.004,0.012-0.009,0.019-0.014c0.006,0.004,0.013,0.009,0.019,0.014c0.053,0.039,0.118,0.086,0.198,0.133
		c0.319,0.188,0.746,0.282,1.268,0.282c0.402,0,0.722-0.05,1.061-0.104c0.397-0.062,0.849-0.133,1.564-0.133
		c0.365,0,0.598,0.121,0.753,0.391c0.16,0.279,0.178,0.613,0.178,0.743c0,0.221,0.071,0.68,0.341,1
		c0.068,0.082,0.145,0.152,0.219,0.211c-0.074,0.06-0.15,0.129-0.219,0.211c-0.27,0.32-0.341,0.779-0.341,1
		c0,0.13-0.018,0.463-0.178,0.742c-0.155,0.271-0.388,0.391-0.753,0.391c-0.716,0-1.167-0.07-1.564-0.133
		C8.095,5.2,7.775,5.149,7.373,5.149c-0.521,0-0.949,0.095-1.268,0.282c-0.08,0.047-0.146,0.095-0.198,0.134
		C5.901,5.569,5.894,5.574,5.888,5.579C5.881,5.574,5.875,5.569,5.869,5.565"/>
	<path clip-path="url(#SVGID_2_)" fill="none" stroke="#67A4D9" stroke-width="0.02" stroke-miterlimit="10" d="M5.888,5.333
		C5.853,5.31,5.814,5.284,5.771,5.259c-0.35-0.205-0.811-0.31-1.37-0.31c-0.417,0-0.744,0.052-1.091,0.106
		C2.92,5.116,2.478,5.187,1.777,5.187c-0.293,0-0.461-0.084-0.579-0.291C1.062,4.659,1.047,4.366,1.047,4.253
		c0-0.069-0.011-0.682-0.388-1.129C0.636,3.096,0.611,3.068,0.584,3.041c0.026-0.027,0.051-0.054,0.075-0.083
		c0.376-0.447,0.388-1.06,0.388-1.128c0-0.114,0.015-0.406,0.151-0.644C1.316,0.98,1.484,0.896,1.777,0.896
		c0.701,0,1.144,0.07,1.534,0.131c0.347,0.054,0.674,0.106,1.091,0.106c0.559,0,1.02-0.104,1.37-0.31
		c0.042-0.025,0.081-0.05,0.116-0.074c0.035,0.023,0.074,0.049,0.116,0.074c0.35,0.206,0.811,0.31,1.369,0.31
		c0.418,0,0.744-0.052,1.091-0.106c0.392-0.062,0.834-0.131,1.534-0.131c0.293,0,0.461,0.084,0.579,0.291
		c0.137,0.237,0.151,0.529,0.151,0.644c0,0.068,0.011,0.681,0.388,1.128c0.023,0.028,0.049,0.056,0.074,0.083
		c-0.025,0.027-0.051,0.055-0.074,0.083c-0.377,0.447-0.388,1.06-0.388,1.129c0,0.113-0.015,0.406-0.151,0.643
		c-0.118,0.207-0.286,0.291-0.579,0.291c-0.7,0-1.143-0.07-1.533-0.131C8.117,5.001,7.791,4.949,7.373,4.949
		c-0.559,0-1.019,0.104-1.369,0.31C5.961,5.284,5.922,5.31,5.888,5.333z"/>
</g>
</svg>
