<?xml version="1.0" encoding="utf-8"?>
<!-- Generator: Adobe Illustrator 16.0.0, SVG Export Plug-In . SVG Version: 6.00 Build 0)  -->
<!DOCTYPE svg PUBLIC "-//W3C//DTD SVG 1.1//EN" "http://www.w3.org/Graphics/SVG/1.1/DTD/svg11.dtd">
<svg version="1.1" id="Layer_1" xmlns="http://www.w3.org/2000/svg" xmlns:xlink="http://www.w3.org/1999/xlink" x="0px" y="0px"
	 width="50.926px" height="107.475px" viewBox="498.951 1021.012 50.926 107.475"
	 enable-background="new 498.951 1021.012 50.926 107.475" xml:space="preserve">
<g>
	<g>
		<path fill="#67A4D9" d="M524.582,1027.132v-3.205c0.056-0.03,0.096-0.085,0.096-0.155c0-0.095-0.08-0.175-0.176-0.175
			c-0.095,0-0.175,0.08-0.175,0.175c0,0.075,0.045,0.135,0.105,0.16v3.2v-0.26h-1.101v2.78l-0.885-0.32v3.45l0.88-0.005h2.181
			l1.185,0.005v-3.45l-1.015,0.32v-2.78h-1.101L524.582,1027.132z"/>
		<g>
			<g>
				<circle fill="#B0E2F7" cx="523.922" cy="1027.722" r="0.365"/>
				<circle fill="#67A4D9" cx="523.922" cy="1027.722" r="0.235"/>
				<circle fill="#B0E2F7" cx="525.092" cy="1027.722" r="0.365"/>
				<circle fill="#67A4D9" cx="525.092" cy="1027.722" r="0.235"/>
			</g>
		</g>
	</g>
	<g>
		<polygon fill="#B0E2F7" points="523.677,1028.517 523.797,1028.853 525.242,1028.853 525.362,1028.517 		"/>
	</g>
</g>
<g>
	<polygon fill="#67A4D9" points="539.402,1114.207 549.876,1114.207 534.982,1092.353 543.902,1092.353 531.962,1075.683 
		540.242,1075.683 528.982,1059.012 533.392,1059.012 536.582,1059.012 526.052,1042.347 532.927,1042.347 525.132,1029.027 
		523.767,1029.027 515.972,1042.347 522.847,1042.347 512.317,1059.012 519.917,1059.012 508.657,1075.683 516.942,1075.683 
		505.002,1092.353 513.922,1092.353 499.022,1114.207 509.497,1114.207 499.557,1128.487 549.342,1128.487 	"/>
</g>
<g>
	<path fill="#B0E2F7" d="M528.497,1036.252c0-0.175-0.05-0.32-0.18-0.42c-0.09-0.07-0.235-0.12-0.36-0.12
		c-0.3,0-0.539,0.185-0.539,0.54c0,0.385,0.329,0.445,0.34,0.5c0.015,0.04-0.24,0.195-0.131,0.6c0.065,0.23,0.141,0.39,0.176,0.54
		c0.074,0.315,0.149,0.455,0.149,0.455s0.065-0.125,0.205-0.685c0.021-0.065,0.105-0.24,0.125-0.31c0.11-0.405-0.14-0.545-0.13-0.6
		C528.197,1036.662,528.477,1036.672,528.497,1036.252z"/>
	<path fill="#B0E2F7" d="M527.967,1035.502c0.029,0,0.045,0.045,0.045,0.09s-0.011,0.1-0.025,0.105
		c-0.01,0.005-0.03,0.02-0.04-0.015C527.947,1035.647,527.917,1035.502,527.967,1035.502z M527.892,1035.487
		c-0.016,0.025-0.016,0.12,0.015,0.205s0.101,0.06,0.101,0.06s0.02-0.025,0.04-0.055c0.02-0.025,0.02-0.16,0.015-0.205
		s-0.045-0.065-0.095-0.065S527.907,1035.458,527.892,1035.487z"/>
</g>
<g>
	<path fill="#B0E2F7" d="M530.097,1039.262c0-0.18-0.055-0.335-0.19-0.435c-0.095-0.075-0.245-0.125-0.375-0.125
		c-0.31,0-0.56,0.19-0.56,0.56c0,0.4,0.345,0.465,0.354,0.525c0.016,0.04-0.25,0.2-0.135,0.62c0.065,0.24,0.146,0.41,0.185,0.565
		c0.075,0.33,0.16,0.475,0.16,0.475s0.065-0.13,0.215-0.715c0.021-0.07,0.105-0.245,0.131-0.325c0.114-0.42-0.146-0.57-0.136-0.62
		C529.782,1039.688,530.077,1039.702,530.097,1039.262z"/>
	<path fill="#B0E2F7" d="M529.542,1038.482c0.029,0,0.05,0.05,0.05,0.095s-0.016,0.105-0.025,0.11
		c-0.01,0.005-0.035,0.02-0.04-0.015C529.522,1038.632,529.492,1038.482,529.542,1038.482z M529.462,1038.462
		c-0.016,0.03-0.016,0.125,0.015,0.215s0.1,0.06,0.1,0.06s0.021-0.025,0.04-0.055c0.021-0.03,0.021-0.165,0.016-0.21
		c0-0.045-0.051-0.065-0.101-0.065S529.482,1038.432,529.462,1038.462z"/>
</g>
<g>
	<path fill="#B0E2F7" d="M525.277,1041.507c0-0.18-0.055-0.335-0.189-0.435c-0.096-0.075-0.245-0.125-0.375-0.125
		c-0.311,0-0.561,0.19-0.561,0.56c0,0.4,0.345,0.465,0.355,0.525c0.015,0.04-0.25,0.2-0.136,0.62c0.065,0.24,0.146,0.41,0.186,0.565
		c0.075,0.33,0.16,0.475,0.16,0.475s0.064-0.13,0.215-0.715c0.02-0.07,0.104-0.245,0.13-0.325c0.115-0.42-0.145-0.57-0.135-0.62
		C524.962,1041.932,525.257,1041.942,525.277,1041.507z"/>
	<path fill="#B0E2F7" d="M524.727,1040.728c0.03,0,0.05,0.05,0.05,0.095s-0.015,0.105-0.025,0.11
		c-0.01,0.005-0.034,0.02-0.039-0.015C524.702,1040.872,524.672,1040.728,524.727,1040.728z M524.647,1040.708
		c-0.015,0.03-0.015,0.125,0.015,0.215c0.03,0.09,0.101,0.06,0.101,0.06s0.02-0.025,0.04-0.055c0.02-0.03,0.02-0.165,0.015-0.21
		s-0.05-0.065-0.1-0.065C524.667,1040.647,524.662,1040.677,524.647,1040.708z"/>
</g>
<g>
	<path fill="#B0E2F7" d="M519.657,1041.112c0.01-0.01,0.08,0.01,0.16,0.01c0.245-0.005,0.65,0.025,0.686-0.01
		c0.034-0.035-0.426-0.71-0.426-0.71s0.426-0.675,0.426-0.715s-0.851,0-0.851,0s-0.33-0.66-0.395-0.66
		c-0.065,0-0.335,0.625-0.391,0.66c-0.06,0.035-0.819-0.025-0.845,0c-0.025,0.025,0.425,0.71,0.425,0.71s-0.455,0.68-0.425,0.715
		c0.035,0.035,0.815-0.07,0.86-0.025s0.385,0.685,0.385,0.685S519.617,1041.152,519.657,1041.112z"/>
	<path fill="#B0E2F7" d="M519.307,1038.997c-0.01,0.065-0.05,0.035-0.07,0.03c-0.02-0.005-0.04-0.11-0.04-0.19
		s0.035-0.165,0.085-0.165C519.367,1038.667,519.317,1038.927,519.307,1038.997z M519.292,1038.527c-0.09,0-0.175,0.035-0.175,0.115
		c0,0.08-0.005,0.32,0.03,0.37c0.035,0.05,0.07,0.1,0.07,0.1s0.125,0.05,0.18-0.11c0.055-0.155,0.055-0.325,0.025-0.375
		C519.387,1038.583,519.382,1038.527,519.292,1038.527z"/>
</g>
<g>
	<path fill="#B0E2F7" d="M516.952,1084.367c0.016-0.015,0.136,0.021,0.275,0.016c0.415-0.011,1.11,0.045,1.17-0.016
		c0.065-0.064-0.725-1.215-0.725-1.215s0.725-1.15,0.725-1.225c0-0.075-1.45,0-1.45,0s-0.564-1.131-0.67-1.131
		c-0.104,0-0.57,1.07-0.67,1.131c-0.1,0.055-1.4-0.045-1.445,0s0.726,1.215,0.726,1.215s-0.78,1.165-0.726,1.225
		c0.061,0.061,1.396-0.115,1.471-0.04c0.074,0.075,0.654,1.17,0.654,1.17S516.887,1084.428,516.952,1084.367z"/>
	<path fill="#B0E2F7" d="M516.357,1080.747c-0.02,0.115-0.085,0.061-0.12,0.05c-0.035-0.015-0.07-0.189-0.07-0.324
		c0-0.136,0.061-0.285,0.146-0.285C516.462,1080.188,516.377,1080.633,516.357,1080.747z M516.332,1079.947
		c-0.154,0-0.295,0.065-0.305,0.2c-0.005,0.135-0.01,0.55,0.05,0.635c0.065,0.085,0.12,0.17,0.12,0.17s0.215,0.085,0.311-0.185
		c0.095-0.271,0.09-0.556,0.04-0.641C516.497,1080.037,516.487,1079.947,516.332,1079.947z"/>
</g>
<g>
	<path fill="#B0E2F7" d="M534.912,1101.207c0.016-0.015,0.12,0.021,0.24,0.016c0.37-0.011,0.98,0.04,1.035-0.016
		c0.055-0.055-0.64-1.074-0.64-1.074s0.64-1.021,0.64-1.086c0-0.064-1.285,0-1.285,0s-0.5-1-0.595-1s-0.505,0.95-0.59,1
		c-0.085,0.051-1.24-0.039-1.28,0c-0.04,0.04,0.64,1.075,0.64,1.075s-0.689,1.03-0.64,1.085c0.05,0.051,1.235-0.104,1.3-0.035
		c0.065,0.07,0.58,1.035,0.58,1.035S534.857,1101.263,534.912,1101.207z"/>
	<path fill="#B0E2F7" d="M534.387,1098.002c-0.016,0.101-0.075,0.056-0.105,0.04c-0.03-0.015-0.064-0.17-0.064-0.29
		c0-0.119,0.05-0.25,0.125-0.25C534.482,1097.508,534.402,1097.902,534.387,1098.002z M534.362,1097.297
		c-0.135,0-0.265,0.056-0.27,0.176c-0.005,0.119-0.011,0.484,0.045,0.56c0.055,0.075,0.104,0.15,0.104,0.15s0.19,0.075,0.275-0.165
		c0.08-0.24,0.08-0.49,0.035-0.565C534.512,1097.377,534.501,1097.297,534.362,1097.297z"/>
</g>
<g>
	<path fill="#B0E2F7" d="M519.377,1121.337c0.01-0.01,0.1,0.016,0.199,0.011c0.306-0.006,0.811,0.035,0.855-0.011
		c0.045-0.045-0.53-0.89-0.53-0.89s0.53-0.84,0.53-0.895c0-0.056-1.061,0-1.061,0s-0.415-0.825-0.489-0.825
		c-0.075,0-0.415,0.785-0.49,0.825c-0.07,0.039-1.025-0.035-1.055,0c-0.035,0.034,0.529,0.89,0.529,0.89s-0.569,0.854-0.529,0.895
		s1.02-0.085,1.074-0.029c0.056,0.055,0.48,0.854,0.48,0.854S519.332,1121.383,519.377,1121.337z"/>
	<path fill="#B0E2F7" d="M518.942,1118.688c-0.015,0.085-0.064,0.045-0.09,0.035c-0.025-0.011-0.055-0.141-0.055-0.24
		s0.04-0.205,0.104-0.205C519.022,1118.277,518.957,1118.603,518.942,1118.688z M518.922,1118.103c-0.115,0-0.221,0.045-0.221,0.145
		c-0.005,0.101-0.01,0.4,0.04,0.465c0.045,0.065,0.09,0.125,0.09,0.125s0.16,0.061,0.226-0.135c0.064-0.194,0.064-0.405,0.03-0.47
		C519.047,1118.167,519.037,1118.103,518.922,1118.103z"/>
</g>
<g>
	<path fill="#B0E2F7" d="M507.077,1112.082c0.02-0.02,0.165,0.025,0.34,0.021c0.515-0.011,1.37,0.055,1.45-0.021
		c0.08-0.08-0.895-1.505-0.895-1.505s0.895-1.42,0.895-1.51s-1.795,0-1.795,0s-0.7-1.396-0.83-1.396
		c-0.13,0-0.705,1.325-0.825,1.396s-1.73-0.055-1.785,0c-0.055,0.055,0.895,1.505,0.895,1.505s-0.965,1.44-0.895,1.51
		c0.07,0.07,1.72-0.145,1.815-0.05c0.095,0.095,0.81,1.445,0.81,1.445S506.997,1112.162,507.077,1112.082z"/>
	<path fill="#B0E2F7" d="M506.342,1107.612c-0.025,0.14-0.105,0.075-0.15,0.06c-0.045-0.015-0.09-0.234-0.09-0.404
		s0.07-0.351,0.18-0.351C506.472,1106.917,506.362,1107.467,506.342,1107.612z M506.307,1106.622c-0.19,0-0.37,0.08-0.375,0.245
		c-0.005,0.165-0.015,0.68,0.065,0.785s0.15,0.21,0.15,0.21s0.27,0.104,0.38-0.229c0.115-0.33,0.115-0.686,0.05-0.791
		C506.512,1106.737,506.502,1106.622,506.307,1106.622z"/>
</g>
<g>
	<path fill="#B0E2F7" d="M533.297,1087.138c0.01-0.011,0.085,0.01,0.17,0.01c0.26-0.005,0.685,0.03,0.725-0.01
		s-0.45-0.755-0.45-0.755s0.45-0.716,0.45-0.761s-0.899,0-0.899,0s-0.351-0.7-0.416-0.7c-0.064,0-0.354,0.665-0.414,0.7
		c-0.061,0.035-0.87-0.03-0.896,0c-0.03,0.03,0.45,0.755,0.45,0.755s-0.485,0.726-0.45,0.761c0.035,0.034,0.865-0.07,0.91-0.025
		s0.405,0.725,0.405,0.725S533.257,1087.178,533.297,1087.138z"/>
	<path fill="#B0E2F7" d="M532.927,1084.893c-0.01,0.069-0.056,0.04-0.075,0.029c-0.021-0.01-0.045-0.119-0.045-0.205
		c0-0.084,0.035-0.175,0.09-0.175C532.992,1084.542,532.942,1084.822,532.927,1084.893z M532.912,1084.397
		c-0.095,0-0.185,0.04-0.189,0.125s-0.005,0.34,0.029,0.395c0.041,0.056,0.075,0.105,0.075,0.105s0.136,0.05,0.19-0.115
		s0.055-0.345,0.025-0.399C533.017,1084.452,533.007,1084.397,532.912,1084.397z"/>
</g>
<g>
	<path fill="#B0E2F7" d="M526.442,1033.767c0.005-0.005,0.05,0.005,0.101,0.005c0.154-0.005,0.409,0.015,0.43-0.005
		c0.024-0.025-0.266-0.45-0.266-0.45s0.266-0.425,0.266-0.45s-0.535,0-0.535,0s-0.21-0.415-0.245-0.415s-0.21,0.395-0.245,0.415
		s-0.515-0.015-0.529,0c-0.016,0.015,0.265,0.45,0.265,0.45s-0.29,0.43-0.265,0.45c0.02,0.02,0.515-0.045,0.539-0.015
		c0.03,0.03,0.24,0.43,0.24,0.43S526.422,1033.787,526.442,1033.767z"/>
	<path fill="#B0E2F7" d="M526.227,1032.432c-0.005,0.04-0.03,0.025-0.045,0.02c-0.01-0.005-0.025-0.07-0.025-0.12
		c0-0.05,0.021-0.105,0.056-0.105C526.262,1032.228,526.232,1032.387,526.227,1032.432z M526.217,1032.137
		c-0.056,0-0.11,0.025-0.11,0.075c0,0.05-0.005,0.2,0.02,0.235c0.025,0.03,0.046,0.06,0.046,0.06s0.079,0.03,0.114-0.07
		c0.035-0.1,0.035-0.205,0.016-0.235C526.282,1032.172,526.272,1032.137,526.217,1032.137z"/>
</g>
<g>
	<path fill="#B0E2F7" d="M531.472,1041.688c0.005-0.005,0.035,0.005,0.075,0.005c0.109,0,0.3,0.015,0.314-0.005
		c0.015-0.015-0.194-0.33-0.194-0.33s0.194-0.31,0.194-0.33s-0.39,0-0.39,0s-0.15-0.305-0.18-0.305c-0.03,0-0.155,0.29-0.181,0.305
		c-0.024,0.015-0.375-0.01-0.39,0c-0.016,0.01,0.195,0.33,0.195,0.33s-0.211,0.315-0.195,0.33c0.015,0.015,0.375-0.03,0.395-0.01
		c0.021,0.02,0.176,0.315,0.176,0.315S531.452,1041.708,531.472,1041.688z"/>
	<path fill="#B0E2F7" d="M531.312,1040.712c-0.005,0.03-0.025,0.015-0.03,0.015s-0.02-0.05-0.02-0.09s0.015-0.075,0.04-0.075
		C531.342,1040.562,531.317,1040.682,531.312,1040.712z M531.302,1040.497c-0.04,0-0.08,0.015-0.08,0.055
		c0,0.035-0.005,0.15,0.015,0.17c0.015,0.025,0.035,0.045,0.035,0.045s0.06,0.02,0.085-0.05s0.025-0.15,0.01-0.17
		C531.347,1040.522,531.347,1040.497,531.302,1040.497z"/>
</g>
<g>
	<path fill="#B0E2F7" d="M528.692,1040.492c0,0.74-0.6,1.305-1.34,1.305c-0.26,0-0.505-0.11-0.71-0.235
		c-0.38-0.225-0.63-0.595-0.63-1.075c0-0.305,0.095-0.55,0.274-0.815c0.186-0.265,0.631-0.525,1.065-0.525
		c0.49,0,1.03,0.405,1.145,0.65C528.612,1040.042,528.692,1040.237,528.692,1040.492z"/>
	<path fill="#B0E2F7" d="M527.282,1038.712c0.056,0,0.095,0.1,0.095,0.185s-0.024,0.205-0.045,0.215
		c-0.02,0.01-0.064,0.045-0.08-0.03C527.237,1039.007,527.182,1038.712,527.282,1038.712z M527.122,1038.672
		c-0.034,0.055-0.034,0.245,0.025,0.42s0.205,0.12,0.205,0.12s0.04-0.055,0.08-0.11c0.04-0.055,0.04-0.33,0.035-0.42
		c-0.005-0.09-0.101-0.13-0.2-0.13C527.162,1038.557,527.157,1038.617,527.122,1038.672z"/>
</g>
<g>
	<path fill="#B0E2F7" d="M523.697,1040.947c0,0.475-0.385,0.835-0.859,0.835c-0.171,0-0.325-0.07-0.455-0.15
		c-0.24-0.145-0.405-0.38-0.405-0.69c0-0.195,0.06-0.355,0.18-0.525c0.12-0.17,0.405-0.335,0.681-0.335
		c0.314,0,0.659,0.26,0.734,0.415C523.647,1040.662,523.697,1040.787,523.697,1040.947z"/>
	<path fill="#B0E2F7" d="M522.792,1039.807c0.035,0,0.061,0.065,0.061,0.12s-0.015,0.13-0.03,0.14
		c-0.015,0.005-0.045,0.03-0.05-0.02C522.767,1039.997,522.727,1039.807,522.792,1039.807z M522.692,1039.782
		c-0.02,0.035-0.02,0.155,0.015,0.27c0.04,0.115,0.131,0.08,0.131,0.08s0.024-0.035,0.05-0.07c0.024-0.035,0.024-0.21,0.02-0.27
		c0-0.06-0.064-0.085-0.13-0.085C522.712,1039.708,522.712,1039.747,522.692,1039.782z"/>
</g>
<g>
	<path fill="#B0E2F7" d="M523.087,1033.587c0,0.37-0.301,0.655-0.671,0.655c-0.13,0-0.255-0.055-0.354-0.115
		c-0.19-0.115-0.315-0.3-0.315-0.54c0-0.155,0.045-0.275,0.141-0.41c0.09-0.135,0.314-0.265,0.535-0.265
		c0.244,0,0.515,0.205,0.574,0.325C523.057,1033.357,523.087,1033.462,523.087,1033.587z"/>
	<path fill="#B0E2F7" d="M522.377,1032.697c0.029,0,0.05,0.05,0.05,0.095c0,0.045-0.016,0.105-0.025,0.11s-0.035,0.02-0.04-0.015
		C522.357,1032.853,522.327,1032.697,522.377,1032.697z M522.302,1032.677c-0.016,0.03-0.016,0.125,0.015,0.21s0.1,0.06,0.1,0.06
		s0.021-0.025,0.04-0.055c0.021-0.03,0.021-0.165,0.016-0.21c-0.005-0.045-0.05-0.065-0.101-0.065
		C522.322,1032.617,522.317,1032.652,522.302,1032.677z"/>
</g>
<g>
	<rect x="513.497" y="1071.522" fill="#B0E2F7" width="0.636" height="2.95"/>
	<rect x="512.647" y="1072.482" fill="#B0E2F7" width="0.635" height="1.99"/>
	<rect x="511.792" y="1072.083" fill="#B0E2F7" width="0.636" height="2.395"/>
</g>
<g>
	<rect x="539.737" y="1106.672" fill="#B0E2F7" width="1.045" height="4.851"/>
	<rect x="541.142" y="1108.247" fill="#B0E2F7" width="1.045" height="3.275"/>
	<rect x="542.542" y="1107.587" fill="#B0E2F7" width="1.045" height="3.936"/>
</g>
<g>
	<rect x="521.942" y="1119.162" fill="#B0E2F7" width="0.771" height="3.555"/>
	<rect x="522.972" y="1120.317" fill="#B0E2F7" width="0.77" height="2.399"/>
	<rect x="524.001" y="1119.832" fill="#B0E2F7" width="0.771" height="2.885"/>
</g>
<g>
	<rect x="519.632" y="1112.997" fill="#B0E2F7" width="0.925" height="4.29"/>
	<rect x="520.872" y="1114.393" fill="#B0E2F7" width="0.926" height="2.895"/>
	<rect x="522.117" y="1113.808" fill="#B0E2F7" width="0.925" height="3.479"/>
</g>
<g>
	<rect x="531.867" y="1079.893" fill="#B0E2F7" width="0.825" height="3.824"/>
	<rect x="530.757" y="1081.138" fill="#B0E2F7" width="0.824" height="2.579"/>
	<rect x="529.652" y="1080.617" fill="#B0E2F7" width="0.825" height="3.1"/>
</g>
<g>
	<rect x="508.342" y="1089.717" fill="#B0E2F7" width="0.42" height="1.94"/>
	<rect x="507.782" y="1090.348" fill="#B0E2F7" width="0.42" height="1.31"/>
	<rect x="507.217" y="1090.082" fill="#B0E2F7" width="0.42" height="1.575"/>
</g>
<g>
	<path fill="#B0E2F7" d="M524.337,1030.372c-0.561,0.025-1.011,0.49-1.011,1.06c0,0.465,0.295,0.855,0.71,1l0.301-1.005V1030.372z"
		/>
	<path fill="#B0E2F7" d="M525.442,1031.382c-0.024-0.545-0.465-0.985-1.01-1.01v1.01H525.442z"/>
	<path fill="#B0E2F7" d="M524.126,1032.458c0.08,0.02,0.171,0.03,0.256,0.03c0.569,0,1.035-0.45,1.06-1.01h-1.02L524.126,1032.458z"
		/>
</g>
<g>
	<path fill="#B0E2F7" d="M523.822,1051.552h-0.035c0,0-0.189-0.045-0.189,0.08c0,0.075,0.02,0.24-0.17,0.335
		c-0.19,0.095-0.57,0.23-0.755,0.66c-0.186,0.43,0.064,0.865,0.31,1.09s0.5,0.17,0.71,0.485c0.061,0.085,0.065,0.095,0.105,0.095
		s0.074-0.015,0.135-0.12c0.06-0.105,0.11-0.1,0.229-0.155c0.12-0.055,0.59-0.285,0.775-0.66c0.185-0.37,0.085-0.855-0.195-1.07
		c-0.279-0.215-0.505-0.305-0.6-0.37c-0.095-0.07-0.165-0.13-0.17-0.235s-0.01-0.16-0.061-0.155
		C523.867,1051.542,523.822,1051.552,523.822,1051.552z"/>
	<path fill="#B0E2F7" d="M523.782,1051.167c0.045,0,0.075,0.08,0.075,0.15c0,0.07-0.02,0.165-0.04,0.17
		c-0.02,0.01-0.055,0.035-0.064-0.025C523.747,1051.402,523.702,1051.167,523.782,1051.167z M523.657,1051.137
		c-0.024,0.045-0.024,0.195,0.021,0.335c0.045,0.14,0.16,0.095,0.16,0.095s0.029-0.045,0.064-0.09
		c0.035-0.045,0.03-0.26,0.025-0.335c-0.005-0.07-0.08-0.105-0.16-0.105C523.687,1051.042,523.682,1051.092,523.657,1051.137z"/>
</g>
<g>
	<path fill="#B0E2F7" d="M531.242,1069.222h-0.029c0,0-0.16-0.04-0.16,0.065c0,0.065,0.015,0.2-0.141,0.28
		c-0.16,0.08-0.479,0.195-0.635,0.555c-0.155,0.36,0.055,0.725,0.26,0.915c0.205,0.19,0.42,0.145,0.596,0.405
		c0.05,0.075,0.055,0.08,0.085,0.08c0.029,0,0.064-0.015,0.114-0.1c0.051-0.09,0.091-0.085,0.195-0.13
		c0.1-0.045,0.495-0.24,0.65-0.55c0.154-0.31,0.074-0.715-0.16-0.9c-0.235-0.18-0.425-0.255-0.505-0.31
		c-0.08-0.06-0.141-0.11-0.141-0.195s-0.01-0.135-0.05-0.13C531.277,1069.212,531.242,1069.222,531.242,1069.222z"/>
	<path fill="#B0E2F7" d="M531.207,1068.897c0.04,0,0.065,0.065,0.065,0.125s-0.015,0.14-0.03,0.145
		c-0.015,0.005-0.045,0.03-0.055-0.02C531.177,1069.097,531.142,1068.897,531.207,1068.897z M531.102,1068.872
		c-0.025,0.04-0.025,0.165,0.02,0.28c0.04,0.12,0.136,0.08,0.136,0.08s0.024-0.035,0.055-0.075s0.025-0.22,0.025-0.28
		c-0.006-0.06-0.065-0.09-0.136-0.09C531.132,1068.787,531.122,1068.833,531.102,1068.872z"/>
</g>
<g>
	<path fill="#B0E2F7" d="M536.022,1115.567h-0.05c0,0-0.295-0.07-0.295,0.125c0,0.12,0.029,0.37-0.26,0.515
		c-0.291,0.15-0.881,0.355-1.16,1.021c-0.28,0.665,0.095,1.33,0.475,1.68c0.38,0.351,0.77,0.265,1.095,0.745
		c0.091,0.135,0.101,0.145,0.16,0.145c0.061,0,0.115-0.024,0.21-0.189c0.096-0.165,0.17-0.155,0.355-0.235
		c0.185-0.08,0.904-0.439,1.194-1.015c0.285-0.575,0.136-1.315-0.295-1.65c-0.43-0.335-0.779-0.465-0.925-0.574
		c-0.15-0.11-0.255-0.2-0.26-0.36s-0.016-0.245-0.09-0.24C536.087,1115.547,536.022,1115.567,536.022,1115.567z"/>
	<path fill="#B0E2F7" d="M535.957,1114.973c0.07,0,0.115,0.119,0.115,0.229s-0.029,0.25-0.06,0.265
		c-0.025,0.011-0.08,0.056-0.095-0.039C535.902,1115.337,535.832,1114.973,535.957,1114.973z M535.762,1114.928
		c-0.04,0.069-0.04,0.3,0.03,0.52c0.074,0.22,0.25,0.15,0.25,0.15s0.045-0.065,0.1-0.136c0.05-0.069,0.045-0.404,0.04-0.515
		s-0.12-0.16-0.245-0.16C535.812,1114.782,535.807,1114.857,535.762,1114.928z"/>
</g>
<g>
	<path fill="#B0E2F7" d="M519.162,1076.947h-0.045c0,0-0.26-0.064-0.26,0.11c0,0.104,0.025,0.325-0.229,0.455
		c-0.256,0.13-0.771,0.31-1.021,0.895s0.085,1.165,0.42,1.476c0.33,0.305,0.675,0.229,0.96,0.654c0.08,0.12,0.09,0.13,0.141,0.13
		c0.05,0,0.1-0.02,0.185-0.165c0.08-0.145,0.15-0.135,0.31-0.205c0.16-0.069,0.795-0.385,1.045-0.89s0.115-1.155-0.26-1.445
		s-0.68-0.409-0.814-0.505c-0.136-0.095-0.226-0.175-0.23-0.314c-0.005-0.141-0.015-0.215-0.08-0.21
		C519.217,1076.933,519.162,1076.947,519.162,1076.947z"/>
	<path fill="#B0E2F7" d="M519.107,1076.433c0.06,0,0.1,0.104,0.1,0.2c0,0.095-0.024,0.22-0.05,0.229
		c-0.024,0.01-0.069,0.05-0.085-0.035C519.057,1076.747,518.997,1076.433,519.107,1076.433z M518.932,1076.388
		c-0.035,0.06-0.035,0.265,0.03,0.454c0.064,0.19,0.22,0.131,0.22,0.131s0.04-0.061,0.085-0.12c0.045-0.061,0.04-0.355,0.035-0.45
		s-0.105-0.14-0.215-0.14C518.977,1076.263,518.972,1076.327,518.932,1076.388z"/>
</g>
<g>
	<path fill="#B0E2F7" d="M517.952,1108.417h-0.04c0,0-0.225-0.055-0.225,0.096c0,0.09,0.025,0.284-0.2,0.395
		c-0.225,0.115-0.675,0.271-0.89,0.78s0.075,1.02,0.365,1.29c0.29,0.265,0.59,0.205,0.84,0.575c0.069,0.104,0.08,0.114,0.125,0.114
		s0.09-0.02,0.16-0.145c0.069-0.125,0.13-0.12,0.27-0.181c0.14-0.064,0.695-0.34,0.915-0.779c0.22-0.44,0.1-1.01-0.23-1.266
		c-0.329-0.255-0.6-0.359-0.71-0.439c-0.109-0.08-0.194-0.155-0.199-0.275s-0.011-0.189-0.07-0.185
		S517.952,1108.417,517.952,1108.417z"/>
	<path fill="#B0E2F7" d="M517.902,1107.962c0.055,0,0.09,0.091,0.09,0.176s-0.024,0.194-0.045,0.204
		c-0.02,0.011-0.064,0.041-0.075-0.029C517.862,1108.237,517.807,1107.962,517.902,1107.962z M517.752,1107.922
		c-0.03,0.056-0.03,0.23,0.024,0.4c0.055,0.165,0.19,0.115,0.19,0.115s0.035-0.05,0.074-0.105c0.04-0.055,0.035-0.31,0.03-0.395
		s-0.09-0.125-0.189-0.125C517.792,1107.812,517.787,1107.872,517.752,1107.922z"/>
</g>
<g>
	<path fill="#B0E2F7" d="M535.417,1094.652h-0.025c0,0-0.146-0.035-0.146,0.06c0,0.056,0.016,0.181-0.125,0.25
		c-0.14,0.07-0.425,0.171-0.564,0.495c-0.135,0.325,0.045,0.646,0.229,0.815c0.186,0.17,0.37,0.13,0.53,0.36
		c0.045,0.064,0.05,0.069,0.08,0.069s0.055-0.01,0.1-0.09c0.046-0.08,0.08-0.075,0.171-0.115c0.09-0.04,0.439-0.215,0.579-0.489
		c0.141-0.28,0.065-0.641-0.145-0.801s-0.375-0.225-0.45-0.279c-0.075-0.056-0.125-0.096-0.125-0.176s-0.005-0.119-0.045-0.114
		C535.452,1094.643,535.417,1094.652,535.417,1094.652z"/>
	<path fill="#B0E2F7" d="M535.387,1094.367c0.035,0,0.055,0.061,0.055,0.11c0,0.055-0.015,0.12-0.03,0.13
		c-0.015,0.01-0.04,0.025-0.045-0.021C535.362,1094.542,535.327,1094.367,535.387,1094.367z M535.292,1094.342
		c-0.021,0.035-0.021,0.146,0.015,0.25c0.035,0.105,0.12,0.075,0.12,0.075s0.024-0.029,0.045-0.064
		c0.024-0.035,0.02-0.195,0.02-0.25c0-0.056-0.06-0.08-0.12-0.08C535.317,1094.272,535.312,1094.312,535.292,1094.342z"/>
</g>
<g>
	<path fill="#B0E2F7" d="M523.217,1098.502h-0.051c0,0-0.284-0.069-0.284,0.12c0,0.115,0.029,0.36-0.255,0.5
		c-0.285,0.146-0.855,0.345-1.125,0.99c-0.275,0.646,0.095,1.29,0.46,1.63c0.369,0.34,0.744,0.255,1.064,0.725
		c0.09,0.131,0.101,0.146,0.155,0.146s0.115-0.025,0.2-0.18c0.09-0.16,0.165-0.15,0.345-0.23s0.88-0.425,1.155-0.984
		c0.279-0.556,0.13-1.275-0.29-1.601c-0.415-0.325-0.755-0.45-0.9-0.555c-0.145-0.105-0.25-0.195-0.255-0.351
		c-0.005-0.154-0.015-0.239-0.09-0.234S523.217,1098.502,523.217,1098.502z"/>
	<path fill="#B0E2F7" d="M523.152,1097.928c0.07,0,0.115,0.114,0.115,0.22c0,0.104-0.03,0.245-0.055,0.255
		c-0.025,0.01-0.08,0.055-0.096-0.04C523.102,1098.277,523.032,1097.928,523.152,1097.928z M522.962,1097.877
		c-0.04,0.065-0.04,0.29,0.029,0.506c0.07,0.209,0.24,0.145,0.24,0.145s0.045-0.065,0.095-0.13c0.051-0.065,0.045-0.39,0.04-0.5
		s-0.114-0.155-0.239-0.155S523.007,1097.812,522.962,1097.877z"/>
</g>
<g>
	<path fill="#B0E2F7" d="M514.422,1086.678h-0.045c0,0-0.261-0.065-0.261,0.109c0,0.105,0.025,0.325-0.229,0.455
		s-0.771,0.311-1.021,0.896s0.085,1.165,0.42,1.475c0.33,0.305,0.676,0.229,0.96,0.655c0.08,0.12,0.091,0.13,0.141,0.13
		s0.1-0.021,0.185-0.165c0.08-0.146,0.15-0.135,0.311-0.205c0.159-0.07,0.795-0.385,1.045-0.89s0.114-1.155-0.261-1.445
		s-0.68-0.41-0.814-0.505c-0.13-0.096-0.225-0.175-0.23-0.315c-0.005-0.14-0.015-0.215-0.08-0.21
		C514.477,1086.657,514.422,1086.678,514.422,1086.678z"/>
	<path fill="#B0E2F7" d="M514.367,1086.157c0.061,0,0.101,0.105,0.101,0.2s-0.025,0.22-0.051,0.229
		c-0.024,0.011-0.069,0.051-0.085-0.034C514.317,1086.478,514.257,1086.157,514.367,1086.157z M514.197,1086.117
		c-0.035,0.061-0.035,0.266,0.03,0.455c0.064,0.19,0.22,0.13,0.22,0.13s0.04-0.06,0.085-0.12c0.045-0.06,0.04-0.354,0.035-0.449
		c-0.005-0.096-0.104-0.141-0.215-0.141C514.237,1085.987,514.232,1086.053,514.197,1086.117z"/>
</g>
<g>
	<path fill="#B0E2F7" d="M539.797,1117.992h-0.046c0,0-0.27-0.064-0.27,0.11c0,0.109,0.03,0.335-0.24,0.475
		c-0.27,0.14-0.805,0.325-1.06,0.931c-0.255,0.609,0.09,1.215,0.435,1.534c0.346,0.32,0.7,0.24,1,0.686
		c0.085,0.12,0.096,0.135,0.146,0.135c0.055,0,0.104-0.021,0.189-0.17c0.085-0.15,0.155-0.14,0.325-0.215s0.83-0.4,1.09-0.925
		c0.26-0.525,0.12-1.2-0.27-1.506c-0.396-0.305-0.71-0.425-0.846-0.524c-0.135-0.101-0.234-0.181-0.239-0.325
		s-0.016-0.225-0.085-0.22C539.852,1117.973,539.797,1117.992,539.797,1117.992z"/>
	<path fill="#B0E2F7" d="M539.737,1117.452c0.065,0,0.105,0.11,0.105,0.21c0,0.101-0.03,0.23-0.056,0.24
		c-0.024,0.01-0.074,0.05-0.09-0.035C539.682,1117.782,539.622,1117.452,539.737,1117.452z M539.557,1117.407
		c-0.04,0.065-0.04,0.275,0.03,0.476c0.069,0.199,0.229,0.135,0.229,0.135s0.045-0.061,0.09-0.125c0.045-0.065,0.04-0.37,0.04-0.471
		c-0.005-0.1-0.109-0.149-0.225-0.149S539.597,1117.342,539.557,1117.407z"/>
</g>
<g>
	<path fill="#B0E2F7" d="M523.257,1063.717h-0.035c0,0-0.19-0.045-0.19,0.08c0,0.075,0.021,0.24-0.17,0.335
		c-0.189,0.095-0.57,0.23-0.755,0.66c-0.185,0.43,0.065,0.865,0.31,1.09c0.245,0.225,0.5,0.17,0.711,0.485
		c0.06,0.085,0.064,0.095,0.104,0.095s0.075-0.015,0.135-0.12c0.061-0.105,0.11-0.1,0.23-0.155c0.12-0.055,0.59-0.285,0.774-0.66
		c0.186-0.37,0.085-0.855-0.194-1.07c-0.28-0.215-0.505-0.305-0.601-0.37c-0.095-0.065-0.165-0.13-0.17-0.235
		c-0.005-0.105-0.01-0.16-0.06-0.155C523.297,1063.708,523.257,1063.717,523.257,1063.717z"/>
	<path fill="#B0E2F7" d="M523.212,1063.333c0.045,0,0.074,0.08,0.074,0.15c0,0.07-0.02,0.165-0.04,0.17
		c-0.02,0.005-0.055,0.035-0.064-0.025C523.177,1063.567,523.132,1063.333,523.212,1063.333z M523.087,1063.302
		c-0.025,0.045-0.025,0.195,0.02,0.335s0.16,0.095,0.16,0.095s0.03-0.045,0.064-0.09c0.035-0.045,0.03-0.26,0.025-0.335
		c-0.005-0.07-0.08-0.105-0.16-0.105C523.117,1063.208,523.112,1063.257,523.087,1063.302z"/>
</g>
<g>
	<path fill="#B0E2F7" d="M520.887,1084.842h-0.061c0,0-0.364-0.09-0.364,0.15c0,0.146,0.04,0.455-0.32,0.635
		c-0.36,0.181-1.08,0.436-1.425,1.25c-0.346,0.815,0.12,1.636,0.585,2.061s0.939,0.325,1.345,0.915
		c0.11,0.165,0.125,0.18,0.195,0.18c0.069,0,0.145-0.03,0.255-0.229c0.109-0.2,0.205-0.19,0.435-0.29
		c0.226-0.101,1.11-0.54,1.465-1.245c0.351-0.705,0.165-1.615-0.364-2.025c-0.53-0.41-0.955-0.57-1.136-0.705
		c-0.18-0.13-0.314-0.245-0.319-0.439c-0.005-0.195-0.021-0.301-0.115-0.295C520.967,1084.808,520.887,1084.842,520.887,1084.842z"
		/>
	<path fill="#B0E2F7" d="M520.807,1084.117c0.085,0,0.145,0.15,0.145,0.28c0,0.135-0.04,0.31-0.069,0.325
		c-0.035,0.015-0.101,0.064-0.12-0.051C520.742,1084.562,520.652,1084.117,520.807,1084.117z M520.567,1084.058
		c-0.05,0.085-0.05,0.37,0.04,0.635s0.305,0.185,0.305,0.185s0.061-0.08,0.12-0.165c0.061-0.085,0.056-0.495,0.05-0.63
		c-0.005-0.135-0.149-0.199-0.3-0.199C520.632,1083.883,520.622,1083.973,520.567,1084.058z"/>
</g>
<g>
	<path fill="#B0E2F7" d="M521.322,1060.422h-0.024c0,0-0.146-0.035-0.146,0.06c0,0.06,0.015,0.185-0.13,0.255
		s-0.435,0.175-0.575,0.505c-0.14,0.33,0.05,0.66,0.235,0.83c0.189,0.17,0.38,0.13,0.545,0.37c0.045,0.065,0.05,0.075,0.08,0.075
		s0.06-0.01,0.104-0.095c0.045-0.08,0.085-0.075,0.176-0.115c0.09-0.04,0.449-0.22,0.59-0.5c0.14-0.285,0.064-0.65-0.146-0.815
		s-0.385-0.23-0.46-0.285c-0.075-0.055-0.125-0.1-0.13-0.18s-0.01-0.12-0.045-0.12
		C521.352,1060.412,521.322,1060.422,521.322,1060.422z"/>
	<path fill="#B0E2F7" d="M521.292,1060.127c0.035,0,0.061,0.06,0.061,0.115c0,0.055-0.015,0.125-0.03,0.13
		c-0.015,0.005-0.04,0.025-0.05-0.02C521.262,1060.307,521.227,1060.127,521.292,1060.127z M521.192,1060.103
		c-0.02,0.035-0.02,0.15,0.015,0.255c0.035,0.11,0.125,0.075,0.125,0.075s0.025-0.035,0.051-0.065c0.024-0.03,0.024-0.2,0.02-0.255
		c0-0.055-0.06-0.08-0.12-0.08C521.222,1060.032,521.212,1060.067,521.192,1060.103z"/>
</g>
<g>
	<path fill="#B0E2F7" d="M519.282,1062.382h-0.029c0,0-0.186-0.045-0.186,0.08c0,0.075,0.021,0.235-0.165,0.33
		c-0.185,0.095-0.56,0.225-0.735,0.645c-0.18,0.42,0.061,0.845,0.301,1.065c0.239,0.22,0.484,0.17,0.694,0.475
		c0.061,0.085,0.065,0.095,0.101,0.095s0.075-0.015,0.13-0.12c0.06-0.105,0.104-0.095,0.225-0.15c0.115-0.05,0.575-0.28,0.755-0.645
		c0.181-0.365,0.085-0.835-0.189-1.045c-0.275-0.21-0.495-0.295-0.585-0.365c-0.095-0.07-0.16-0.125-0.165-0.225
		c-0.005-0.1-0.01-0.155-0.061-0.155C519.322,1062.372,519.282,1062.382,519.282,1062.382z"/>
	<path fill="#B0E2F7" d="M519.242,1062.007c0.045,0,0.075,0.075,0.075,0.145s-0.02,0.16-0.035,0.165
		c-0.015,0.005-0.05,0.035-0.06-0.025C519.207,1062.237,519.162,1062.007,519.242,1062.007z M519.117,1061.978
		c-0.024,0.045-0.024,0.19,0.021,0.33c0.045,0.14,0.16,0.095,0.16,0.095s0.029-0.04,0.06-0.085s0.03-0.255,0.025-0.325
		c-0.005-0.07-0.075-0.105-0.155-0.105S519.142,1061.932,519.117,1061.978z"/>
</g>
<g>
	<path fill="#B0E2F7" d="M518.237,1052.688c0-0.175-0.05-0.32-0.18-0.42c-0.09-0.07-0.235-0.12-0.36-0.12
		c-0.3,0-0.54,0.185-0.54,0.54c0,0.385,0.33,0.445,0.34,0.5c0.016,0.04-0.239,0.195-0.13,0.6c0.065,0.23,0.141,0.39,0.175,0.54
		c0.075,0.315,0.15,0.455,0.15,0.455s0.065-0.125,0.205-0.685c0.02-0.065,0.105-0.24,0.125-0.31c0.11-0.405-0.14-0.545-0.13-0.6
		C517.932,1053.092,518.217,1053.107,518.237,1052.688z"/>
	<path fill="#B0E2F7" d="M517.702,1051.938c0.03,0,0.045,0.045,0.045,0.09s-0.01,0.1-0.024,0.105c-0.016,0.005-0.03,0.02-0.04-0.015
		C517.682,1052.077,517.657,1051.938,517.702,1051.938z M517.627,1051.917c-0.016,0.025-0.016,0.12,0.015,0.205
		c0.03,0.085,0.1,0.06,0.1,0.06s0.021-0.025,0.04-0.055c0.021-0.025,0.021-0.16,0.016-0.205c-0.006-0.045-0.045-0.065-0.096-0.065
		C517.652,1051.857,517.642,1051.892,517.627,1051.917z"/>
</g>
<g>
	<path fill="#B0E2F7" d="M516.462,1068.802c0-0.32-0.096-0.585-0.33-0.765c-0.165-0.13-0.431-0.22-0.655-0.22
		c-0.545,0-0.985,0.335-0.985,0.985c0,0.7,0.601,0.81,0.625,0.92c0.03,0.075-0.439,0.355-0.234,1.09
		c0.114,0.425,0.255,0.715,0.319,0.99c0.136,0.575,0.28,0.835,0.28,0.835s0.115-0.23,0.375-1.255c0.035-0.12,0.185-0.435,0.225-0.57
		c0.205-0.74-0.25-0.995-0.234-1.09C515.912,1069.547,516.422,1069.572,516.462,1068.802z"/>
	<path fill="#B0E2F7" d="M515.492,1067.432c0.05,0,0.085,0.085,0.085,0.165s-0.02,0.18-0.04,0.19c-0.02,0.01-0.06,0.04-0.069-0.03
		C515.452,1067.692,515.402,1067.432,515.492,1067.432z M515.352,1067.397c-0.03,0.05-0.03,0.215,0.025,0.375
		c0.055,0.16,0.18,0.11,0.18,0.11s0.035-0.05,0.07-0.1c0.034-0.05,0.034-0.29,0.029-0.37c-0.005-0.08-0.085-0.115-0.175-0.115
		C515.387,1067.292,515.382,1067.347,515.352,1067.397z"/>
</g>
<g>
	<path fill="#B0E2F7" d="M519.387,1055.857c0-0.18-0.056-0.335-0.19-0.435c-0.095-0.075-0.245-0.125-0.375-0.125
		c-0.31,0-0.56,0.19-0.56,0.56c0,0.4,0.345,0.465,0.354,0.525c0.016,0.04-0.25,0.2-0.135,0.62c0.065,0.24,0.146,0.41,0.185,0.565
		c0.075,0.33,0.16,0.475,0.16,0.475s0.065-0.13,0.215-0.715c0.021-0.07,0.105-0.245,0.131-0.325c0.114-0.42-0.146-0.57-0.136-0.62
		C519.072,1056.282,519.367,1056.297,519.387,1055.857z"/>
	<path fill="#B0E2F7" d="M518.837,1055.077c0.029,0,0.05,0.05,0.05,0.095s-0.016,0.105-0.025,0.11s-0.035,0.02-0.04-0.015
		C518.812,1055.228,518.782,1055.077,518.837,1055.077z M518.757,1055.057c-0.016,0.03-0.016,0.125,0.015,0.215
		c0.03,0.09,0.1,0.06,0.1,0.06s0.021-0.025,0.04-0.055c0.021-0.03,0.021-0.165,0.016-0.21c0-0.045-0.05-0.065-0.101-0.065
		C518.777,1055.002,518.772,1055.032,518.757,1055.057z"/>
</g>
<g>
	<path fill="#B0E2F7" d="M531.487,1074.982c0-0.18-0.055-0.335-0.189-0.435c-0.096-0.075-0.245-0.125-0.375-0.125
		c-0.311,0-0.561,0.19-0.561,0.56c0,0.4,0.345,0.465,0.355,0.525c0.015,0.039-0.25,0.199-0.136,0.619
		c0.065,0.24,0.146,0.41,0.186,0.565c0.075,0.33,0.16,0.475,0.16,0.475s0.064-0.13,0.215-0.715c0.02-0.069,0.104-0.245,0.13-0.325
		c0.115-0.42-0.146-0.569-0.135-0.619C531.172,1075.407,531.467,1075.422,531.487,1074.982z"/>
	<path fill="#B0E2F7" d="M530.932,1074.202c0.03,0,0.05,0.05,0.05,0.095s-0.015,0.105-0.025,0.11
		c-0.01,0.005-0.034,0.02-0.039-0.015C530.912,1074.357,530.882,1074.202,530.932,1074.202z M530.852,1074.182
		c-0.015,0.03-0.015,0.125,0.015,0.215c0.03,0.09,0.101,0.06,0.101,0.06s0.02-0.025,0.04-0.055c0.02-0.03,0.02-0.165,0.015-0.21
		s-0.05-0.065-0.1-0.065C530.872,1074.127,530.872,1074.157,530.852,1074.182z"/>
</g>
<g>
	<path fill="#B0E2F7" d="M525.672,1067.367c0-0.28-0.085-0.51-0.29-0.67c-0.146-0.11-0.375-0.195-0.575-0.195
		c-0.476,0-0.86,0.295-0.86,0.86c0,0.615,0.525,0.71,0.545,0.8c0.025,0.065-0.385,0.31-0.21,0.955
		c0.101,0.37,0.226,0.625,0.28,0.865c0.12,0.505,0.245,0.73,0.245,0.73s0.1-0.2,0.325-1.095c0.029-0.105,0.165-0.38,0.194-0.5
		c0.181-0.645-0.22-0.87-0.21-0.955C525.192,1068.022,525.637,1068.042,525.672,1067.367z"/>
	<path fill="#B0E2F7" d="M524.822,1066.172c0.045,0,0.075,0.075,0.075,0.145c0,0.07-0.021,0.16-0.035,0.165s-0.05,0.035-0.06-0.025
		C524.787,1066.402,524.747,1066.172,524.822,1066.172z M524.702,1066.142c-0.024,0.045-0.024,0.19,0.021,0.325
		c0.045,0.135,0.154,0.095,0.154,0.095s0.03-0.04,0.061-0.085c0.03-0.045,0.03-0.255,0.025-0.325c-0.006-0.07-0.075-0.1-0.155-0.1
		C524.732,1066.052,524.727,1066.103,524.702,1066.142z"/>
</g>
<g>
	<path fill="#B0E2F7" d="M534.626,1069.932c0-0.335-0.1-0.615-0.345-0.805c-0.175-0.135-0.45-0.23-0.689-0.23
		c-0.575,0-1.035,0.35-1.035,1.035c0,0.735,0.635,0.855,0.655,0.965c0.029,0.075-0.466,0.37-0.25,1.15
		c0.125,0.445,0.27,0.755,0.34,1.04c0.145,0.605,0.29,0.88,0.29,0.88s0.12-0.24,0.395-1.32c0.035-0.125,0.195-0.455,0.235-0.6
		c0.215-0.78-0.266-1.045-0.25-1.15C534.047,1070.717,534.592,1070.742,534.626,1069.932z"/>
	<path fill="#B0E2F7" d="M533.607,1068.497c0.055,0,0.09,0.09,0.09,0.175s-0.024,0.19-0.045,0.2c-0.02,0.01-0.06,0.04-0.075-0.03
		C533.567,1068.767,533.512,1068.497,533.607,1068.497z M533.462,1068.458c-0.03,0.055-0.03,0.23,0.024,0.395
		c0.056,0.165,0.19,0.115,0.19,0.115s0.035-0.05,0.074-0.105c0.041-0.055,0.035-0.305,0.03-0.39s-0.09-0.125-0.185-0.125
		C533.501,1068.347,533.492,1068.407,533.462,1068.458z"/>
</g>
<g>
	<path fill="#B0E2F7" d="M523.997,1073.537c0-0.31-0.095-0.565-0.319-0.74c-0.16-0.125-0.415-0.215-0.636-0.215
		c-0.524,0-0.954,0.325-0.954,0.955c0,0.68,0.585,0.785,0.604,0.89c0.03,0.07-0.425,0.34-0.229,1.055
		c0.114,0.41,0.25,0.695,0.31,0.955c0.13,0.555,0.27,0.81,0.27,0.81s0.115-0.22,0.36-1.215c0.035-0.115,0.18-0.42,0.22-0.55
		c0.195-0.715-0.244-0.965-0.229-1.055C523.467,1074.262,523.962,1074.282,523.997,1073.537z"/>
	<path fill="#B0E2F7" d="M523.062,1072.217c0.05,0,0.08,0.085,0.08,0.16c0,0.075-0.021,0.175-0.04,0.185
		c-0.021,0.01-0.055,0.04-0.07-0.025C523.022,1072.467,522.972,1072.217,523.062,1072.217z M522.927,1072.182
		c-0.03,0.05-0.03,0.21,0.024,0.36c0.051,0.15,0.176,0.105,0.176,0.105s0.034-0.045,0.069-0.095c0.035-0.05,0.03-0.28,0.03-0.36
		c-0.005-0.075-0.085-0.115-0.17-0.115C522.962,1072.083,522.952,1072.132,522.927,1072.182z"/>
</g>
<g>
	<path fill="#B0E2F7" d="M512.322,1088.237c0-0.215-0.064-0.396-0.225-0.515c-0.11-0.085-0.29-0.15-0.445-0.15
		c-0.37,0-0.665,0.225-0.665,0.665c0,0.475,0.405,0.55,0.42,0.62c0.02,0.05-0.3,0.24-0.16,0.734c0.08,0.285,0.175,0.485,0.215,0.666
		c0.09,0.39,0.185,0.564,0.185,0.564s0.08-0.155,0.25-0.845c0.025-0.08,0.125-0.295,0.15-0.386c0.14-0.5-0.17-0.675-0.16-0.734
		C511.952,1088.742,512.297,1088.758,512.322,1088.237z"/>
	<path fill="#B0E2F7" d="M511.667,1087.312c0.035,0,0.056,0.06,0.056,0.109c0,0.056-0.016,0.125-0.03,0.131
		c-0.015,0.005-0.04,0.024-0.045-0.021S511.607,1087.312,511.667,1087.312z M511.572,1087.287c-0.02,0.035-0.02,0.146,0.015,0.25
		c0.035,0.105,0.12,0.075,0.12,0.075s0.025-0.03,0.051-0.065c0.024-0.034,0.024-0.194,0.02-0.25c0-0.055-0.06-0.08-0.12-0.08
		C511.597,1087.217,511.592,1087.258,511.572,1087.287z"/>
</g>
<g>
	<path fill="#B0E2F7" d="M525.517,1090.438c0-0.36-0.11-0.665-0.375-0.87c-0.19-0.146-0.49-0.25-0.745-0.25
		c-0.62,0-1.12,0.38-1.12,1.12c0,0.795,0.686,0.92,0.71,1.04c0.035,0.085-0.5,0.399-0.27,1.239c0.13,0.48,0.29,0.815,0.364,1.12
		c0.155,0.655,0.315,0.95,0.315,0.95s0.13-0.26,0.425-1.425c0.04-0.135,0.215-0.495,0.255-0.646c0.23-0.84-0.284-1.13-0.27-1.239
		C524.887,1091.287,525.472,1091.312,525.517,1090.438z"/>
	<path fill="#B0E2F7" d="M524.412,1088.888c0.056,0,0.096,0.1,0.096,0.185c0,0.09-0.025,0.205-0.051,0.215
		c-0.02,0.01-0.064,0.045-0.08-0.029C524.367,1089.183,524.312,1088.888,524.412,1088.888z M524.251,1088.842
		c-0.034,0.056-0.034,0.245,0.025,0.426c0.061,0.18,0.205,0.125,0.205,0.125s0.04-0.056,0.08-0.11s0.04-0.33,0.035-0.42
		s-0.101-0.13-0.2-0.13C524.297,1088.728,524.287,1088.787,524.251,1088.842z"/>
</g>
<g>
	<path fill="#B0E2F7" d="M515.582,1105.122c0-0.359-0.109-0.665-0.375-0.87c-0.189-0.145-0.489-0.25-0.744-0.25
		c-0.62,0-1.12,0.381-1.12,1.12c0,0.795,0.685,0.92,0.71,1.04c0.035,0.085-0.5,0.4-0.271,1.24c0.13,0.48,0.29,0.814,0.365,1.12
		c0.155,0.655,0.315,0.95,0.315,0.95s0.13-0.261,0.425-1.426c0.04-0.135,0.215-0.494,0.255-0.645c0.229-0.84-0.285-1.13-0.271-1.24
		C514.957,1105.973,515.542,1105.997,515.582,1105.122z"/>
	<path fill="#B0E2F7" d="M514.482,1103.567c0.055,0,0.095,0.1,0.095,0.185s-0.024,0.205-0.05,0.215
		c-0.024,0.011-0.064,0.046-0.08-0.029C514.437,1103.862,514.377,1103.567,514.482,1103.567z M514.322,1103.527
		c-0.035,0.055-0.035,0.245,0.025,0.425c0.06,0.181,0.205,0.125,0.205,0.125s0.04-0.055,0.08-0.11c0.04-0.055,0.04-0.329,0.034-0.42
		c-0.005-0.09-0.1-0.13-0.199-0.13C514.367,1103.417,514.357,1103.473,514.322,1103.527z"/>
</g>
<g>
	<path fill="#B0E2F7" d="M529.467,1110.207c0-0.359-0.11-0.665-0.375-0.87c-0.19-0.145-0.49-0.25-0.745-0.25
		c-0.62,0-1.12,0.38-1.12,1.12c0,0.795,0.685,0.92,0.71,1.04c0.035,0.085-0.5,0.4-0.27,1.24c0.13,0.479,0.289,0.815,0.364,1.12
		c0.155,0.655,0.315,0.95,0.315,0.95s0.13-0.261,0.425-1.425c0.04-0.136,0.215-0.495,0.255-0.646c0.23-0.84-0.285-1.13-0.27-1.24
		C528.842,1111.053,529.427,1111.082,529.467,1110.207z"/>
	<path fill="#B0E2F7" d="M528.367,1108.652c0.056,0,0.096,0.1,0.096,0.185s-0.025,0.205-0.051,0.216
		c-0.02,0.01-0.064,0.045-0.08-0.03C528.322,1108.947,528.262,1108.652,528.367,1108.652z M528.207,1108.612
		c-0.034,0.055-0.034,0.245,0.025,0.425c0.061,0.18,0.205,0.125,0.205,0.125s0.04-0.055,0.08-0.109c0.04-0.056,0.04-0.33,0.035-0.42
		c-0.005-0.091-0.101-0.131-0.2-0.131C528.247,1108.497,528.242,1108.558,528.207,1108.612z"/>
</g>
<g>
	<path fill="#B0E2F7" d="M527.907,1057.282c0.016-0.015,0.12,0.02,0.245,0.015c0.37-0.01,0.99,0.04,1.05-0.015
		c0.056-0.055-0.649-1.09-0.649-1.09s0.649-1.03,0.649-1.095s-1.3,0-1.3,0s-0.505-1.01-0.6-1.01c-0.096,0-0.51,0.96-0.601,1.01
		c-0.09,0.05-1.25-0.04-1.295,0c-0.04,0.04,0.65,1.09,0.65,1.09s-0.7,1.045-0.65,1.095c0.05,0.05,1.245-0.105,1.315-0.035
		c0.07,0.07,0.585,1.045,0.585,1.045S527.847,1057.337,527.907,1057.282z"/>
	<path fill="#B0E2F7" d="M527.376,1054.042c-0.015,0.105-0.074,0.055-0.104,0.045c-0.03-0.015-0.065-0.17-0.065-0.29
		s0.051-0.255,0.131-0.255C527.467,1053.537,527.392,1053.938,527.376,1054.042z M527.352,1053.327c-0.14,0-0.265,0.055-0.271,0.18
		c-0.005,0.125-0.01,0.49,0.045,0.57c0.056,0.075,0.11,0.15,0.11,0.15s0.195,0.075,0.275-0.165c0.08-0.24,0.08-0.495,0.035-0.575
		C527.501,1053.407,527.492,1053.327,527.352,1053.327z"/>
</g>
<g>
	<path fill="#B0E2F7" d="M513.492,1101.962c0.021-0.015,0.15,0.021,0.311,0.021c0.465-0.01,1.245,0.05,1.314-0.021
		c0.07-0.069-0.814-1.37-0.814-1.37s0.814-1.295,0.814-1.375c0-0.079-1.635,0-1.635,0s-0.635-1.27-0.755-1.27s-0.64,1.205-0.75,1.27
		c-0.11,0.065-1.575-0.05-1.625,0c-0.05,0.051,0.815,1.37,0.815,1.37s-0.88,1.311-0.815,1.375c0.065,0.065,1.564-0.13,1.65-0.045
		c0.085,0.085,0.734,1.315,0.734,1.315S513.422,1102.032,513.492,1101.962z"/>
	<path fill="#B0E2F7" d="M512.822,1097.893c-0.02,0.13-0.095,0.069-0.135,0.055s-0.08-0.215-0.08-0.365
		c0-0.149,0.065-0.319,0.16-0.319C512.942,1097.263,512.847,1097.763,512.822,1097.893z M512.797,1096.992
		c-0.176,0-0.335,0.07-0.341,0.225c-0.005,0.155-0.015,0.62,0.061,0.716c0.07,0.095,0.135,0.189,0.135,0.189s0.245,0.095,0.345-0.21
		c0.105-0.3,0.105-0.625,0.045-0.72C512.982,1097.098,512.967,1096.992,512.797,1096.992z"/>
</g>
<g>
	<path fill="#B0E2F7" d="M523.312,1058.387c0.01-0.01,0.095,0.015,0.195,0.01c0.295-0.005,0.79,0.035,0.835-0.01
		s-0.516-0.87-0.516-0.87s0.516-0.82,0.516-0.87c0-0.05-1.035,0-1.035,0s-0.405-0.805-0.48-0.805c-0.074,0-0.404,0.765-0.475,0.805
		s-0.995-0.03-1.03,0c-0.035,0.03,0.516,0.865,0.516,0.865s-0.556,0.83-0.516,0.87s0.99-0.085,1.045-0.03
		c0.056,0.055,0.465,0.83,0.465,0.83S523.267,1058.427,523.312,1058.387z"/>
	<path fill="#B0E2F7" d="M522.892,1055.807c-0.015,0.08-0.061,0.045-0.085,0.035c-0.025-0.01-0.05-0.135-0.05-0.23
		s0.04-0.2,0.104-0.2C522.967,1055.407,522.902,1055.728,522.892,1055.807z M522.872,1055.237c-0.109,0-0.21,0.045-0.215,0.145
		s-0.01,0.39,0.035,0.45c0.045,0.06,0.085,0.12,0.085,0.12s0.155,0.06,0.22-0.13c0.065-0.19,0.065-0.395,0.03-0.455
		C522.987,1055.302,522.982,1055.237,522.872,1055.237z"/>
</g>
<g>
	<path fill="#B0E2F7" d="M536.302,1074.372c0.01-0.01,0.074,0.01,0.154,0.01c0.235-0.005,0.625,0.025,0.665-0.01
		c0.04-0.035-0.409-0.69-0.409-0.69s0.409-0.65,0.409-0.695s-0.819,0-0.819,0s-0.32-0.64-0.38-0.64c-0.061,0-0.32,0.605-0.38,0.64
		c-0.056,0.03-0.791-0.025-0.82,0c-0.025,0.025,0.41,0.69,0.41,0.69s-0.445,0.66-0.41,0.695c0.035,0.035,0.79-0.065,0.83-0.025
		c0.045,0.045,0.37,0.66,0.37,0.66S536.267,1074.407,536.302,1074.372z"/>
	<path fill="#B0E2F7" d="M535.967,1072.322c-0.011,0.065-0.05,0.035-0.07,0.025c-0.021-0.01-0.04-0.11-0.04-0.185
		c0-0.075,0.035-0.16,0.08-0.16C536.027,1072.007,535.977,1072.257,535.967,1072.322z M535.952,1071.872
		c-0.085,0-0.17,0.035-0.17,0.115c-0.005,0.08-0.005,0.31,0.03,0.36c0.035,0.05,0.07,0.095,0.07,0.095s0.125,0.045,0.175-0.105
		s0.05-0.315,0.024-0.365C536.047,1071.922,536.037,1071.872,535.952,1071.872z"/>
</g>
<g>
	<path fill="#B0E2F7" d="M529.297,1079.127c0.01-0.01,0.095,0.016,0.194,0.011c0.301-0.005,0.795,0.034,0.84-0.011
		s-0.52-0.875-0.52-0.875s0.52-0.824,0.52-0.875c0-0.05-1.039,0-1.039,0s-0.405-0.81-0.48-0.81s-0.41,0.77-0.48,0.81
		c-0.069,0.04-1.005-0.029-1.034,0c-0.03,0.03,0.52,0.875,0.52,0.875s-0.56,0.835-0.52,0.875s1-0.085,1.055-0.029
		c0.055,0.055,0.47,0.84,0.47,0.84S529.251,1079.172,529.297,1079.127z"/>
	<path fill="#B0E2F7" d="M528.872,1076.532c-0.015,0.085-0.06,0.045-0.085,0.035c-0.024-0.01-0.05-0.14-0.05-0.235
		c0-0.095,0.04-0.205,0.105-0.205C528.947,1076.127,528.882,1076.447,528.872,1076.532z M528.852,1075.957
		c-0.11,0-0.215,0.045-0.215,0.146c0,0.1-0.011,0.395,0.035,0.455c0.045,0.06,0.085,0.12,0.085,0.12s0.154,0.06,0.22-0.136
		c0.065-0.194,0.065-0.399,0.03-0.46C528.972,1076.022,528.962,1075.957,528.852,1075.957z"/>
</g>
<g>
	<path fill="#B0E2F7" d="M514.267,1115.263c0.02-0.021,0.165,0.024,0.335,0.02c0.51-0.01,1.36,0.055,1.439-0.02
		c0.08-0.075-0.89-1.495-0.89-1.495s0.89-1.415,0.89-1.5s-1.784,0-1.784,0s-0.695-1.385-0.825-1.385s-0.7,1.314-0.82,1.385
		c-0.12,0.069-1.72-0.056-1.775,0c-0.055,0.055,0.89,1.495,0.89,1.495s-0.96,1.43-0.89,1.5c0.07,0.069,1.71-0.141,1.805-0.051
		c0.095,0.096,0.805,1.436,0.805,1.436S514.187,1115.337,514.267,1115.263z"/>
	<path fill="#B0E2F7" d="M513.537,1110.817c-0.024,0.14-0.104,0.075-0.145,0.06c-0.04-0.015-0.09-0.234-0.09-0.399
		s0.069-0.351,0.175-0.351C513.667,1110.127,513.557,1110.672,513.537,1110.817z M513.502,1109.832c-0.19,0-0.365,0.075-0.37,0.245
		s-0.016,0.675,0.064,0.78c0.08,0.104,0.15,0.205,0.15,0.205s0.265,0.104,0.38-0.23c0.11-0.33,0.11-0.68,0.05-0.785
		C513.707,1109.947,513.692,1109.832,513.502,1109.832z"/>
</g>
<g>
	<path fill="#B0E2F7" d="M518.102,1091.522c0.01-0.01,0.095,0.015,0.195,0.01c0.3-0.005,0.795,0.035,0.84-0.01
		s-0.521-0.875-0.521-0.875s0.521-0.825,0.521-0.875s-1.04,0-1.04,0s-0.405-0.811-0.48-0.811s-0.41,0.771-0.479,0.811
		c-0.07,0.04-1.005-0.03-1.035,0s0.52,0.875,0.52,0.875s-0.56,0.835-0.52,0.875s1-0.085,1.055-0.03
		c0.056,0.055,0.471,0.84,0.471,0.84S518.057,1091.567,518.102,1091.522z"/>
	<path fill="#B0E2F7" d="M517.677,1088.928c-0.016,0.085-0.061,0.045-0.085,0.034c-0.025-0.01-0.051-0.14-0.051-0.234
		s0.04-0.205,0.105-0.205C517.752,1088.527,517.692,1088.848,517.677,1088.928z M517.657,1088.353c-0.109,0-0.215,0.045-0.215,0.145
		c0,0.101-0.01,0.396,0.035,0.455c0.045,0.061,0.085,0.12,0.085,0.12s0.155,0.061,0.22-0.135c0.065-0.195,0.065-0.4,0.03-0.46
		C517.777,1088.422,517.767,1088.353,517.657,1088.353z"/>
</g>
<g>
	<path fill="#B0E2F7" d="M512.587,1085.797c0.005-0.005,0.055,0.011,0.104,0.006c0.16-0.006,0.436,0.02,0.46-0.006
		c0.025-0.024-0.285-0.475-0.285-0.475s0.285-0.45,0.285-0.48c0-0.029-0.57,0-0.57,0s-0.22-0.439-0.26-0.439s-0.225,0.42-0.26,0.439
		c-0.035,0.021-0.545-0.02-0.565,0c-0.02,0.021,0.285,0.476,0.285,0.476s-0.305,0.455-0.285,0.479
		c0.02,0.025,0.544-0.045,0.575-0.015s0.255,0.455,0.255,0.455S512.562,1085.817,512.587,1085.797z"/>
	<path fill="#B0E2F7" d="M512.352,1084.383c-0.01,0.045-0.035,0.024-0.045,0.02c-0.016-0.005-0.03-0.075-0.03-0.13
		c0-0.056,0.025-0.11,0.055-0.11C512.392,1084.162,512.362,1084.337,512.352,1084.383z M512.342,1084.067
		c-0.061,0-0.115,0.024-0.12,0.08c-0.005,0.055-0.005,0.215,0.02,0.25c0.025,0.035,0.045,0.064,0.045,0.064s0.085,0.035,0.12-0.069
		c0.035-0.105,0.035-0.215,0.016-0.25C512.402,1084.107,512.402,1084.067,512.342,1084.067z"/>
</g>
<g>
	<path fill="#B0E2F7" d="M534.487,1058.097c0.005-0.005,0.05,0.005,0.101,0.005c0.154-0.005,0.409,0.015,0.43-0.005
		c0.025-0.025-0.266-0.45-0.266-0.45s0.266-0.425,0.266-0.45s-0.535,0-0.535,0s-0.21-0.415-0.245-0.415s-0.21,0.395-0.245,0.415
		s-0.515-0.015-0.529,0c-0.016,0.015,0.265,0.45,0.265,0.45s-0.29,0.43-0.265,0.45c0.02,0.02,0.515-0.045,0.539-0.015
		c0.03,0.03,0.24,0.43,0.24,0.43S534.462,1058.117,534.487,1058.097z"/>
	<path fill="#B0E2F7" d="M534.267,1056.762c-0.005,0.04-0.03,0.025-0.045,0.02c-0.01-0.005-0.025-0.07-0.025-0.12
		c0-0.05,0.021-0.105,0.055-0.105C534.307,1056.557,534.277,1056.722,534.267,1056.762z M534.257,1056.467
		c-0.056,0-0.11,0.025-0.11,0.075c0,0.05-0.005,0.2,0.021,0.235c0.024,0.03,0.045,0.06,0.045,0.06s0.08,0.03,0.114-0.07
		c0.035-0.1,0.035-0.205,0.016-0.235C534.322,1056.502,534.317,1056.467,534.257,1056.467z"/>
</g>
<g>
	<path fill="#B0E2F7" d="M532.687,1067.202c0.005-0.005,0.05,0.005,0.1,0.005c0.155-0.005,0.41,0.015,0.431-0.005
		c0.024-0.025-0.266-0.45-0.266-0.45s0.266-0.425,0.266-0.45s-0.535,0-0.535,0s-0.21-0.415-0.245-0.415
		c-0.04,0-0.21,0.395-0.245,0.415s-0.515-0.015-0.53,0c-0.015,0.015,0.266,0.45,0.266,0.45s-0.29,0.43-0.266,0.45
		c0.021,0.02,0.516-0.045,0.54-0.015c0.03,0.03,0.24,0.43,0.24,0.43S532.662,1067.228,532.687,1067.202z"/>
	<path fill="#B0E2F7" d="M532.467,1065.867c-0.005,0.04-0.03,0.025-0.045,0.02c-0.011-0.005-0.025-0.07-0.025-0.12
		c0-0.05,0.021-0.105,0.055-0.105C532.507,1065.662,532.472,1065.827,532.467,1065.867z M532.457,1065.577
		c-0.055,0-0.109,0.025-0.109,0.075s-0.005,0.2,0.02,0.235c0.025,0.035,0.045,0.06,0.045,0.06s0.08,0.03,0.115-0.07
		s0.035-0.205,0.016-0.235C532.517,1065.607,532.512,1065.577,532.457,1065.577z"/>
</g>
<g>
	<path fill="#B0E2F7" d="M517.987,1057.087c0,0.74-0.6,1.305-1.34,1.305c-0.26,0-0.505-0.11-0.71-0.235
		c-0.38-0.225-0.63-0.595-0.63-1.075c0-0.305,0.095-0.55,0.274-0.815c0.186-0.265,0.631-0.525,1.065-0.525
		c0.49,0,1.03,0.405,1.145,0.65C517.907,1056.642,517.987,1056.837,517.987,1057.087z"/>
	<path fill="#B0E2F7" d="M516.572,1055.312c0.056,0,0.095,0.1,0.095,0.185c0,0.085-0.024,0.205-0.045,0.215
		c-0.02,0.01-0.064,0.045-0.08-0.03C516.527,1055.607,516.472,1055.312,516.572,1055.312z M516.412,1055.272
		c-0.034,0.055-0.034,0.245,0.025,0.42c0.06,0.175,0.205,0.12,0.205,0.12s0.04-0.055,0.08-0.11c0.04-0.055,0.04-0.33,0.035-0.42
		s-0.101-0.13-0.2-0.13C516.457,1055.152,516.447,1055.212,516.412,1055.272z"/>
</g>
<g>
	<path fill="#B0E2F7" d="M532.637,1056.657c0,0.645-0.521,1.135-1.165,1.135c-0.226,0-0.44-0.095-0.62-0.2
		c-0.33-0.195-0.55-0.515-0.55-0.935c0-0.265,0.08-0.48,0.24-0.71c0.159-0.23,0.55-0.455,0.925-0.455c0.425,0,0.899,0.355,1,0.565
		C532.567,1056.267,532.637,1056.438,532.637,1056.657z"/>
	<path fill="#B0E2F7" d="M531.407,1055.112c0.05,0,0.085,0.085,0.085,0.16c0,0.075-0.02,0.18-0.04,0.185
		c-0.02,0.01-0.06,0.04-0.069-0.03C531.367,1055.367,531.317,1055.112,531.407,1055.112z M531.267,1055.077
		c-0.03,0.05-0.03,0.215,0.025,0.365c0.05,0.155,0.175,0.105,0.175,0.105s0.034-0.045,0.069-0.095
		c0.035-0.05,0.035-0.285,0.03-0.365s-0.085-0.115-0.175-0.115S531.297,1055.027,531.267,1055.077z"/>
</g>
<g>
	<path fill="#B0E2F7" d="M531.657,1053.722c0,0.625-0.505,1.1-1.13,1.1c-0.22,0-0.425-0.09-0.6-0.195
		c-0.32-0.19-0.53-0.5-0.53-0.905c0-0.26,0.08-0.465,0.235-0.685c0.154-0.225,0.529-0.44,0.895-0.44c0.41,0,0.87,0.34,0.965,0.545
		C531.592,1053.347,531.657,1053.512,531.657,1053.722z"/>
	<path fill="#B0E2F7" d="M530.472,1052.228c0.05,0,0.08,0.085,0.08,0.155c0,0.075-0.021,0.175-0.04,0.18
		c-0.021,0.01-0.056,0.035-0.065-0.025C530.432,1052.478,530.387,1052.228,530.472,1052.228z M530.337,1052.197
		c-0.03,0.05-0.03,0.205,0.02,0.355s0.17,0.105,0.17,0.105s0.03-0.045,0.065-0.095c0.034-0.05,0.029-0.275,0.029-0.35
		c0-0.075-0.085-0.11-0.17-0.11S530.367,1052.147,530.337,1052.197z"/>
</g>
<g>
	<path fill="#B0E2F7" d="M520.202,1048.747c-0.805,0.035-1.444,0.7-1.444,1.51c0,0.66,0.425,1.225,1.015,1.43l0.43-1.44V1048.747z"
		/>
	<path fill="#B0E2F7" d="M521.782,1050.192c-0.035-0.78-0.66-1.41-1.444-1.445v1.445H521.782z"/>
	<path fill="#B0E2F7" d="M519.902,1051.728c0.12,0.03,0.24,0.045,0.37,0.045c0.815,0,1.475-0.64,1.51-1.445h-1.46L519.902,1051.728z
		"/>
</g>
<g>
	<path fill="#B0E2F7" d="M523.687,1060.147c-0.495,0.02-0.89,0.43-0.89,0.935c0,0.41,0.26,0.755,0.625,0.88l0.265-0.89V1060.147z"/>
	<path fill="#B0E2F7" d="M524.662,1061.037c-0.02-0.485-0.41-0.87-0.89-0.89v0.89H524.662z"/>
	<path fill="#B0E2F7" d="M523.502,1061.987c0.074,0.02,0.149,0.03,0.225,0.03c0.5,0,0.91-0.395,0.935-0.89h-0.899L523.502,1061.987z
		"/>
</g>
<g>
	<path fill="#B0E2F7" d="M520.487,1073.612c-0.63,0.03-1.135,0.55-1.135,1.185c0,0.52,0.335,0.96,0.795,1.12l0.335-1.13v-1.175
		H520.487z"/>
	<path fill="#B0E2F7" d="M521.727,1074.742c-0.025-0.615-0.521-1.105-1.13-1.13v1.13H521.727z"/>
	<path fill="#B0E2F7" d="M520.252,1075.947c0.09,0.025,0.189,0.035,0.289,0.035c0.641,0,1.16-0.505,1.186-1.135h-1.146
		L520.252,1075.947z"/>
</g>
<g>
	<path fill="#B0E2F7" d="M533.442,1108.827c-1.435,0.065-2.58,1.25-2.58,2.7c0,1.18,0.76,2.185,1.815,2.55l0.765-2.569V1108.827z"/>
	<path fill="#B0E2F7" d="M536.262,1111.407c-0.061-1.395-1.181-2.515-2.58-2.58v2.58H536.262z"/>
	<path fill="#B0E2F7" d="M532.907,1114.147c0.21,0.05,0.431,0.08,0.655,0.08c1.45,0,2.635-1.146,2.7-2.58h-2.61L532.907,1114.147z"
		/>
</g>
<g>
	<path fill="#B0E2F7" d="M535.507,1082.728c-0.631,0.03-1.136,0.55-1.136,1.185c0,0.521,0.335,0.96,0.796,1.12l0.334-1.13v-1.175
		H535.507z"/>
	<path fill="#B0E2F7" d="M536.747,1083.857c-0.024-0.615-0.52-1.105-1.13-1.13v1.13H536.747z"/>
	<path fill="#B0E2F7" d="M535.272,1085.062c0.09,0.024,0.19,0.035,0.29,0.035c0.64,0,1.16-0.506,1.185-1.136h-1.145
		L535.272,1085.062z"/>
</g>
<g>
	<path fill="#B0E2F7" d="M528.537,1091.772c-0.935,0.04-1.68,0.81-1.68,1.76c0,0.771,0.495,1.425,1.18,1.66l0.5-1.675V1091.772z"/>
	<path fill="#B0E2F7" d="M530.372,1093.452c-0.04-0.91-0.77-1.64-1.68-1.68v1.68H530.372z"/>
	<path fill="#B0E2F7" d="M528.187,1095.237c0.135,0.035,0.28,0.055,0.425,0.055c0.945,0,1.715-0.745,1.76-1.68h-1.699
		L528.187,1095.237z"/>
</g>
<g>
	<path fill="#B0E2F7" d="M538.212,1099.728c-0.516,0.024-0.92,0.444-0.92,0.965c0,0.42,0.27,0.78,0.649,0.91l0.275-0.92v-0.955
		H538.212z"/>
	<path fill="#B0E2F7" d="M539.222,1100.647c-0.021-0.5-0.42-0.9-0.92-0.92v0.92H539.222z"/>
	<path fill="#B0E2F7" d="M538.022,1101.627c0.075,0.021,0.155,0.03,0.235,0.03c0.52,0,0.939-0.41,0.965-0.92h-0.93L538.022,1101.627
		z"/>
</g>
<g>
	<path fill="#B0E2F7" d="M522.267,1109.342c-0.625,0.03-1.125,0.546-1.125,1.181c0,0.515,0.33,0.955,0.79,1.115l0.335-1.12V1109.342
		z"/>
	<path fill="#B0E2F7" d="M523.502,1110.473c-0.025-0.61-0.516-1.101-1.125-1.125v1.125H523.502z"/>
	<path fill="#B0E2F7" d="M522.037,1111.667c0.091,0.025,0.19,0.035,0.285,0.035c0.635,0,1.15-0.5,1.181-1.125h-1.141
		L522.037,1111.667z"/>
</g>
<g>
	<path fill="#B0E2F7" d="M514.537,1117.657c-0.625,0.03-1.125,0.545-1.125,1.18c0,0.516,0.33,0.955,0.79,1.115l0.335-1.12V1117.657z
		"/>
	<path fill="#B0E2F7" d="M515.767,1118.787c-0.025-0.609-0.515-1.1-1.125-1.125v1.125H515.767z"/>
	<path fill="#B0E2F7" d="M514.302,1119.982c0.09,0.025,0.189,0.035,0.285,0.035c0.635,0,1.149-0.5,1.18-1.125h-1.14
		L514.302,1119.982z"/>
</g>
<g>
	<path fill="#B0E2F7" d="M532.582,1120.183c-0.625,0.029-1.125,0.545-1.125,1.18c0,0.515,0.33,0.955,0.79,1.115l0.335-1.12V1120.183
		z"/>
	<path fill="#B0E2F7" d="M533.817,1121.308c-0.024-0.61-0.515-1.101-1.125-1.125v1.125H533.817z"/>
	<path fill="#B0E2F7" d="M532.352,1122.502c0.09,0.025,0.19,0.035,0.285,0.035c0.635,0,1.149-0.5,1.18-1.125h-1.14L532.352,1122.502
		z"/>
</g>
<g>
	<path fill="#B0E2F7" d="M524.527,1084.223c-0.63,0.029-1.135,0.55-1.135,1.185c0,0.521,0.335,0.96,0.795,1.12l0.335-1.13v-1.175
		H524.527z"/>
	<path fill="#B0E2F7" d="M525.767,1085.353c-0.025-0.615-0.521-1.105-1.13-1.13v1.13H525.767z"/>
	<path fill="#B0E2F7" d="M524.292,1086.558c0.09,0.024,0.189,0.034,0.289,0.034c0.641,0,1.16-0.505,1.186-1.135h-1.146
		L524.292,1086.558z"/>
</g>
<g>
	<path fill="#B0E2F7" d="M509.467,1102.938c-1.285,0.055-2.31,1.115-2.31,2.415c0,1.055,0.68,1.955,1.62,2.28l0.685-2.301v-2.395
		H509.467z"/>
	<path fill="#B0E2F7" d="M511.992,1105.242c-0.055-1.25-1.055-2.25-2.305-2.305v2.305H511.992z"/>
	<path fill="#B0E2F7" d="M508.992,1107.692c0.19,0.045,0.385,0.07,0.585,0.07c1.3,0,2.355-1.025,2.415-2.311h-2.335
		L508.992,1107.692z"/>
</g>
<g>
	<g>
		<path fill="#B0E2F7" d="M526.352,1049.728v2.295h3.64v-2.295H526.352z M529.737,1051.772h-3.125v-1.79h3.125V1051.772z"/>
	</g>
	<polygon fill="#B0E2F7" points="528.607,1052.412 527.732,1052.412 528.001,1051.932 528.342,1051.932 	"/>
</g>
<g>
	<g>
		<path fill="#B0E2F7" d="M532.262,1103.143v4.24h6.72v-4.24H532.262z M538.507,1106.917h-5.771v-3.305h5.771V1106.917
			L538.507,1106.917z"/>
	</g>
	<polygon fill="#B0E2F7" points="536.427,1108.098 534.817,1108.098 535.312,1107.212 535.932,1107.212 	"/>
</g>
<g>
	<g>
		<path fill="#B0E2F7" d="M507.552,1118.178v2.875h4.56v-2.875H507.552z M511.792,1120.737h-3.915v-2.245h3.915V1120.737z"/>
	</g>
	<polygon fill="#B0E2F7" points="510.377,1121.537 509.282,1121.537 509.622,1120.938 510.042,1120.938 	"/>
</g>
<g>
	<g>
		<path fill="#B0E2F7" d="M525.177,1059.132v2.05h3.25v-2.05H525.177z M528.197,1060.958h-2.79v-1.6h2.79V1060.958z"/>
	</g>
	<polygon fill="#B0E2F7" points="527.192,1061.527 526.412,1061.527 526.652,1061.103 526.957,1061.103 	"/>
</g>
<g>
	<g>
		<path fill="#B0E2F7" d="M534.872,1087.587v2.801h4.44v-2.801H534.872z M539.001,1090.077h-3.814v-2.185h3.814V1090.077z"/>
	</g>
	<polygon fill="#B0E2F7" points="537.626,1090.862 536.562,1090.862 536.887,1090.277 537.302,1090.277 	"/>
</g>
<g>
	<g>
		<path fill="#B0E2F7" d="M527.017,1068.317v1.105h1.755v-1.105H527.017z M528.647,1069.302h-1.505v-0.865h1.505V1069.302z"/>
	</g>
	<polygon fill="#B0E2F7" points="528.107,1069.612 527.682,1069.612 527.812,1069.382 527.977,1069.382 	"/>
</g>
<path fill="#B0E2F7" d="M520.997,1038.682h-0.705c-0.109,0-0.199-0.09-0.199-0.2v-1.935c0-0.11,0.09-0.2,0.199-0.2h0.705
	c0.11,0,0.2,0.09,0.2,0.2v1.935C521.197,1038.592,521.107,1038.682,520.997,1038.682z M521.132,1036.662h-0.976v1.705h0.976
	V1036.662z M520.647,1038.402c-0.06,0-0.11,0.05-0.11,0.11s0.051,0.11,0.11,0.11s0.11-0.05,0.11-0.11
	S520.707,1038.402,520.647,1038.402z M520.747,1036.552L520.747,1036.552c0-0.015-0.01-0.03-0.024-0.03h-0.15
	c-0.015,0-0.024,0.01-0.024,0.025v0.005c0,0.015,0.01,0.025,0.024,0.025h0.15C520.732,1036.577,520.747,1036.567,520.747,1036.552z
	 M520.647,1036.432c-0.015,0-0.03,0.015-0.03,0.03s0.016,0.03,0.03,0.03s0.03-0.015,0.03-0.03S520.662,1036.432,520.647,1036.432z"
	/>
<path fill="#B0E2F7" d="M521.042,1055.967h-0.935c-0.145,0-0.265-0.12-0.265-0.265v-2.575c0-0.145,0.12-0.265,0.265-0.265h0.935
	c0.146,0,0.266,0.12,0.266,0.265v2.575C521.307,1055.847,521.187,1055.967,521.042,1055.967z M521.222,1053.277h-1.295v2.27h1.295
	V1053.277z M520.572,1055.592c-0.08,0-0.145,0.065-0.145,0.145s0.064,0.145,0.145,0.145s0.146-0.065,0.146-0.145
	S520.652,1055.592,520.572,1055.592z M520.707,1053.132L520.707,1053.132c0-0.02-0.015-0.035-0.034-0.035h-0.2
	c-0.021,0-0.035,0.015-0.035,0.035v0.005c0,0.02,0.015,0.035,0.035,0.035h0.2C520.692,1053.167,520.707,1053.152,520.707,1053.132z
	 M520.572,1052.972c-0.02,0-0.04,0.02-0.04,0.04s0.021,0.04,0.04,0.04c0.021,0,0.04-0.02,0.04-0.04
	C520.612,1052.987,520.592,1052.972,520.572,1052.972z"/>
<path fill="#B0E2F7" d="M517.472,1066.762h-0.655c-0.104,0-0.185-0.085-0.185-0.185v-1.805c0-0.105,0.085-0.185,0.185-0.185h0.655
	c0.104,0,0.185,0.085,0.185,0.185v1.805C517.662,1066.677,517.577,1066.762,517.472,1066.762z M517.602,1064.877h-0.91v1.59h0.91
	V1064.877z M517.147,1066.497c-0.055,0-0.1,0.045-0.1,0.1c0,0.055,0.045,0.1,0.1,0.1s0.1-0.045,0.1-0.1
	C517.247,1066.542,517.202,1066.497,517.147,1066.497z M517.242,1064.777L517.242,1064.777c0-0.015-0.01-0.025-0.024-0.025h-0.141
	c-0.015,0-0.024,0.01-0.024,0.025v0.005c0,0.015,0.01,0.025,0.024,0.025h0.141C517.232,1064.802,517.242,1064.792,517.242,1064.777z
	 M517.147,1064.662c-0.015,0-0.03,0.015-0.03,0.03s0.016,0.03,0.03,0.03s0.03-0.015,0.03-0.03S517.162,1064.662,517.147,1064.662z"
	/>
<path fill="#B0E2F7" d="M528.376,1049.212h-0.614c-0.095,0-0.175-0.08-0.175-0.175v-1.695c0-0.095,0.08-0.175,0.175-0.175h0.614
	c0.096,0,0.176,0.08,0.176,0.175v1.695C528.552,1049.132,528.472,1049.212,528.376,1049.212z M528.497,1047.442h-0.854v1.49h0.854
	V1047.442z M528.067,1048.967c-0.055,0-0.095,0.045-0.095,0.095c0,0.05,0.045,0.095,0.095,0.095c0.055,0,0.095-0.045,0.095-0.095
	C528.162,1049.012,528.122,1048.967,528.067,1048.967z M528.157,1047.347L528.157,1047.347c0-0.015-0.01-0.025-0.02-0.025h-0.13
	c-0.011,0-0.021,0.01-0.021,0.02v0.005c0,0.01,0.01,0.02,0.021,0.02h0.13C528.147,1047.367,528.157,1047.362,528.157,1047.347z
	 M528.067,1047.242c-0.015,0-0.024,0.01-0.024,0.025c0,0.015,0.01,0.025,0.024,0.025s0.025-0.01,0.025-0.025
	C528.092,1047.252,528.082,1047.242,528.067,1047.242z"/>
<path fill="#B0E2F7" d="M517.982,1075.172h-1.15c-0.18,0-0.324-0.145-0.324-0.325v-3.165c0-0.18,0.145-0.325,0.324-0.325h1.15
	c0.18,0,0.325,0.145,0.325,0.325v3.165C518.307,1075.022,518.162,1075.172,517.982,1075.172z M518.202,1071.872h-1.595v2.785h1.595
	V1071.872z M517.407,1074.712c-0.1,0-0.18,0.08-0.18,0.18c0,0.1,0.08,0.18,0.18,0.18c0.101,0,0.181-0.08,0.181-0.18
	C517.582,1074.792,517.502,1074.712,517.407,1074.712z M517.567,1071.692v-0.005c0-0.02-0.02-0.04-0.04-0.04h-0.245
	c-0.02,0-0.04,0.02-0.04,0.04v0.005c0,0.02,0.021,0.04,0.04,0.04h0.245C517.552,1071.732,517.567,1071.712,517.567,1071.692z
	 M517.402,1071.492c-0.024,0-0.05,0.02-0.05,0.05c0,0.025,0.02,0.05,0.05,0.05c0.025,0,0.05-0.02,0.05-0.05
	C517.452,1071.512,517.432,1071.492,517.402,1071.492z"/>
<path fill="#B0E2F7" d="M516.562,1097.862h-1.655c-0.26,0-0.47-0.21-0.47-0.47v-4.551c0-0.26,0.21-0.47,0.47-0.47h1.655
	c0.26,0,0.47,0.21,0.47,0.47v4.551C517.032,1097.652,516.817,1097.862,516.562,1097.862z M516.877,1093.117h-2.29v4.01h2.29
	V1093.117z M515.732,1097.202c-0.14,0-0.255,0.115-0.255,0.255c0,0.141,0.115,0.255,0.255,0.255s0.255-0.114,0.255-0.255
	C515.992,1097.317,515.877,1097.202,515.732,1097.202z M515.967,1092.857v-0.01c0-0.03-0.025-0.061-0.061-0.061h-0.35
	c-0.03,0-0.061,0.025-0.061,0.061v0.01c0,0.03,0.025,0.06,0.061,0.06h0.35C515.942,1092.917,515.967,1092.893,515.967,1092.857z
	 M515.732,1092.572c-0.04,0-0.07,0.03-0.07,0.07s0.03,0.069,0.07,0.069s0.07-0.029,0.07-0.069S515.772,1092.572,515.732,1092.572z"
	/>
<path fill="#B0E2F7" d="M533.302,1095.547h-1.426c-0.225,0-0.404-0.18-0.404-0.404v-3.92c0-0.226,0.18-0.405,0.404-0.405h1.426
	c0.225,0,0.404,0.18,0.404,0.405v3.92C533.707,1095.362,533.527,1095.547,533.302,1095.547z M533.577,1091.452h-1.975v3.455h1.975
	V1091.452z M532.592,1094.978c-0.12,0-0.221,0.1-0.221,0.22s0.101,0.22,0.221,0.22s0.22-0.1,0.22-0.22
	S532.712,1094.978,532.592,1094.978z M532.792,1091.232v-0.005c0-0.025-0.021-0.05-0.051-0.05h-0.3c-0.024,0-0.05,0.02-0.05,0.05
	v0.005c0,0.025,0.02,0.05,0.05,0.05h0.3C532.772,1091.282,532.792,1091.263,532.792,1091.232z M532.587,1090.987
	c-0.035,0-0.061,0.03-0.061,0.06c0,0.03,0.03,0.061,0.061,0.061c0.034,0,0.06-0.03,0.06-0.061
	C532.647,1091.018,532.622,1090.987,532.587,1090.987z"/>
<path fill="#B0E2F7" d="M519.587,1106.992h-2.32c-0.36,0-0.66-0.295-0.66-0.66v-6.37c0-0.359,0.295-0.659,0.66-0.659h2.32
	c0.359,0,0.659,0.295,0.659,0.659v6.37C520.242,1106.697,519.947,1106.992,519.587,1106.992z M520.032,1100.342h-3.21v5.61h3.21
	V1100.342L520.032,1100.342z M518.427,1106.062c-0.2,0-0.36,0.16-0.36,0.359c0,0.2,0.16,0.36,0.36,0.36s0.359-0.16,0.359-0.36
	C518.787,1106.228,518.627,1106.062,518.427,1106.062z M518.757,1099.982v-0.01c0-0.045-0.035-0.08-0.08-0.08h-0.49
	c-0.045,0-0.08,0.035-0.08,0.08v0.01c0,0.045,0.035,0.08,0.08,0.08h0.49C518.722,1100.062,518.757,1100.027,518.757,1099.982z
	 M518.427,1099.582c-0.056,0-0.101,0.045-0.101,0.101c0,0.055,0.045,0.1,0.101,0.1c0.055,0,0.1-0.045,0.1-0.1
	C518.527,1099.627,518.482,1099.582,518.427,1099.582z"/>
<path fill="#B0E2F7" d="M529.842,1107.332h-1.425c-0.226,0-0.405-0.18-0.405-0.404v-3.915c0-0.226,0.18-0.405,0.405-0.405h1.425
	c0.225,0,0.404,0.18,0.404,0.405v3.92C530.247,1107.152,530.062,1107.332,529.842,1107.332z M530.117,1103.247h-1.975v3.45h1.975
	V1103.247z M529.126,1106.763c-0.119,0-0.22,0.1-0.22,0.22s0.101,0.22,0.22,0.22c0.12,0,0.221-0.1,0.221-0.22
	S529.251,1106.763,529.126,1106.763z M529.332,1103.022v-0.005c0-0.025-0.02-0.051-0.05-0.051h-0.3c-0.025,0-0.05,0.021-0.05,0.051
	v0.005c0,0.024,0.02,0.05,0.05,0.05h0.3C529.307,1103.072,529.332,1103.053,529.332,1103.022z M529.126,1102.777
	c-0.034,0-0.06,0.025-0.06,0.06c0,0.035,0.025,0.061,0.06,0.061c0.035,0,0.061-0.025,0.061-0.061
	C529.187,1102.808,529.162,1102.777,529.126,1102.777z"/>
<path fill="#B0E2F7" d="M510.267,1090.353h-0.9c-0.14,0-0.255-0.115-0.255-0.255v-2.471c0-0.14,0.115-0.255,0.255-0.255h0.9
	c0.14,0,0.255,0.115,0.255,0.255v2.471C510.522,1090.237,510.407,1090.353,510.267,1090.353z M510.442,1087.772h-1.245v2.175h1.245
	V1087.772z M509.817,1089.992c-0.075,0-0.14,0.061-0.14,0.141c0,0.074,0.06,0.14,0.14,0.14s0.14-0.061,0.14-0.14
	C509.957,1090.053,509.897,1089.992,509.817,1089.992z M509.947,1087.633L509.947,1087.633c0-0.021-0.015-0.035-0.03-0.035h-0.19
	c-0.015,0-0.03,0.015-0.03,0.029v0.006c0,0.015,0.015,0.029,0.03,0.029h0.19C509.932,1087.667,509.947,1087.652,509.947,1087.633z
	 M509.817,1087.478c-0.02,0-0.04,0.015-0.04,0.04c0,0.024,0.015,0.04,0.04,0.04c0.02,0,0.04-0.016,0.04-0.04
	C509.857,1087.492,509.837,1087.478,509.817,1087.478z"/>
<circle fill="#B0E2F7" cx="524.497" cy="1023.762" r="2.75"/>
<circle fill="#67A4D9" cx="524.497" cy="1023.762" r="2.75"/>
<g>
	<g>
		<circle id="SVGID_7_" fill="#FFFFFF" cx="524.482" cy="1023.787" r="2.4"/>
	</g>
</g>
<polygon fill="#F5C64B" points="524.497,1022.037 524.897,1023.267 526.192,1023.267 525.147,1024.027 525.542,1025.257 
	524.497,1024.497 523.452,1025.257 523.852,1024.027 522.807,1023.267 524.097,1023.267 "/>
</svg>
