<?xml version="1.0" encoding="utf-8"?>
<!-- Generator: Adobe Illustrator 16.0.0, SVG Export Plug-In . SVG Version: 6.00 Build 0)  -->
<!DOCTYPE svg PUBLIC "-//W3C//DTD SVG 1.1//EN" "http://www.w3.org/Graphics/SVG/1.1/DTD/svg11.dtd">
<svg version="1.1" id="Layer_1" xmlns="http://www.w3.org/2000/svg" xmlns:xlink="http://www.w3.org/1999/xlink" x="0px" y="0px"
	 width="12.083px" height="25.411px" viewBox="0 0 12.083 25.411" enable-background="new 0 0 12.083 25.411" xml:space="preserve">
<polyline fill="#67A4D9" points="6.034,1.385 5.774,1.385 5.774,2.042 5.564,1.966 5.564,2.781 5.772,2.779 6.288,2.779 
	6.569,2.781 6.569,1.966 6.329,2.042 6.329,1.385 6.069,1.385 "/>
<g>
	<defs>
		<rect id="SVGID_1_" x="-3.737" y="-6.578" width="23.475" height="34.823"/>
	</defs>
	<clipPath id="SVGID_2_">
		<use xlink:href="#SVGID_1_"  overflow="visible"/>
	</clipPath>
	<path clip-path="url(#SVGID_2_)" fill="#B0E2F7" d="M5.827,1.587c0-0.048,0.038-0.087,0.086-0.087s0.086,0.039,0.086,0.087
		S5.961,1.673,5.913,1.673S5.827,1.635,5.827,1.587"/>
	<path clip-path="url(#SVGID_2_)" fill="#67A4D9" d="M5.857,1.587c0-0.031,0.024-0.056,0.056-0.056s0.056,0.024,0.056,0.056
		c0,0.03-0.024,0.056-0.056,0.056S5.857,1.617,5.857,1.587"/>
	<path clip-path="url(#SVGID_2_)" fill="#B0E2F7" d="M6.104,1.587C6.104,1.539,6.143,1.5,6.19,1.5s0.086,0.039,0.086,0.087
		S6.238,1.673,6.19,1.673S6.104,1.635,6.104,1.587"/>
	<path clip-path="url(#SVGID_2_)" fill="#67A4D9" d="M6.135,1.587c0-0.031,0.024-0.056,0.056-0.056s0.056,0.024,0.056,0.056
		c0,0.03-0.024,0.056-0.056,0.056S6.135,1.617,6.135,1.587"/>
	<path clip-path="url(#SVGID_2_)" fill="#67A4D9" d="M6.069,1.447V0.689c0.014-0.008,0.022-0.021,0.022-0.037
		c0-0.022-0.019-0.041-0.041-0.041c-0.023,0-0.042,0.019-0.042,0.041c0,0.018,0.011,0.032,0.025,0.038v0.757"/>
	<polygon clip-path="url(#SVGID_2_)" fill="#B0E2F7" points="5.855,1.774 5.884,1.854 6.225,1.854 6.253,1.774 	"/>
	<polygon clip-path="url(#SVGID_2_)" fill="#67A4D9" points="9.573,22.035 12.05,22.035 8.527,16.867 10.637,16.867 7.813,12.926 
		9.772,12.926 7.109,8.985 8.151,8.985 8.907,8.985 6.417,5.044 8.042,5.044 6.2,1.895 5.877,1.895 4.034,5.044 5.659,5.044 
		3.169,8.985 4.967,8.985 2.305,12.926 4.263,12.926 1.439,16.867 3.549,16.867 0.026,22.035 2.503,22.035 0.153,25.411 
		11.924,25.411 	"/>
</g>
<g>
	<defs>
		<rect id="SVGID_3_" x="-3.737" y="-6.578" width="23.475" height="34.823"/>
	</defs>
	<clipPath id="SVGID_4_">
		<use xlink:href="#SVGID_3_"  overflow="visible"/>
	</clipPath>
	<path clip-path="url(#SVGID_4_)" fill="#B0E2F7" d="M6.995,3.604c0-0.041-0.012-0.076-0.042-0.1
		C6.932,3.487,6.897,3.476,6.868,3.476c-0.071,0-0.128,0.044-0.128,0.128c0,0.091,0.078,0.104,0.081,0.118
		c0.004,0.01-0.058,0.046-0.031,0.142c0.016,0.055,0.033,0.093,0.042,0.128C6.85,4.066,6.868,4.1,6.868,4.1s0.015-0.03,0.048-0.162
		C6.921,3.922,6.94,3.881,6.945,3.863c0.026-0.096-0.032-0.129-0.03-0.142C6.924,3.7,6.991,3.703,6.995,3.604"/>
	<path clip-path="url(#SVGID_4_)" fill="#B0E2F7" d="M6.87,3.427c0.006,0,0.011,0.011,0.011,0.021c0,0.011-0.003,0.024-0.006,0.025
		C6.873,3.474,6.868,3.478,6.866,3.469C6.865,3.46,6.858,3.427,6.87,3.427 M6.852,3.422C6.848,3.428,6.848,3.45,6.854,3.47
		C6.861,3.49,6.878,3.484,6.878,3.484s0.005-0.007,0.009-0.013c0.005-0.007,0.005-0.038,0.004-0.048
		c0-0.011-0.011-0.016-0.022-0.016S6.855,3.415,6.852,3.422"/>
	<path clip-path="url(#SVGID_4_)" fill="#B0E2F7" d="M7.373,4.314c0-0.043-0.013-0.079-0.044-0.103
		c-0.022-0.018-0.059-0.03-0.089-0.03c-0.073,0-0.133,0.045-0.133,0.133c0,0.095,0.081,0.109,0.084,0.124
		c0.005,0.01-0.06,0.047-0.031,0.146c0.016,0.058,0.034,0.097,0.043,0.134C7.222,4.796,7.24,4.831,7.24,4.831S7.256,4.8,7.291,4.662
		c0.004-0.016,0.025-0.059,0.03-0.077c0.027-0.1-0.034-0.134-0.032-0.146C7.299,4.415,7.368,4.418,7.373,4.314"/>
	<path clip-path="url(#SVGID_4_)" fill="#B0E2F7" d="M7.242,4.131c0.007,0,0.012,0.011,0.012,0.021S7.251,4.177,7.248,4.178
		C7.245,4.18,7.24,4.184,7.238,4.175C7.237,4.165,7.23,4.131,7.242,4.131 M7.224,4.126C7.22,4.133,7.22,4.154,7.227,4.176
		C7.234,4.197,7.251,4.19,7.251,4.19s0.005-0.007,0.01-0.014c0.005-0.006,0.004-0.039,0.004-0.05
		C7.264,4.116,7.253,4.111,7.24,4.111C7.229,4.111,7.228,4.119,7.224,4.126"/>
	<path clip-path="url(#SVGID_4_)" fill="#B0E2F7" d="M6.234,4.845c0-0.042-0.014-0.078-0.045-0.103
		c-0.022-0.018-0.058-0.03-0.089-0.03c-0.073,0-0.133,0.046-0.133,0.133c0,0.095,0.081,0.109,0.085,0.124
		c0.004,0.01-0.06,0.048-0.032,0.147c0.016,0.057,0.034,0.097,0.043,0.133c0.019,0.078,0.037,0.112,0.037,0.112
		s0.016-0.03,0.051-0.169c0.005-0.016,0.025-0.059,0.03-0.076c0.027-0.1-0.034-0.135-0.032-0.147
		C6.159,4.946,6.229,4.949,6.234,4.845"/>
	<path clip-path="url(#SVGID_4_)" fill="#B0E2F7" d="M6.104,4.661c0.007,0,0.011,0.012,0.011,0.022c0,0.01-0.003,0.024-0.006,0.025
		C6.106,4.71,6.101,4.714,6.1,4.705C6.098,4.696,6.091,4.661,6.104,4.661 M6.084,4.656C6.08,4.663,6.08,4.686,6.088,4.706
		c0.007,0.021,0.023,0.015,0.023,0.015s0.005-0.006,0.01-0.013s0.005-0.039,0.004-0.05c0-0.011-0.012-0.016-0.023-0.016
		C6.089,4.643,6.088,4.649,6.084,4.656"/>
	<path clip-path="url(#SVGID_4_)" fill="#B0E2F7" d="M4.904,4.753C4.906,4.75,4.923,4.755,4.942,4.755
		C5,4.754,5.096,4.762,5.104,4.753S5.004,4.584,5.004,4.584s0.101-0.159,0.101-0.169s-0.201,0-0.201,0S4.825,4.259,4.811,4.259
		S4.731,4.407,4.718,4.415c-0.013,0.008-0.193-0.006-0.199,0c-0.007,0.006,0.1,0.168,0.1,0.168s-0.107,0.161-0.1,0.17
		c0.008,0.008,0.192-0.017,0.203-0.006s0.091,0.161,0.091,0.161S4.896,4.761,4.904,4.753"/>
	<path clip-path="url(#SVGID_4_)" fill="#B0E2F7" d="M4.822,4.252C4.819,4.268,4.811,4.261,4.806,4.259s-0.01-0.026-0.01-0.045
		s0.008-0.04,0.02-0.04C4.837,4.174,4.824,4.236,4.822,4.252 M4.818,4.142c-0.021,0-0.041,0.009-0.042,0.027
		c-0.001,0.02-0.001,0.076,0.007,0.088C4.792,4.269,4.801,4.28,4.801,4.28S4.83,4.292,4.843,4.255s0.013-0.077,0.006-0.089
		S4.84,4.142,4.818,4.142"/>
	<path clip-path="url(#SVGID_4_)" fill="#B0E2F7" d="M4.266,14.979c0.004-0.004,0.031,0.005,0.064,0.004
		c0.098-0.002,0.262,0.011,0.276-0.004c0.016-0.016-0.171-0.288-0.171-0.288s0.171-0.271,0.171-0.289s-0.343,0-0.343,0
		s-0.134-0.267-0.159-0.267c-0.024,0-0.134,0.253-0.157,0.267s-0.331-0.011-0.342,0s0.171,0.288,0.171,0.288
		s-0.185,0.275-0.171,0.289s0.329-0.027,0.347-0.01c0.019,0.018,0.155,0.276,0.155,0.276S4.25,14.994,4.266,14.979"/>
	<path clip-path="url(#SVGID_4_)" fill="#B0E2F7" d="M4.124,14.123c-0.004,0.027-0.02,0.015-0.028,0.012
		c-0.008-0.004-0.017-0.046-0.017-0.077c0-0.032,0.014-0.067,0.034-0.067C4.149,13.99,4.129,14.096,4.124,14.123 M4.118,13.935
		c-0.036,0-0.07,0.015-0.071,0.047c-0.002,0.032-0.003,0.13,0.012,0.15c0.016,0.021,0.029,0.04,0.029,0.04s0.051,0.02,0.072-0.044
		s0.021-0.132,0.01-0.151C4.157,13.956,4.155,13.935,4.118,13.935"/>
	<path clip-path="url(#SVGID_4_)" fill="#B0E2F7" d="M8.513,18.961c0.003-0.003,0.028,0.005,0.057,0.004
		c0.087-0.002,0.232,0.01,0.245-0.004c0.014-0.013-0.151-0.255-0.151-0.255s0.151-0.24,0.151-0.256c0-0.015-0.304,0-0.304,0
		s-0.118-0.235-0.141-0.235c-0.021,0-0.119,0.224-0.14,0.235s-0.293-0.009-0.302,0c-0.01,0.01,0.151,0.255,0.151,0.255
		s-0.164,0.244-0.151,0.256c0.012,0.013,0.291-0.024,0.307-0.008c0.016,0.016,0.137,0.244,0.137,0.244S8.499,18.975,8.513,18.961"/>
	<path clip-path="url(#SVGID_4_)" fill="#B0E2F7" d="M8.388,18.204c-0.004,0.023-0.019,0.013-0.025,0.01s-0.015-0.04-0.015-0.068
		s0.012-0.06,0.03-0.06C8.41,18.086,8.392,18.18,8.388,18.204 M8.382,18.036c-0.032,0-0.062,0.014-0.062,0.042
		c-0.002,0.029-0.003,0.115,0.011,0.133c0.013,0.019,0.024,0.035,0.024,0.035s0.046,0.018,0.064-0.039
		c0.02-0.056,0.02-0.115,0.009-0.134C8.417,18.056,8.415,18.036,8.382,18.036"/>
	<path clip-path="url(#SVGID_4_)" fill="#B0E2F7" d="M4.839,23.72c0.003-0.003,0.023,0.004,0.048,0.003
		c0.071-0.001,0.191,0.008,0.202-0.003s-0.125-0.21-0.125-0.21s0.125-0.199,0.125-0.212s-0.251,0-0.251,0s-0.098-0.195-0.116-0.195
		s-0.099,0.186-0.115,0.195c-0.018,0.01-0.242-0.008-0.25,0s0.125,0.211,0.125,0.211S4.346,23.71,4.356,23.72
		c0.01,0.011,0.24-0.02,0.254-0.007c0.013,0.013,0.113,0.202,0.113,0.202S4.828,23.73,4.839,23.72"/>
	<path clip-path="url(#SVGID_4_)" fill="#B0E2F7" d="M4.736,23.094c-0.004,0.02-0.016,0.011-0.021,0.008
		c-0.006-0.002-0.012-0.033-0.012-0.056c0-0.023,0.01-0.05,0.024-0.05C4.754,22.996,4.739,23.073,4.736,23.094 M4.731,22.955
		c-0.026,0-0.052,0.011-0.053,0.035c-0.001,0.023-0.002,0.095,0.009,0.109c0.012,0.015,0.021,0.029,0.021,0.029
		s0.037,0.015,0.053-0.032c0.017-0.047,0.017-0.096,0.008-0.11C4.76,22.971,4.758,22.955,4.731,22.955"/>
	<path clip-path="url(#SVGID_4_)" fill="#B0E2F7" d="M1.931,21.532c0.005-0.004,0.039,0.006,0.08,0.006
		c0.121-0.003,0.323,0.013,0.342-0.006s-0.212-0.355-0.212-0.355s0.212-0.336,0.212-0.357s-0.424,0-0.424,0S1.763,20.49,1.732,20.49
		c-0.031,0-0.167,0.312-0.195,0.329c-0.029,0.017-0.409-0.013-0.422,0c-0.014,0.014,0.211,0.355,0.211,0.355
		s-0.229,0.341-0.211,0.357c0.017,0.018,0.406-0.033,0.429-0.012c0.022,0.022,0.191,0.342,0.191,0.342S1.911,21.551,1.931,21.532"/>
	<path clip-path="url(#SVGID_4_)" fill="#B0E2F7" d="M1.757,20.475c-0.006,0.034-0.025,0.019-0.035,0.015
		C1.712,20.484,1.7,20.433,1.7,20.394s0.017-0.083,0.042-0.083C1.787,20.311,1.762,20.441,1.757,20.475 M1.749,20.241
		c-0.045,0-0.087,0.019-0.089,0.059s-0.003,0.16,0.016,0.186c0.018,0.025,0.035,0.049,0.035,0.049s0.063,0.024,0.09-0.054
		c0.026-0.079,0.026-0.162,0.012-0.188S1.794,20.241,1.749,20.241"/>
	<path clip-path="url(#SVGID_4_)" fill="#B0E2F7" d="M8.13,15.635c0.003-0.003,0.021,0.003,0.04,0.002
		c0.062-0.001,0.163,0.007,0.172-0.002c0.01-0.01-0.105-0.179-0.105-0.179s0.105-0.169,0.105-0.18s-0.213,0-0.213,0
		s-0.083-0.165-0.099-0.165c-0.015,0-0.083,0.157-0.098,0.165c-0.015,0.009-0.205-0.007-0.212,0s0.106,0.179,0.106,0.179
		s-0.115,0.171-0.106,0.18c0.009,0.008,0.204-0.018,0.216-0.006C7.947,15.64,8.032,15.8,8.032,15.8S8.121,15.644,8.13,15.635"/>
	<path clip-path="url(#SVGID_4_)" fill="#B0E2F7" d="M8.043,15.104C8.04,15.12,8.03,15.112,8.025,15.11s-0.011-0.028-0.011-0.048
		s0.009-0.042,0.021-0.042C8.059,15.021,8.046,15.087,8.043,15.104 M8.039,14.986c-0.022,0-0.044,0.009-0.044,0.029
		c-0.001,0.02-0.002,0.08,0.007,0.093c0.01,0.013,0.018,0.024,0.018,0.024s0.032,0.013,0.046-0.026
		c0.013-0.04,0.013-0.082,0.006-0.095C8.063,14.999,8.062,14.986,8.039,14.986"/>
	<path clip-path="url(#SVGID_4_)" fill="#B0E2F7" d="M6.51,3.015c0.001-0.001,0.012,0.002,0.023,0.002
		C6.569,3.016,6.63,3.021,6.636,3.015C6.641,3.01,6.572,2.909,6.572,2.909s0.063-0.101,0.063-0.106c0-0.007-0.127,0-0.127,0
		S6.46,2.704,6.45,2.704c-0.009,0-0.049,0.094-0.058,0.099s-0.122-0.004-0.126,0S6.33,2.908,6.33,2.908S6.262,3.01,6.267,3.015
		c0.005,0.006,0.121-0.01,0.128-0.003c0.007,0.006,0.057,0.102,0.057,0.102S6.504,3.021,6.51,3.015"/>
	<path clip-path="url(#SVGID_4_)" fill="#B0E2F7" d="M6.458,2.7C6.456,2.71,6.45,2.705,6.447,2.704S6.441,2.688,6.441,2.676
		s0.005-0.024,0.013-0.024C6.467,2.651,6.46,2.689,6.458,2.7 M6.456,2.63c-0.014,0-0.026,0.006-0.027,0.018
		c0,0.012-0.001,0.048,0.005,0.056C6.439,2.71,6.444,2.718,6.444,2.718s0.019,0.007,0.026-0.017s0.008-0.048,0.004-0.056
		C6.47,2.639,6.469,2.63,6.456,2.63"/>
	<path clip-path="url(#SVGID_4_)" fill="#B0E2F7" d="M7.698,4.889C7.699,4.888,7.707,4.89,7.716,4.89
		c0.026-0.001,0.07,0.003,0.074-0.001S7.744,4.812,7.744,4.812S7.79,4.738,7.79,4.733s-0.092,0-0.092,0S7.662,4.661,7.655,4.661
		S7.619,4.729,7.612,4.733c-0.006,0.004-0.089-0.003-0.092,0s0.046,0.077,0.046,0.077s-0.05,0.074-0.046,0.078
		s0.089-0.008,0.094-0.003S7.656,4.96,7.656,4.96S7.694,4.893,7.698,4.889"/>
	<path clip-path="url(#SVGID_4_)" fill="#B0E2F7" d="M7.66,4.658C7.659,4.666,7.655,4.662,7.652,4.661
		C7.65,4.66,7.648,4.649,7.648,4.641s0.003-0.019,0.009-0.019C7.667,4.622,7.662,4.651,7.66,4.658 M7.659,4.607
		c-0.01,0-0.02,0.004-0.02,0.013C7.639,4.629,7.639,4.655,7.643,4.66C7.646,4.666,7.65,4.671,7.65,4.671s0.014,0.006,0.02-0.012
		c0.006-0.017,0.006-0.035,0.003-0.041C7.669,4.613,7.669,4.607,7.659,4.607"/>
	<path clip-path="url(#SVGID_4_)" fill="#B0E2F7" d="M7.041,4.605c0,0.175-0.142,0.309-0.316,0.309
		c-0.062,0-0.119-0.025-0.168-0.055c-0.09-0.054-0.149-0.141-0.149-0.254c0-0.073,0.022-0.131,0.065-0.193
		C6.517,4.35,6.622,4.288,6.725,4.288c0.115,0,0.244,0.096,0.271,0.154C7.022,4.5,7.041,4.546,7.041,4.605"/>
	<path clip-path="url(#SVGID_4_)" fill="#B0E2F7" d="M6.707,4.186c0.014,0,0.022,0.022,0.022,0.044c0,0.021-0.006,0.049-0.011,0.051
		S6.703,4.291,6.7,4.272C6.697,4.255,6.684,4.186,6.707,4.186 M6.67,4.176c-0.008,0.014-0.008,0.058,0.007,0.1
		C6.69,4.317,6.725,4.305,6.725,4.305s0.009-0.013,0.019-0.026S6.752,4.2,6.751,4.18C6.75,4.158,6.729,4.148,6.704,4.148
		S6.678,4.162,6.67,4.176"/>
	<path clip-path="url(#SVGID_4_)" fill="#B0E2F7" d="M5.86,4.713c0,0.112-0.092,0.198-0.203,0.198c-0.04,0-0.077-0.017-0.108-0.035
		c-0.057-0.034-0.096-0.09-0.096-0.163c0-0.047,0.015-0.083,0.042-0.124C5.523,4.549,5.591,4.51,5.657,4.51
		c0.074,0,0.156,0.062,0.174,0.099C5.848,4.646,5.86,4.675,5.86,4.713"/>
	<path clip-path="url(#SVGID_4_)" fill="#B0E2F7" d="M5.646,4.443c0.009,0,0.015,0.016,0.015,0.028c0,0.014-0.004,0.031-0.007,0.033
		C5.649,4.506,5.643,4.512,5.642,4.5C5.64,4.488,5.631,4.443,5.646,4.443 M5.622,4.438C5.617,4.446,5.617,4.475,5.626,4.502
		c0.009,0.026,0.031,0.019,0.031,0.019s0.005-0.009,0.012-0.017c0.006-0.009,0.006-0.05,0.005-0.063c0-0.014-0.015-0.021-0.03-0.021
		S5.627,4.429,5.622,4.438"/>
	<path clip-path="url(#SVGID_4_)" fill="#B0E2F7" d="M5.716,2.974c0,0.088-0.071,0.154-0.159,0.154c-0.03,0-0.06-0.013-0.084-0.027
		C5.428,3.073,5.398,3.03,5.398,2.974c0-0.037,0.011-0.065,0.032-0.097c0.022-0.032,0.075-0.062,0.126-0.062
		c0.059,0,0.122,0.048,0.136,0.077S5.716,2.943,5.716,2.974"/>
	<path clip-path="url(#SVGID_4_)" fill="#B0E2F7" d="M5.549,2.763c0.007,0,0.011,0.012,0.011,0.022S5.557,2.81,5.554,2.811
		C5.552,2.812,5.546,2.815,5.545,2.807C5.543,2.798,5.536,2.763,5.549,2.763 M5.529,2.758C5.525,2.765,5.525,2.787,5.533,2.809
		C5.54,2.829,5.557,2.822,5.557,2.822s0.005-0.006,0.01-0.013S5.571,2.771,5.57,2.76c0-0.011-0.012-0.016-0.023-0.016
		S5.534,2.752,5.529,2.758"/>
	<rect x="3.449" y="11.942" clip-path="url(#SVGID_4_)" fill="#B0E2F7" width="0.15" height="0.698"/>
	<rect x="3.247" y="12.17" clip-path="url(#SVGID_4_)" fill="#B0E2F7" width="0.15" height="0.471"/>
	<rect x="3.045" y="12.074" clip-path="url(#SVGID_4_)" fill="#B0E2F7" width="0.15" height="0.566"/>
	<rect x="9.652" y="20.253" clip-path="url(#SVGID_4_)" fill="#B0E2F7" width="0.247" height="1.146"/>
	<rect x="9.984" y="20.625" clip-path="url(#SVGID_4_)" fill="#B0E2F7" width="0.247" height="0.774"/>
	<rect x="10.316" y="20.469" clip-path="url(#SVGID_4_)" fill="#B0E2F7" width="0.247" height="0.931"/>
	<rect x="4.6" y="21.748" clip-path="url(#SVGID_4_)" fill="#B0E2F7" width="0.219" height="1.015"/>
	<rect x="4.894" y="22.078" clip-path="url(#SVGID_4_)" fill="#B0E2F7" width="0.219" height="0.685"/>
	<rect x="5.188" y="21.939" clip-path="url(#SVGID_4_)" fill="#B0E2F7" width="0.219" height="0.823"/>
	<rect x="6.48" y="23.066" clip-path="url(#SVGID_4_)" fill="#B0E2F7" width="0.141" height="0.65"/>
	<rect x="6.669" y="23.277" clip-path="url(#SVGID_4_)" fill="#B0E2F7" width="0.141" height="0.439"/>
	<rect x="6.857" y="23.188" clip-path="url(#SVGID_4_)" fill="#B0E2F7" width="0.141" height="0.528"/>
	<rect x="7.792" y="13.922" clip-path="url(#SVGID_4_)" fill="#B0E2F7" width="0.194" height="0.903"/>
	<rect x="7.529" y="14.216" clip-path="url(#SVGID_4_)" fill="#B0E2F7" width="0.195" height="0.609"/>
	<rect x="7.268" y="14.092" clip-path="url(#SVGID_4_)" fill="#B0E2F7" width="0.195" height="0.733"/>
	<rect x="2.229" y="16.244" clip-path="url(#SVGID_4_)" fill="#B0E2F7" width="0.099" height="0.459"/>
	<rect x="2.097" y="16.394" clip-path="url(#SVGID_4_)" fill="#B0E2F7" width="0.099" height="0.31"/>
	<rect x="1.964" y="16.331" clip-path="url(#SVGID_4_)" fill="#B0E2F7" width="0.099" height="0.372"/>
	<path clip-path="url(#SVGID_4_)" fill="#B0E2F7" d="M6.012,2.213c-0.133,0.006-0.239,0.115-0.239,0.25
		c0,0.109,0.07,0.202,0.168,0.236l0.071-0.237V2.213z"/>
	<path clip-path="url(#SVGID_4_)" fill="#B0E2F7" d="M6.273,2.452c-0.006-0.13-0.11-0.233-0.239-0.239v0.239H6.273z"/>
	<path clip-path="url(#SVGID_4_)" fill="#B0E2F7" d="M5.962,2.706c0.02,0.005,0.04,0.008,0.062,0.008
		c0.134,0,0.244-0.106,0.25-0.239H6.031L5.962,2.706z"/>
	<path clip-path="url(#SVGID_4_)" fill="#B0E2F7" d="M5.891,7.221H5.883c0,0-0.046-0.011-0.046,0.019c0,0.019,0.005,0.057-0.04,0.08
		C5.752,7.342,5.662,7.373,5.618,7.476C5.575,7.578,5.634,7.68,5.691,7.733C5.75,7.787,5.81,7.774,5.86,7.848
		c0.014,0.021,0.016,0.023,0.024,0.023s0.018-0.004,0.032-0.029c0.014-0.025,0.025-0.023,0.054-0.036S6.11,7.738,6.154,7.65
		c0.044-0.089,0.021-0.202-0.046-0.254C6.042,7.346,5.989,7.325,5.966,7.309c-0.022-0.017-0.039-0.03-0.04-0.055
		S5.924,7.216,5.912,7.217S5.891,7.221,5.891,7.221"/>
	<path clip-path="url(#SVGID_4_)" fill="#B0E2F7" d="M5.88,7.13c0.011,0,0.019,0.019,0.019,0.035s-0.005,0.039-0.01,0.041
		C5.885,7.208,5.877,7.214,5.874,7.2C5.872,7.186,5.861,7.13,5.88,7.13 M5.851,7.122c-0.007,0.011-0.007,0.047,0.005,0.08
		s0.038,0.022,0.038,0.022S5.9,7.215,5.908,7.204s0.008-0.062,0.007-0.079C5.914,7.108,5.896,7.101,5.877,7.101
		C5.858,7.101,5.856,7.111,5.851,7.122"/>
	<path clip-path="url(#SVGID_4_)" fill="#B0E2F7" d="M7.645,11.398H7.638c0,0-0.038-0.01-0.038,0.016
		c0,0.016,0.004,0.048-0.033,0.066c-0.038,0.02-0.113,0.046-0.15,0.132c-0.036,0.085,0.013,0.171,0.062,0.216s0.1,0.034,0.142,0.097
		c0.012,0.018,0.013,0.019,0.021,0.019s0.015-0.003,0.026-0.024c0.013-0.021,0.022-0.02,0.046-0.03
		c0.023-0.01,0.117-0.057,0.153-0.13c0.037-0.074,0.018-0.17-0.038-0.213s-0.1-0.06-0.119-0.074
		c-0.02-0.014-0.033-0.025-0.034-0.046c0-0.021-0.002-0.031-0.012-0.031C7.652,11.396,7.645,11.398,7.645,11.398"/>
	<path clip-path="url(#SVGID_4_)" fill="#B0E2F7" d="M7.636,11.322c0.009,0,0.016,0.016,0.016,0.029s-0.005,0.032-0.008,0.034
		c-0.004,0.001-0.011,0.007-0.013-0.005C7.629,11.368,7.62,11.322,7.636,11.322 M7.611,11.315c-0.006,0.009-0.006,0.039,0.004,0.067
		c0.01,0.027,0.032,0.019,0.032,0.019s0.006-0.008,0.013-0.017c0.006-0.01,0.006-0.053,0.005-0.066c0-0.015-0.016-0.021-0.031-0.021
		C7.617,11.297,7.616,11.307,7.611,11.315"/>
	<path clip-path="url(#SVGID_4_)" fill="#B0E2F7" d="M6.262,22.048H6.249c0,0-0.069-0.018-0.069,0.029
		c0,0.027,0.007,0.087-0.062,0.122c-0.069,0.035-0.209,0.083-0.275,0.241c-0.066,0.157,0.023,0.314,0.113,0.396
		c0.089,0.082,0.181,0.062,0.259,0.177c0.021,0.032,0.023,0.035,0.038,0.035c0.014,0,0.027-0.006,0.049-0.045
		s0.04-0.036,0.084-0.056c0.043-0.02,0.214-0.104,0.281-0.239c0.068-0.136,0.032-0.312-0.07-0.39
		c-0.102-0.079-0.184-0.11-0.219-0.136s-0.061-0.048-0.062-0.085s-0.004-0.059-0.021-0.057C6.276,22.043,6.262,22.048,6.262,22.048"
		/>
	<path clip-path="url(#SVGID_4_)" fill="#B0E2F7" d="M6.246,21.908c0.017,0,0.027,0.028,0.027,0.054s-0.008,0.06-0.014,0.062
		c-0.007,0.003-0.02,0.013-0.023-0.009C6.233,21.993,6.217,21.908,6.246,21.908 M6.2,21.896c-0.01,0.017-0.01,0.071,0.008,0.122
		c0.017,0.052,0.059,0.036,0.059,0.036s0.011-0.017,0.023-0.032c0.012-0.017,0.011-0.096,0.01-0.122s-0.028-0.038-0.059-0.038
		C6.212,21.862,6.21,21.88,6.2,21.896"/>
	<path clip-path="url(#SVGID_4_)" fill="#B0E2F7" d="M8.774,22.355H8.763c0,0-0.07-0.017-0.07,0.029
		c0,0.028,0.008,0.087-0.062,0.122s-0.208,0.084-0.274,0.241s0.022,0.314,0.112,0.397c0.09,0.082,0.182,0.062,0.259,0.177
		c0.021,0.031,0.024,0.034,0.038,0.034s0.027-0.006,0.049-0.044c0.022-0.039,0.04-0.037,0.084-0.056
		c0.044-0.02,0.214-0.104,0.282-0.24c0.067-0.136,0.031-0.311-0.07-0.39c-0.102-0.078-0.184-0.11-0.219-0.136
		s-0.061-0.047-0.062-0.085c-0.001-0.037-0.003-0.058-0.021-0.057S8.774,22.355,8.774,22.355"/>
	<path clip-path="url(#SVGID_4_)" fill="#B0E2F7" d="M8.759,22.216c0.017,0,0.027,0.028,0.027,0.055c0,0.025-0.007,0.06-0.014,0.062
		c-0.006,0.002-0.019,0.013-0.022-0.01C8.746,22.302,8.729,22.216,8.759,22.216 M8.713,22.204c-0.01,0.017-0.01,0.071,0.008,0.123
		c0.018,0.051,0.059,0.035,0.059,0.035s0.012-0.016,0.023-0.032s0.011-0.095,0.01-0.121s-0.028-0.038-0.058-0.038
		S8.723,22.188,8.713,22.204"/>
	<path clip-path="url(#SVGID_4_)" fill="#B0E2F7" d="M4.788,13.226H4.777c0,0-0.062-0.016-0.062,0.025
		c0,0.024,0.007,0.076-0.054,0.107c-0.061,0.03-0.183,0.073-0.241,0.211s0.021,0.276,0.099,0.349
		c0.079,0.071,0.159,0.055,0.228,0.154c0.019,0.028,0.021,0.03,0.033,0.03s0.024-0.005,0.043-0.038
		c0.02-0.034,0.035-0.032,0.073-0.049c0.038-0.018,0.188-0.092,0.247-0.211c0.06-0.118,0.028-0.272-0.062-0.342
		c-0.089-0.068-0.161-0.097-0.191-0.118c-0.031-0.022-0.054-0.042-0.055-0.075c-0.001-0.032-0.003-0.051-0.019-0.05
		C4.801,13.221,4.788,13.226,4.788,13.226"/>
	<path clip-path="url(#SVGID_4_)" fill="#B0E2F7" d="M4.774,13.103c0.015,0,0.024,0.025,0.024,0.048s-0.007,0.052-0.013,0.055
		c-0.006,0.002-0.017,0.011-0.02-0.008C4.763,13.178,4.749,13.103,4.774,13.103 M4.734,13.093c-0.009,0.014-0.009,0.062,0.007,0.107
		c0.015,0.045,0.052,0.031,0.052,0.031s0.009-0.015,0.02-0.028c0.011-0.015,0.01-0.084,0.009-0.106
		c-0.001-0.023-0.024-0.034-0.051-0.034C4.745,13.062,4.743,13.078,4.734,13.093"/>
	<path clip-path="url(#SVGID_4_)" fill="#B0E2F7" d="M4.502,20.665H4.493c0,0-0.054-0.013-0.054,0.022
		c0,0.021,0.006,0.067-0.048,0.094c-0.053,0.027-0.159,0.064-0.211,0.186c-0.051,0.121,0.018,0.241,0.087,0.305
		c0.068,0.063,0.139,0.048,0.198,0.136c0.017,0.024,0.019,0.026,0.029,0.026s0.021-0.004,0.038-0.034
		c0.017-0.029,0.03-0.027,0.064-0.042c0.033-0.016,0.164-0.08,0.216-0.185c0.053-0.104,0.024-0.238-0.054-0.299
		s-0.141-0.085-0.168-0.104s-0.047-0.036-0.048-0.065c-0.001-0.028-0.002-0.044-0.017-0.043C4.514,20.662,4.502,20.665,4.502,20.665
		"/>
	<path clip-path="url(#SVGID_4_)" fill="#B0E2F7" d="M4.49,20.558c0.013,0,0.021,0.022,0.021,0.042s-0.006,0.046-0.011,0.048
		s-0.015,0.01-0.018-0.007S4.468,20.558,4.49,20.558 M4.455,20.549c-0.008,0.013-0.008,0.055,0.006,0.095
		c0.014,0.039,0.045,0.027,0.045,0.027s0.009-0.013,0.018-0.025c0.01-0.013,0.009-0.073,0.008-0.093
		c-0.001-0.021-0.021-0.029-0.044-0.029C4.464,20.523,4.463,20.536,4.455,20.549"/>
	<path clip-path="url(#SVGID_4_)" fill="#B0E2F7" d="M8.632,17.411H8.626c0,0-0.034-0.008-0.034,0.015
		c0,0.014,0.004,0.042-0.029,0.059c-0.034,0.018-0.102,0.041-0.134,0.117s0.012,0.152,0.055,0.192
		c0.044,0.04,0.088,0.03,0.126,0.086c0.01,0.015,0.012,0.017,0.018,0.017c0.007,0,0.014-0.003,0.024-0.021s0.02-0.018,0.04-0.027
		c0.021-0.009,0.104-0.05,0.137-0.116c0.033-0.065,0.016-0.15-0.034-0.188c-0.049-0.038-0.089-0.054-0.105-0.065
		c-0.018-0.013-0.029-0.023-0.03-0.041c-0.001-0.019-0.002-0.028-0.011-0.028C8.639,17.409,8.632,17.411,8.632,17.411"/>
	<path clip-path="url(#SVGID_4_)" fill="#B0E2F7" d="M8.624,17.344c0.008,0,0.014,0.014,0.014,0.026s-0.004,0.028-0.007,0.03
		c-0.003,0.001-0.01,0.006-0.011-0.005C8.618,17.385,8.609,17.344,8.624,17.344 M8.602,17.338c-0.005,0.008-0.005,0.034,0.004,0.06
		s0.028,0.018,0.028,0.018s0.006-0.008,0.012-0.016c0.006-0.009,0.005-0.047,0.005-0.06c-0.001-0.013-0.014-0.019-0.028-0.019
		S8.606,17.33,8.602,17.338"/>
	<path clip-path="url(#SVGID_4_)" fill="#B0E2F7" d="M5.746,18.321H5.734c0,0-0.067-0.017-0.067,0.028
		c0,0.026,0.007,0.084-0.06,0.118c-0.067,0.034-0.202,0.081-0.267,0.233c-0.064,0.153,0.022,0.306,0.109,0.386
		s0.176,0.061,0.251,0.171c0.021,0.031,0.023,0.034,0.037,0.034c0.013,0,0.026-0.006,0.048-0.043
		c0.021-0.038,0.038-0.035,0.08-0.055c0.043-0.019,0.208-0.101,0.274-0.232c0.065-0.131,0.03-0.302-0.068-0.378
		s-0.179-0.106-0.213-0.132c-0.034-0.024-0.059-0.045-0.06-0.082c-0.001-0.036-0.004-0.056-0.021-0.055S5.746,18.321,5.746,18.321"
		/>
	<path clip-path="url(#SVGID_4_)" fill="#B0E2F7" d="M5.731,18.186c0.016,0,0.026,0.027,0.026,0.053
		c0,0.024-0.007,0.058-0.013,0.061c-0.007,0.002-0.02,0.012-0.022-0.009C5.719,18.269,5.703,18.186,5.731,18.186 M5.687,18.174
		c-0.009,0.017-0.009,0.069,0.008,0.119s0.058,0.034,0.058,0.034s0.011-0.015,0.021-0.031c0.012-0.016,0.011-0.092,0.01-0.117
		s-0.027-0.037-0.056-0.037C5.698,18.142,5.696,18.158,5.687,18.174"/>
	<path clip-path="url(#SVGID_4_)" fill="#B0E2F7" d="M3.667,15.525h-0.01c0,0-0.062-0.015-0.062,0.025
		c0,0.024,0.006,0.076-0.055,0.107c-0.061,0.03-0.183,0.073-0.24,0.211c-0.059,0.139,0.02,0.276,0.099,0.349
		c0.078,0.072,0.159,0.055,0.227,0.154c0.02,0.028,0.021,0.031,0.033,0.031c0.013,0,0.024-0.005,0.044-0.039
		c0.019-0.034,0.034-0.032,0.073-0.049c0.038-0.018,0.188-0.092,0.247-0.21c0.06-0.119,0.027-0.273-0.062-0.342
		c-0.089-0.069-0.161-0.097-0.192-0.119c-0.03-0.022-0.053-0.042-0.054-0.074c-0.001-0.033-0.004-0.051-0.02-0.05
		S3.667,15.525,3.667,15.525"/>
	<path clip-path="url(#SVGID_4_)" fill="#B0E2F7" d="M3.653,15.402c0.015,0,0.024,0.025,0.024,0.048s-0.007,0.053-0.012,0.055
		c-0.006,0.003-0.018,0.012-0.021-0.008S3.628,15.402,3.653,15.402 M3.613,15.393C3.604,15.407,3.604,15.455,3.62,15.5
		s0.052,0.031,0.052,0.031s0.01-0.014,0.021-0.028s0.01-0.084,0.009-0.106c-0.001-0.023-0.025-0.034-0.052-0.034
		C3.624,15.362,3.622,15.378,3.613,15.393"/>
	<path clip-path="url(#SVGID_4_)" fill="#B0E2F7" d="M9.666,22.93H9.655c0,0-0.063-0.016-0.063,0.026
		c0,0.025,0.007,0.08-0.057,0.111c-0.062,0.032-0.19,0.077-0.251,0.221s0.021,0.287,0.103,0.362
		c0.082,0.075,0.166,0.058,0.237,0.161c0.02,0.029,0.021,0.032,0.034,0.032s0.025-0.005,0.045-0.041
		c0.021-0.035,0.037-0.033,0.076-0.051c0.04-0.018,0.196-0.095,0.258-0.219c0.062-0.124,0.029-0.284-0.064-0.355
		c-0.093-0.072-0.168-0.102-0.199-0.124c-0.032-0.023-0.056-0.043-0.057-0.078c-0.001-0.034-0.004-0.053-0.021-0.052
		S9.666,22.93,9.666,22.93"/>
	<path clip-path="url(#SVGID_4_)" fill="#B0E2F7" d="M9.652,22.802c0.015,0,0.025,0.026,0.025,0.05s-0.007,0.055-0.013,0.057
		C9.659,22.911,9.647,22.92,9.644,22.9C9.641,22.88,9.625,22.802,9.652,22.802 M9.61,22.791c-0.009,0.016-0.009,0.065,0.007,0.112
		s0.054,0.032,0.054,0.032s0.011-0.015,0.021-0.029s0.01-0.087,0.009-0.111C9.7,22.771,9.675,22.76,9.648,22.76
		C9.621,22.76,9.619,22.776,9.61,22.791"/>
	<path clip-path="url(#SVGID_4_)" fill="#B0E2F7" d="M5.756,10.098H5.748c0,0-0.046-0.012-0.046,0.019
		c0,0.018,0.005,0.057-0.04,0.079c-0.045,0.023-0.135,0.055-0.178,0.156c-0.044,0.103,0.015,0.205,0.072,0.258
		c0.059,0.054,0.118,0.041,0.169,0.115c0.014,0.021,0.016,0.022,0.024,0.022s0.018-0.004,0.032-0.029
		c0.014-0.024,0.025-0.023,0.054-0.036c0.028-0.012,0.14-0.067,0.184-0.155s0.021-0.202-0.046-0.253s-0.119-0.071-0.143-0.088
		c-0.022-0.017-0.039-0.031-0.04-0.056c0-0.024-0.002-0.037-0.014-0.036C5.766,10.094,5.756,10.098,5.756,10.098"/>
	<path clip-path="url(#SVGID_4_)" fill="#B0E2F7" d="M5.745,10.007c0.011,0,0.019,0.018,0.019,0.035c0,0.017-0.005,0.038-0.009,0.04
		c-0.005,0.002-0.013,0.009-0.016-0.006C5.737,10.062,5.727,10.007,5.745,10.007 M5.716,9.999c-0.007,0.011-0.007,0.046,0.005,0.079
		s0.038,0.023,0.038,0.023s0.008-0.011,0.016-0.021c0.008-0.01,0.007-0.062,0.006-0.078C5.779,9.984,5.762,9.977,5.743,9.977
		C5.724,9.977,5.722,9.988,5.716,9.999"/>
	<path clip-path="url(#SVGID_4_)" fill="#B0E2F7" d="M5.196,15.092H5.182c0,0-0.086-0.021-0.086,0.035
		c0,0.034,0.009,0.107-0.076,0.15c-0.084,0.043-0.255,0.103-0.337,0.296c-0.082,0.192,0.028,0.386,0.138,0.487
		c0.11,0.101,0.224,0.076,0.318,0.217c0.026,0.038,0.029,0.042,0.046,0.042c0.018,0,0.034-0.007,0.061-0.055
		c0.027-0.047,0.05-0.044,0.103-0.068c0.054-0.023,0.263-0.127,0.347-0.294c0.083-0.166,0.038-0.382-0.087-0.478
		c-0.124-0.097-0.226-0.136-0.269-0.167S5.265,15.2,5.264,15.154c-0.002-0.046-0.005-0.071-0.027-0.07
		C5.214,15.086,5.196,15.092,5.196,15.092"/>
	<path clip-path="url(#SVGID_4_)" fill="#B0E2F7" d="M5.177,14.92c0.021,0,0.034,0.035,0.034,0.066c0,0.032-0.01,0.073-0.018,0.077
		c-0.008,0.003-0.023,0.016-0.028-0.012C5.161,15.024,5.141,14.92,5.177,14.92 M5.12,14.906c-0.012,0.02-0.012,0.087,0.01,0.15
		C5.151,15.119,5.202,15.1,5.202,15.1s0.014-0.02,0.028-0.039c0.015-0.021,0.014-0.117,0.012-0.149
		c-0.001-0.032-0.034-0.047-0.07-0.047S5.133,14.886,5.12,14.906"/>
	<path clip-path="url(#SVGID_4_)" fill="#B0E2F7" d="M5.299,9.317H5.293c0,0-0.035-0.009-0.035,0.015
		c0,0.014,0.004,0.043-0.03,0.061S5.124,9.434,5.092,9.512C5.059,9.59,5.103,9.668,5.147,9.708c0.044,0.041,0.09,0.031,0.128,0.088
		c0.011,0.016,0.012,0.018,0.019,0.018s0.014-0.003,0.024-0.022S5.339,9.773,5.36,9.764S5.466,9.712,5.5,9.645
		C5.533,9.577,5.516,9.49,5.465,9.451c-0.05-0.038-0.091-0.054-0.108-0.066s-0.03-0.023-0.03-0.042
		C5.325,9.324,5.324,9.313,5.315,9.314C5.306,9.314,5.299,9.317,5.299,9.317"/>
	<path clip-path="url(#SVGID_4_)" fill="#B0E2F7" d="M5.291,9.248c0.008,0,0.014,0.014,0.014,0.026c0,0.014-0.004,0.03-0.007,0.031
		c-0.003,0.002-0.01,0.007-0.012-0.005C5.284,9.29,5.276,9.248,5.291,9.248 M5.269,9.242C5.264,9.25,5.264,9.277,5.272,9.303
		C5.28,9.328,5.301,9.32,5.301,9.32s0.006-0.008,0.012-0.016s0.006-0.047,0.005-0.061c0-0.013-0.014-0.019-0.028-0.019
		S5.273,9.234,5.269,9.242"/>
	<path clip-path="url(#SVGID_4_)" fill="#B0E2F7" d="M4.816,9.781H4.809c0,0-0.044-0.011-0.044,0.019
		c0,0.018,0.004,0.056-0.039,0.078C4.682,9.899,4.593,9.931,4.551,10.03s0.015,0.199,0.071,0.252
		c0.057,0.052,0.115,0.039,0.164,0.111c0.014,0.021,0.016,0.022,0.024,0.022s0.018-0.004,0.031-0.028s0.025-0.022,0.053-0.035
		C4.923,10.34,5.03,10.286,5.073,10.2s0.021-0.197-0.044-0.247S4.912,9.884,4.891,9.867c-0.022-0.016-0.039-0.029-0.04-0.054
		c0-0.023-0.002-0.036-0.014-0.036C4.826,9.778,4.816,9.781,4.816,9.781"/>
	<path clip-path="url(#SVGID_4_)" fill="#B0E2F7" d="M4.807,9.692c0.01,0,0.018,0.019,0.018,0.035c0,0.016-0.005,0.037-0.009,0.039
		C4.811,9.769,4.803,9.775,4.801,9.761C4.798,9.747,4.788,9.692,4.807,9.692 M4.777,9.686C4.771,9.696,4.771,9.73,4.782,9.763
		c0.011,0.033,0.037,0.022,0.037,0.022s0.007-0.01,0.015-0.02c0.008-0.011,0.007-0.061,0.007-0.077
		C4.84,9.672,4.822,9.664,4.804,9.664S4.783,9.675,4.777,9.686"/>
	<path clip-path="url(#SVGID_4_)" fill="#B0E2F7" d="M4.569,7.488c0-0.041-0.013-0.075-0.043-0.099
		C4.505,7.373,4.471,7.361,4.441,7.361c-0.07,0-0.128,0.043-0.128,0.127c0,0.091,0.078,0.105,0.081,0.119
		c0.004,0.01-0.058,0.046-0.031,0.142c0.016,0.055,0.034,0.093,0.042,0.128c0.018,0.074,0.036,0.107,0.036,0.107
		s0.015-0.029,0.048-0.162c0.005-0.016,0.024-0.056,0.029-0.073c0.026-0.096-0.032-0.129-0.03-0.142
		C4.498,7.585,4.564,7.588,4.569,7.488"/>
	<path clip-path="url(#SVGID_4_)" fill="#B0E2F7" d="M4.443,7.312c0.007,0,0.011,0.011,0.011,0.021c0,0.01-0.003,0.023-0.006,0.024
		C4.446,7.358,4.441,7.362,4.439,7.354C4.438,7.345,4.432,7.312,4.443,7.312 M4.425,7.307C4.421,7.313,4.421,7.335,4.428,7.355
		c0.008,0.021,0.023,0.014,0.023,0.014s0.005-0.006,0.01-0.013C4.465,7.35,4.465,7.319,4.465,7.309
		C4.464,7.298,4.453,7.294,4.441,7.294S4.429,7.301,4.425,7.307"/>
	<path clip-path="url(#SVGID_4_)" fill="#B0E2F7" d="M4.149,11.299c0-0.075-0.022-0.139-0.078-0.181
		c-0.039-0.03-0.102-0.053-0.155-0.053c-0.129,0-0.233,0.079-0.233,0.233c0,0.166,0.143,0.191,0.148,0.217
		c0.007,0.018-0.104,0.083-0.057,0.258c0.027,0.101,0.061,0.17,0.076,0.234c0.032,0.136,0.065,0.197,0.065,0.197
		s0.027-0.055,0.089-0.297c0.008-0.027,0.044-0.103,0.053-0.135c0.048-0.175-0.06-0.235-0.056-0.258
		C4.019,11.476,4.141,11.48,4.149,11.299"/>
	<path clip-path="url(#SVGID_4_)" fill="#B0E2F7" d="M3.92,10.976c0.012,0,0.02,0.021,0.02,0.039s-0.005,0.043-0.01,0.045
		s-0.014,0.009-0.017-0.007S3.898,10.976,3.92,10.976 M3.887,10.967c-0.007,0.012-0.007,0.052,0.006,0.089s0.042,0.025,0.042,0.025
		s0.008-0.012,0.017-0.023s0.008-0.068,0.007-0.088c0-0.019-0.021-0.027-0.041-0.027C3.896,10.942,3.894,10.955,3.887,10.967"/>
	<path clip-path="url(#SVGID_4_)" fill="#B0E2F7" d="M4.842,8.239c0-0.043-0.014-0.079-0.045-0.104
		c-0.022-0.018-0.058-0.03-0.089-0.03c-0.073,0-0.133,0.046-0.133,0.134c0,0.094,0.081,0.109,0.085,0.123
		c0.004,0.01-0.06,0.048-0.032,0.147c0.016,0.057,0.034,0.097,0.043,0.133c0.019,0.078,0.037,0.112,0.037,0.112
		s0.017-0.03,0.051-0.169C4.764,8.57,4.784,8.528,4.789,8.51c0.027-0.1-0.034-0.135-0.032-0.147C4.767,8.34,4.836,8.343,4.842,8.239
		"/>
	<path clip-path="url(#SVGID_4_)" fill="#B0E2F7" d="M4.711,8.055c0.007,0,0.011,0.012,0.011,0.022c0,0.01-0.003,0.024-0.006,0.025
		C4.714,8.104,4.708,8.107,4.707,8.099C4.705,8.09,4.698,8.055,4.711,8.055 M4.691,8.05C4.688,8.057,4.688,8.079,4.695,8.101
		c0.007,0.021,0.023,0.014,0.023,0.014s0.005-0.006,0.01-0.013s0.005-0.039,0.004-0.05c0-0.011-0.012-0.016-0.023-0.016
		C4.696,8.036,4.695,8.043,4.691,8.05"/>
	<path clip-path="url(#SVGID_4_)" fill="#B0E2F7" d="M7.702,12.761c0-0.043-0.013-0.079-0.045-0.104
		C7.635,12.64,7.6,12.628,7.569,12.628c-0.073,0-0.133,0.045-0.133,0.133c0,0.094,0.081,0.109,0.084,0.123
		c0.004,0.01-0.06,0.048-0.032,0.147c0.016,0.057,0.035,0.097,0.044,0.133c0.018,0.078,0.037,0.113,0.037,0.113
		s0.016-0.031,0.05-0.169c0.005-0.017,0.025-0.059,0.03-0.077c0.028-0.1-0.033-0.134-0.031-0.147
		C7.628,12.861,7.697,12.864,7.702,12.761"/>
	<path clip-path="url(#SVGID_4_)" fill="#B0E2F7" d="M7.571,12.576c0.007,0,0.012,0.012,0.012,0.022s-0.004,0.024-0.006,0.025
		c-0.003,0.001-0.008,0.005-0.01-0.004C7.566,12.611,7.56,12.576,7.571,12.576 M7.553,12.571c-0.004,0.007-0.004,0.029,0.003,0.051
		c0.007,0.021,0.024,0.015,0.024,0.015s0.004-0.007,0.009-0.014s0.005-0.039,0.005-0.05c-0.001-0.011-0.012-0.016-0.024-0.016
		C7.558,12.558,7.557,12.564,7.553,12.571"/>
	<path clip-path="url(#SVGID_4_)" fill="#B0E2F7" d="M6.327,10.961c0-0.066-0.02-0.121-0.068-0.158
		c-0.034-0.027-0.089-0.046-0.136-0.046c-0.112,0-0.204,0.069-0.204,0.204c0,0.145,0.125,0.167,0.13,0.189
		c0.006,0.015-0.092,0.072-0.05,0.226c0.024,0.087,0.054,0.147,0.066,0.204c0.028,0.119,0.058,0.173,0.058,0.173
		s0.024-0.048,0.077-0.26c0.008-0.024,0.039-0.089,0.047-0.117c0.042-0.153-0.052-0.206-0.049-0.226
		C6.213,11.115,6.319,11.119,6.327,10.961"/>
	<path clip-path="url(#SVGID_4_)" fill="#B0E2F7" d="M6.126,10.678c0.011,0,0.018,0.019,0.018,0.034
		c0,0.017-0.005,0.038-0.009,0.039c-0.004,0.002-0.012,0.009-0.015-0.006C6.118,10.731,6.107,10.678,6.126,10.678 M6.098,10.671
		c-0.007,0.01-0.007,0.045,0.005,0.077c0.011,0.032,0.037,0.022,0.037,0.022s0.007-0.011,0.015-0.021
		c0.007-0.011,0.007-0.061,0.006-0.076c-0.001-0.017-0.018-0.024-0.036-0.024S6.104,10.66,6.098,10.671"/>
	<path clip-path="url(#SVGID_4_)" fill="#B0E2F7" d="M7.851,22.712c0-0.105-0.031-0.194-0.109-0.255
		c-0.056-0.043-0.144-0.073-0.219-0.073c-0.182,0-0.329,0.111-0.329,0.328c0,0.234,0.201,0.271,0.209,0.306
		c0.01,0.024-0.147,0.118-0.08,0.364c0.039,0.141,0.086,0.238,0.107,0.329c0.045,0.192,0.093,0.278,0.093,0.278
		s0.038-0.076,0.124-0.417c0.012-0.04,0.062-0.146,0.075-0.19c0.068-0.246-0.084-0.332-0.079-0.364
		C7.667,22.961,7.839,22.969,7.851,22.712"/>
	<path clip-path="url(#SVGID_4_)" fill="#B0E2F7" d="M7.527,22.257c0.017,0,0.028,0.028,0.028,0.055s-0.008,0.061-0.015,0.063
		c-0.006,0.003-0.02,0.013-0.023-0.01C7.515,22.343,7.498,22.257,7.527,22.257 M7.48,22.245c-0.01,0.017-0.01,0.072,0.008,0.124
		c0.019,0.052,0.061,0.036,0.061,0.036s0.011-0.017,0.023-0.033c0.012-0.017,0.011-0.097,0.01-0.123S7.553,22.21,7.523,22.21
		C7.493,22.21,7.491,22.229,7.48,22.245"/>
	<path clip-path="url(#SVGID_4_)" fill="#B0E2F7" d="M8.444,11.566c0-0.079-0.023-0.146-0.082-0.19
		c-0.041-0.031-0.106-0.055-0.163-0.055c-0.135,0-0.245,0.083-0.245,0.245c0,0.175,0.15,0.202,0.155,0.229
		C8.117,11.812,8,11.883,8.051,12.066c0.029,0.105,0.063,0.178,0.08,0.246c0.033,0.143,0.068,0.207,0.068,0.207
		s0.029-0.057,0.093-0.312c0.009-0.029,0.047-0.108,0.057-0.142c0.051-0.184-0.062-0.248-0.06-0.271
		C8.308,11.752,8.436,11.758,8.444,11.566"/>
	<path clip-path="url(#SVGID_4_)" fill="#B0E2F7" d="M8.203,11.227c0.013,0,0.021,0.021,0.021,0.041s-0.006,0.045-0.011,0.048
		c-0.005,0.002-0.015,0.009-0.018-0.008S8.181,11.227,8.203,11.227 M8.169,11.218c-0.008,0.013-0.008,0.054,0.006,0.093
		c0.013,0.039,0.044,0.027,0.044,0.027s0.009-0.013,0.018-0.024c0.01-0.013,0.009-0.072,0.008-0.093
		c-0.001-0.02-0.021-0.028-0.044-0.028S8.176,11.205,8.169,11.218"/>
	<path clip-path="url(#SVGID_4_)" fill="#B0E2F7" d="M5.932,12.419c0-0.072-0.021-0.134-0.075-0.175
		c-0.038-0.029-0.099-0.051-0.15-0.051c-0.125,0-0.226,0.077-0.226,0.226c0,0.161,0.138,0.186,0.143,0.21
		c0.007,0.017-0.101,0.081-0.054,0.25c0.026,0.097,0.059,0.164,0.073,0.227c0.031,0.132,0.063,0.19,0.063,0.19
		s0.026-0.053,0.085-0.286c0.009-0.027,0.043-0.1,0.052-0.131c0.047-0.169-0.058-0.228-0.054-0.25
		C5.806,12.59,5.923,12.596,5.932,12.419"/>
	<path clip-path="url(#SVGID_4_)" fill="#B0E2F7" d="M5.71,12.106c0.011,0,0.019,0.02,0.019,0.038c0,0.018-0.005,0.041-0.01,0.043
		c-0.004,0.002-0.013,0.009-0.016-0.006C5.7,12.166,5.689,12.106,5.71,12.106 M5.678,12.099c-0.007,0.011-0.007,0.049,0.005,0.085
		c0.013,0.036,0.041,0.024,0.041,0.024s0.008-0.011,0.017-0.022c0.008-0.011,0.008-0.066,0.007-0.084
		c-0.001-0.019-0.02-0.027-0.041-0.027C5.686,12.074,5.685,12.087,5.678,12.099"/>
	<path clip-path="url(#SVGID_4_)" fill="#B0E2F7" d="M3.171,15.895c0-0.052-0.016-0.094-0.053-0.123
		c-0.026-0.021-0.068-0.035-0.104-0.035c-0.087,0-0.157,0.054-0.157,0.158c0,0.111,0.096,0.129,0.1,0.146
		c0.005,0.012-0.07,0.056-0.038,0.174c0.019,0.067,0.041,0.114,0.051,0.158c0.022,0.092,0.045,0.133,0.045,0.133
		s0.019-0.036,0.06-0.2c0.006-0.019,0.03-0.069,0.036-0.091c0.032-0.118-0.04-0.159-0.038-0.174
		C3.083,16.014,3.165,16.017,3.171,15.895"/>
	<path clip-path="url(#SVGID_4_)" fill="#B0E2F7" d="M3.016,15.676c0.009,0,0.014,0.014,0.014,0.026s-0.004,0.029-0.007,0.03
		s-0.009,0.006-0.011-0.005S3.002,15.676,3.016,15.676 M2.994,15.67c-0.005,0.008-0.005,0.035,0.003,0.06
		c0.009,0.025,0.029,0.018,0.029,0.018s0.005-0.008,0.011-0.016s0.006-0.047,0.005-0.06c0-0.013-0.014-0.019-0.028-0.019
		C3,15.653,2.998,15.662,2.994,15.67"/>
	<path clip-path="url(#SVGID_4_)" fill="#B0E2F7" d="M6.29,16.414c0-0.085-0.025-0.156-0.089-0.205
		c-0.045-0.034-0.115-0.06-0.176-0.06c-0.146,0-0.265,0.09-0.265,0.265c0,0.188,0.161,0.219,0.167,0.247
		c0.009,0.02-0.118,0.095-0.063,0.293c0.031,0.113,0.069,0.192,0.086,0.266c0.037,0.154,0.075,0.224,0.075,0.224
		s0.031-0.062,0.1-0.336c0.01-0.032,0.051-0.117,0.061-0.153c0.055-0.198-0.067-0.268-0.063-0.293
		C6.142,16.615,6.28,16.621,6.29,16.414"/>
	<path clip-path="url(#SVGID_4_)" fill="#B0E2F7" d="M6.029,16.048c0.014,0,0.022,0.022,0.022,0.044
		c0,0.021-0.006,0.049-0.011,0.051c-0.006,0.003-0.017,0.011-0.02-0.007C6.019,16.117,6.005,16.048,6.029,16.048 M5.992,16.038
		c-0.009,0.014-0.009,0.058,0.006,0.1c0.015,0.043,0.048,0.029,0.048,0.029s0.01-0.013,0.02-0.026s0.009-0.077,0.008-0.099
		S6.05,16.01,6.025,16.01C6.002,16.01,6,16.024,5.992,16.038"/>
	<path clip-path="url(#SVGID_4_)" fill="#B0E2F7" d="M3.941,19.887c0-0.086-0.025-0.157-0.088-0.206
		c-0.045-0.034-0.116-0.059-0.177-0.059c-0.146,0-0.265,0.09-0.265,0.265c0,0.188,0.162,0.218,0.168,0.246
		c0.008,0.02-0.118,0.095-0.063,0.293c0.031,0.113,0.068,0.192,0.086,0.266c0.036,0.154,0.074,0.224,0.074,0.224
		s0.031-0.062,0.101-0.336c0.009-0.032,0.05-0.116,0.061-0.153c0.055-0.198-0.067-0.268-0.064-0.293
		C3.794,20.087,3.932,20.093,3.941,19.887"/>
	<path clip-path="url(#SVGID_4_)" fill="#B0E2F7" d="M3.681,19.52c0.014,0,0.022,0.023,0.022,0.044c0,0.021-0.006,0.049-0.011,0.051
		c-0.005,0.003-0.016,0.011-0.019-0.007C3.671,19.589,3.657,19.52,3.681,19.52 M3.644,19.51c-0.008,0.014-0.008,0.059,0.006,0.101
		c0.015,0.042,0.049,0.028,0.049,0.028s0.009-0.013,0.019-0.026c0.01-0.013,0.009-0.077,0.008-0.099s-0.022-0.031-0.047-0.031
		S3.651,19.496,3.644,19.51"/>
	<path clip-path="url(#SVGID_4_)" fill="#B0E2F7" d="M7.225,21.089c0-0.086-0.025-0.157-0.089-0.206
		c-0.045-0.034-0.115-0.059-0.176-0.059c-0.146,0-0.265,0.09-0.265,0.265c0,0.188,0.161,0.218,0.167,0.246
		c0.009,0.02-0.118,0.095-0.063,0.293c0.031,0.113,0.069,0.192,0.086,0.266c0.037,0.154,0.075,0.224,0.075,0.224
		s0.031-0.062,0.1-0.336c0.01-0.032,0.051-0.117,0.061-0.153c0.055-0.198-0.067-0.268-0.063-0.293
		C7.076,21.289,7.215,21.295,7.225,21.089"/>
	<path clip-path="url(#SVGID_4_)" fill="#B0E2F7" d="M6.964,20.722c0.014,0,0.022,0.023,0.022,0.044
		c0,0.021-0.006,0.049-0.011,0.051c-0.006,0.003-0.017,0.011-0.02-0.007C6.953,20.791,6.939,20.722,6.964,20.722 M6.927,20.712
		c-0.009,0.014-0.009,0.059,0.006,0.101s0.048,0.028,0.048,0.028S6.99,20.828,7,20.814c0.01-0.013,0.009-0.077,0.008-0.099
		s-0.023-0.031-0.048-0.031C6.937,20.685,6.935,20.698,6.927,20.712"/>
	<path clip-path="url(#SVGID_4_)" fill="#B0E2F7" d="M6.855,8.575c0.004-0.004,0.028,0.004,0.058,0.003
		c0.088-0.001,0.234,0.011,0.248-0.003S7.008,8.317,7.008,8.317s0.153-0.243,0.153-0.259s-0.307,0-0.307,0S6.734,7.82,6.712,7.82
		s-0.12,0.227-0.141,0.238c-0.021,0.012-0.297-0.01-0.306,0c-0.01,0.01,0.152,0.258,0.152,0.258S6.253,8.562,6.266,8.575
		C6.277,8.587,6.56,8.551,6.576,8.566c0.016,0.016,0.138,0.247,0.138,0.247S6.842,8.588,6.855,8.575"/>
	<path clip-path="url(#SVGID_4_)" fill="#B0E2F7" d="M6.729,7.81c-0.004,0.024-0.019,0.013-0.025,0.01S6.689,7.778,6.689,7.75
		s0.012-0.06,0.03-0.06C6.752,7.69,6.733,7.785,6.729,7.81 M6.725,7.64c-0.033,0-0.063,0.014-0.064,0.043
		C6.659,7.711,6.657,7.799,6.671,7.816c0.014,0.019,0.025,0.036,0.025,0.036S6.742,7.87,6.762,7.813
		c0.02-0.058,0.02-0.118,0.009-0.136C6.76,7.659,6.757,7.64,6.725,7.64"/>
	<path clip-path="url(#SVGID_4_)" fill="#B0E2F7" d="M3.447,19.14c0.005-0.004,0.036,0.006,0.073,0.005
		c0.11-0.003,0.294,0.012,0.312-0.005c0.017-0.017-0.192-0.323-0.192-0.323s0.192-0.306,0.192-0.325s-0.387,0-0.387,0
		s-0.15-0.3-0.178-0.3c-0.028,0-0.151,0.284-0.178,0.3c-0.026,0.015-0.372-0.013-0.385,0c-0.012,0.012,0.193,0.323,0.193,0.323
		s-0.208,0.31-0.193,0.325c0.016,0.016,0.371-0.03,0.391-0.011c0.021,0.021,0.174,0.311,0.174,0.311S3.431,19.156,3.447,19.14"/>
	<path clip-path="url(#SVGID_4_)" fill="#B0E2F7" d="M3.289,18.178c-0.005,0.03-0.022,0.017-0.031,0.013
		c-0.01-0.004-0.02-0.052-0.02-0.087c0-0.036,0.016-0.075,0.038-0.075C3.317,18.028,3.294,18.146,3.289,18.178 M3.282,17.965
		c-0.041,0-0.079,0.017-0.08,0.053c-0.002,0.037-0.003,0.146,0.014,0.169c0.017,0.023,0.032,0.045,0.032,0.045
		s0.058,0.022,0.082-0.049c0.023-0.072,0.023-0.147,0.01-0.171C3.326,17.989,3.323,17.965,3.282,17.965"/>
	<path clip-path="url(#SVGID_4_)" fill="#B0E2F7" d="M5.77,8.836C5.772,8.834,5.792,8.84,5.815,8.839
		c0.07-0.001,0.187,0.008,0.197-0.003S5.891,8.631,5.891,8.631s0.122-0.193,0.122-0.206c0-0.012-0.244,0-0.244,0
		S5.673,8.235,5.655,8.235S5.56,8.416,5.543,8.425c-0.017,0.01-0.235-0.007-0.243,0C5.292,8.433,5.422,8.63,5.422,8.63
		S5.29,8.826,5.3,8.836s0.234-0.02,0.247-0.007s0.11,0.197,0.11,0.197S5.759,8.847,5.77,8.836"/>
	<path clip-path="url(#SVGID_4_)" fill="#B0E2F7" d="M5.669,8.227c-0.003,0.02-0.015,0.011-0.02,0.008
		C5.644,8.232,5.637,8.202,5.637,8.18s0.01-0.048,0.024-0.048C5.687,8.132,5.673,8.207,5.669,8.227 M5.665,8.092
		c-0.026,0-0.05,0.011-0.051,0.034C5.613,8.148,5.612,8.218,5.622,8.232c0.011,0.015,0.021,0.028,0.021,0.028
		S5.68,8.275,5.694,8.229C5.71,8.185,5.71,8.137,5.701,8.122S5.69,8.092,5.665,8.092"/>
	<path clip-path="url(#SVGID_4_)" fill="#B0E2F7" d="M8.841,12.616c0.002-0.002,0.018,0.003,0.036,0.002
		c0.056-0.001,0.148,0.007,0.157-0.002c0.008-0.009-0.098-0.163-0.098-0.163S9.034,12.3,9.034,12.29s-0.194,0-0.194,0
		s-0.076-0.151-0.09-0.151c-0.015,0-0.076,0.144-0.09,0.151c-0.013,0.007-0.188-0.007-0.193,0c-0.006,0.006,0.097,0.162,0.097,0.162
		s-0.104,0.156-0.097,0.164s0.187-0.016,0.196-0.005c0.011,0.01,0.088,0.156,0.088,0.156S8.832,12.625,8.841,12.616"/>
	<path clip-path="url(#SVGID_4_)" fill="#B0E2F7" d="M8.761,12.132c-0.003,0.016-0.012,0.008-0.016,0.006
		c-0.005-0.002-0.01-0.025-0.01-0.043c0-0.019,0.008-0.038,0.019-0.038C8.775,12.057,8.764,12.116,8.761,12.132 M8.758,12.024
		c-0.021,0-0.04,0.009-0.041,0.027s-0.002,0.073,0.007,0.085c0.009,0.011,0.017,0.022,0.017,0.022s0.028,0.011,0.041-0.025
		c0.012-0.035,0.012-0.074,0.005-0.085C8.779,12.037,8.778,12.024,8.758,12.024"/>
	<path clip-path="url(#SVGID_4_)" fill="#B0E2F7" d="M7.185,13.74c0.002-0.003,0.022,0.003,0.046,0.003
		c0.07-0.002,0.188,0.008,0.198-0.003s-0.122-0.206-0.122-0.206s0.122-0.195,0.122-0.208c0-0.012-0.246,0-0.246,0
		s-0.096-0.191-0.113-0.191s-0.097,0.182-0.113,0.191s-0.237-0.008-0.245,0s0.123,0.207,0.123,0.207S6.701,13.73,6.711,13.74
		s0.236-0.02,0.249-0.007s0.111,0.198,0.111,0.198S7.173,13.751,7.185,13.74"/>
	<path clip-path="url(#SVGID_4_)" fill="#B0E2F7" d="M7.083,13.126c-0.003,0.02-0.015,0.011-0.021,0.009
		c-0.005-0.003-0.012-0.033-0.012-0.056s0.01-0.048,0.024-0.048C7.102,13.031,7.086,13.106,7.083,13.126 M7.079,12.991
		c-0.026,0-0.051,0.011-0.052,0.033c-0.001,0.023-0.002,0.094,0.009,0.108s0.021,0.028,0.021,0.028s0.037,0.014,0.053-0.031
		c0.015-0.046,0.015-0.095,0.006-0.109C7.107,13.007,7.105,12.991,7.079,12.991"/>
	<path clip-path="url(#SVGID_4_)" fill="#B0E2F7" d="M3.631,22.283c0.004-0.004,0.039,0.006,0.079,0.005
		c0.12-0.002,0.321,0.014,0.34-0.005S3.84,21.93,3.84,21.93s0.21-0.334,0.21-0.354c0-0.021-0.422,0-0.422,0
		s-0.164-0.328-0.194-0.328s-0.165,0.312-0.194,0.328c-0.028,0.017-0.406-0.014-0.419,0c-0.014,0.013,0.21,0.354,0.21,0.354
		s-0.227,0.338-0.21,0.354c0.017,0.018,0.404-0.033,0.426-0.012c0.022,0.022,0.19,0.34,0.19,0.34S3.611,22.302,3.631,22.283"/>
	<path clip-path="url(#SVGID_4_)" fill="#B0E2F7" d="M3.458,21.232c-0.006,0.033-0.025,0.019-0.035,0.014
		c-0.01-0.004-0.021-0.056-0.021-0.095s0.018-0.082,0.042-0.082C3.488,21.069,3.463,21.199,3.458,21.232 M3.45,21
		c-0.045,0-0.087,0.019-0.088,0.059c-0.002,0.04-0.004,0.159,0.015,0.185c0.019,0.024,0.035,0.049,0.035,0.049
		s0.062,0.023,0.09-0.054c0.026-0.078,0.026-0.161,0.012-0.187C3.498,21.027,3.495,21,3.45,21"/>
	<path clip-path="url(#SVGID_4_)" fill="#B0E2F7" d="M4.538,16.671c0.002-0.002,0.022,0.004,0.046,0.003
		c0.07-0.001,0.188,0.008,0.198-0.003S4.66,16.465,4.66,16.465s0.122-0.195,0.122-0.207c0-0.013-0.246,0-0.246,0
		s-0.096-0.191-0.113-0.191s-0.097,0.182-0.113,0.191s-0.237-0.008-0.245,0s0.123,0.206,0.123,0.206s-0.133,0.197-0.123,0.207
		s0.236-0.02,0.249-0.007c0.013,0.014,0.111,0.198,0.111,0.198S4.526,16.682,4.538,16.671"/>
	<path clip-path="url(#SVGID_4_)" fill="#B0E2F7" d="M4.437,16.058c-0.003,0.02-0.015,0.011-0.021,0.008
		c-0.005-0.002-0.012-0.032-0.012-0.055c0-0.023,0.01-0.048,0.024-0.048C4.455,15.963,4.44,16.038,4.437,16.058 M4.433,15.922
		c-0.026,0-0.051,0.011-0.052,0.034s-0.002,0.093,0.009,0.107s0.021,0.028,0.021,0.028s0.037,0.015,0.053-0.031
		c0.015-0.045,0.015-0.094,0.007-0.108C4.461,15.938,4.459,15.922,4.433,15.922"/>
	<path clip-path="url(#SVGID_4_)" fill="#B0E2F7" d="M3.233,15.317c0.001-0.002,0.012,0.001,0.024,0.001
		c0.039-0.001,0.103,0.005,0.108-0.001S3.3,15.204,3.3,15.204s0.066-0.106,0.066-0.112c0-0.007-0.134,0-0.134,0
		S3.18,14.987,3.17,14.987s-0.053,0.099-0.062,0.104c-0.009,0.005-0.129-0.005-0.134,0c-0.004,0.004,0.067,0.112,0.067,0.112
		s-0.072,0.107-0.067,0.113c0.006,0.005,0.129-0.011,0.136-0.004s0.061,0.107,0.061,0.107S3.227,15.322,3.233,15.317"/>
	<path clip-path="url(#SVGID_4_)" fill="#B0E2F7" d="M3.178,14.982c-0.002,0.011-0.008,0.006-0.011,0.004
		c-0.003-0.001-0.007-0.018-0.007-0.029c0-0.013,0.005-0.026,0.014-0.026C3.188,14.931,3.18,14.972,3.178,14.982 M3.176,14.908
		c-0.015,0-0.027,0.006-0.028,0.019s-0.001,0.051,0.005,0.059s0.011,0.016,0.011,0.016s0.021,0.008,0.029-0.017
		c0.008-0.025,0.008-0.052,0.003-0.06S3.189,14.908,3.176,14.908"/>
	<path clip-path="url(#SVGID_4_)" fill="#B0E2F7" d="M8.411,8.768C8.413,8.767,8.423,8.77,8.436,8.77
		c0.036-0.001,0.096,0.004,0.102-0.002S8.475,8.662,8.475,8.662s0.062-0.101,0.062-0.106c0-0.007-0.126,0-0.126,0
		s-0.05-0.099-0.059-0.099s-0.05,0.094-0.059,0.099c-0.008,0.005-0.121-0.004-0.125,0s0.062,0.105,0.062,0.105
		S8.163,8.763,8.169,8.768c0.005,0.005,0.121-0.01,0.127-0.003c0.007,0.006,0.058,0.102,0.058,0.102S8.406,8.773,8.411,8.768"/>
	<path clip-path="url(#SVGID_4_)" fill="#B0E2F7" d="M8.359,8.452C8.358,8.463,8.353,8.458,8.35,8.457
		C8.347,8.455,8.343,8.44,8.343,8.429s0.005-0.025,0.013-0.025C8.369,8.403,8.361,8.442,8.359,8.452 M8.357,8.383
		c-0.014,0-0.026,0.006-0.026,0.018C8.33,8.412,8.33,8.448,8.336,8.456c0.005,0.007,0.01,0.015,0.01,0.015s0.02,0.007,0.027-0.017
		s0.008-0.048,0.003-0.056C8.372,8.391,8.371,8.383,8.357,8.383"/>
	<path clip-path="url(#SVGID_4_)" fill="#B0E2F7" d="M7.985,10.921c0.002-0.001,0.012,0.002,0.024,0.001
		c0.036,0,0.096,0.005,0.102-0.001s-0.063-0.106-0.063-0.106s0.063-0.1,0.063-0.106c0-0.006-0.127,0-0.127,0
		S7.936,10.61,7.927,10.61c-0.01,0-0.05,0.093-0.059,0.098s-0.122-0.004-0.126,0s0.063,0.106,0.063,0.106s-0.068,0.102-0.063,0.106
		s0.122-0.01,0.128-0.004c0.007,0.007,0.058,0.102,0.058,0.102S7.979,10.926,7.985,10.921"/>
	<path clip-path="url(#SVGID_4_)" fill="#B0E2F7" d="M7.934,10.605c-0.002,0.01-0.008,0.006-0.011,0.005
		c-0.003-0.002-0.006-0.018-0.006-0.029s0.005-0.024,0.013-0.024C7.942,10.557,7.936,10.596,7.934,10.605 M7.932,10.536
		c-0.014,0-0.026,0.006-0.026,0.018c-0.001,0.012-0.001,0.048,0.004,0.055c0.006,0.008,0.011,0.015,0.011,0.015
		s0.019,0.008,0.027-0.016c0.008-0.023,0.008-0.049,0.003-0.056C7.946,10.544,7.945,10.536,7.932,10.536"/>
	<path clip-path="url(#SVGID_4_)" fill="#B0E2F7" d="M4.51,8.529c0,0.175-0.143,0.309-0.317,0.309c-0.062,0-0.119-0.025-0.168-0.055
		C3.936,8.729,3.875,8.643,3.875,8.529c0-0.072,0.022-0.13,0.066-0.193C3.984,8.273,4.09,8.212,4.192,8.212
		c0.116,0,0.244,0.097,0.271,0.154S4.51,8.47,4.51,8.529"/>
	<path clip-path="url(#SVGID_4_)" fill="#B0E2F7" d="M4.176,8.109c0.014,0,0.022,0.023,0.022,0.044c0,0.021-0.006,0.049-0.012,0.051
		C4.182,8.207,4.171,8.215,4.168,8.197C4.165,8.179,4.151,8.109,4.176,8.109 M4.139,8.1C4.13,8.113,4.13,8.158,4.145,8.2
		c0.015,0.041,0.048,0.028,0.048,0.028s0.009-0.013,0.019-0.026c0.01-0.013,0.01-0.077,0.009-0.099S4.196,8.072,4.172,8.072
		C4.148,8.072,4.146,8.087,4.139,8.1"/>
	<path clip-path="url(#SVGID_4_)" fill="#B0E2F7" d="M7.974,8.427c0,0.152-0.124,0.27-0.275,0.27c-0.055,0-0.104-0.022-0.146-0.048
		c-0.078-0.047-0.13-0.123-0.13-0.222c0-0.062,0.02-0.113,0.057-0.168c0.038-0.054,0.13-0.107,0.22-0.107
		c0.101,0,0.212,0.084,0.235,0.134S7.974,8.376,7.974,8.427"/>
	<path clip-path="url(#SVGID_4_)" fill="#B0E2F7" d="M7.683,8.062c0.012,0,0.02,0.021,0.02,0.039c0,0.018-0.005,0.042-0.01,0.044
		C7.688,8.146,7.679,8.153,7.677,8.138C7.674,8.122,7.662,8.062,7.683,8.062 M7.65,8.054c-0.007,0.012-0.007,0.05,0.006,0.087
		c0.012,0.036,0.042,0.025,0.042,0.025s0.008-0.012,0.016-0.023c0.009-0.012,0.008-0.067,0.007-0.086
		c0-0.019-0.02-0.027-0.041-0.027C7.659,8.029,7.657,8.042,7.65,8.054"/>
	<path clip-path="url(#SVGID_4_)" fill="#B0E2F7" d="M7.742,7.734c0,0.146-0.119,0.26-0.267,0.26c-0.052,0-0.1-0.022-0.141-0.047
		C7.26,7.902,7.209,7.829,7.209,7.734c0-0.062,0.019-0.11,0.056-0.163C7.301,7.519,7.39,7.467,7.476,7.467
		c0.098,0,0.205,0.081,0.229,0.13C7.727,7.646,7.742,7.684,7.742,7.734"/>
	<path clip-path="url(#SVGID_4_)" fill="#B0E2F7" d="M7.462,7.381c0.011,0,0.019,0.02,0.019,0.037s-0.005,0.041-0.01,0.043
		C7.467,7.462,7.458,7.47,7.455,7.454C7.453,7.439,7.441,7.381,7.462,7.381 M7.431,7.373C7.424,7.384,7.424,7.421,7.436,7.457
		c0.012,0.035,0.04,0.023,0.04,0.023S7.483,7.47,7.492,7.459C7.5,7.447,7.499,7.394,7.498,7.376c0-0.019-0.02-0.026-0.039-0.026
		C7.438,7.35,7.437,7.361,7.431,7.373"/>
	<path clip-path="url(#SVGID_4_)" fill="#B0E2F7" d="M5.033,6.558C4.844,6.565,4.691,6.723,4.691,6.915
		c0,0.156,0.101,0.289,0.24,0.338l0.102-0.341V6.558z"/>
	<path clip-path="url(#SVGID_4_)" fill="#B0E2F7" d="M5.407,6.898C5.399,6.714,5.251,6.565,5.065,6.558v0.341H5.407z"/>
	<path clip-path="url(#SVGID_4_)" fill="#B0E2F7" d="M4.963,7.262C4.99,7.27,5.02,7.272,5.05,7.272c0.192,0,0.349-0.151,0.357-0.342
		H5.062L4.963,7.262z"/>
	<path clip-path="url(#SVGID_4_)" fill="#B0E2F7" d="M5.857,9.253C5.74,9.258,5.646,9.354,5.646,9.474
		c0,0.097,0.062,0.179,0.148,0.208l0.062-0.21V9.253z"/>
	<path clip-path="url(#SVGID_4_)" fill="#B0E2F7" d="M6.088,9.464C6.083,9.35,5.991,9.258,5.878,9.253v0.211H6.088z"/>
	<path clip-path="url(#SVGID_4_)" fill="#B0E2F7" d="M5.814,9.688C5.831,9.692,5.85,9.694,5.867,9.694
		c0.119,0,0.216-0.094,0.221-0.211H5.875L5.814,9.688z"/>
	<path clip-path="url(#SVGID_4_)" fill="#B0E2F7" d="M5.102,12.437c-0.149,0.006-0.269,0.129-0.269,0.28
		c0,0.122,0.079,0.227,0.188,0.265l0.08-0.267V12.437z"/>
	<path clip-path="url(#SVGID_4_)" fill="#B0E2F7" d="M5.395,12.704c-0.007-0.146-0.123-0.262-0.268-0.268v0.268H5.395z"/>
	<path clip-path="url(#SVGID_4_)" fill="#B0E2F7" d="M5.046,12.988c0.021,0.006,0.045,0.009,0.068,0.009
		c0.15,0,0.273-0.119,0.28-0.268H5.123L5.046,12.988z"/>
	<path clip-path="url(#SVGID_4_)" fill="#B0E2F7" d="M8.164,20.763c-0.34,0.015-0.61,0.295-0.61,0.639
		c0,0.278,0.179,0.516,0.429,0.603l0.182-0.607V20.763z"/>
	<path clip-path="url(#SVGID_4_)" fill="#B0E2F7" d="M8.831,21.372c-0.015-0.33-0.279-0.595-0.609-0.609v0.609H8.831z"/>
	<path clip-path="url(#SVGID_4_)" fill="#B0E2F7" d="M8.037,22.021c0.05,0.013,0.102,0.02,0.155,0.02
		c0.344,0,0.623-0.271,0.639-0.61H8.214L8.037,22.021z"/>
	<path clip-path="url(#SVGID_4_)" fill="#B0E2F7" d="M8.652,14.592c-0.148,0.006-0.268,0.129-0.268,0.28
		c0,0.122,0.078,0.227,0.188,0.265l0.079-0.267V14.592z"/>
	<path clip-path="url(#SVGID_4_)" fill="#B0E2F7" d="M8.945,14.859c-0.006-0.146-0.122-0.262-0.268-0.268v0.268H8.945z"/>
	<path clip-path="url(#SVGID_4_)" fill="#B0E2F7" d="M8.597,15.145c0.022,0.005,0.045,0.008,0.068,0.008
		c0.151,0,0.274-0.119,0.28-0.268H8.675L8.597,15.145z"/>
	<path clip-path="url(#SVGID_4_)" fill="#B0E2F7" d="M7.004,16.73c-0.221,0.01-0.397,0.192-0.397,0.416
		c0,0.182,0.117,0.336,0.279,0.393l0.118-0.396V16.73z"/>
	<path clip-path="url(#SVGID_4_)" fill="#B0E2F7" d="M7.438,17.128c-0.01-0.215-0.182-0.388-0.396-0.397v0.397H7.438z"/>
	<path clip-path="url(#SVGID_4_)" fill="#B0E2F7" d="M6.922,17.55c0.032,0.008,0.066,0.013,0.102,0.013
		c0.223,0,0.405-0.177,0.415-0.397H7.037L6.922,17.55z"/>
	<path clip-path="url(#SVGID_4_)" fill="#B0E2F7" d="M9.292,18.61c-0.121,0.006-0.218,0.105-0.218,0.229
		c0,0.1,0.064,0.185,0.153,0.215l0.064-0.217V18.61z"/>
	<path clip-path="url(#SVGID_4_)" fill="#B0E2F7" d="M9.53,18.828c-0.005-0.117-0.1-0.212-0.218-0.218v0.218H9.53z"/>
	<path clip-path="url(#SVGID_4_)" fill="#B0E2F7" d="M9.247,19.061c0.018,0.004,0.036,0.006,0.056,0.006
		c0.123,0,0.223-0.097,0.228-0.218h-0.22L9.247,19.061z"/>
	<path clip-path="url(#SVGID_4_)" fill="#B0E2F7" d="M5.522,20.885c-0.148,0.007-0.267,0.129-0.267,0.278
		c0,0.122,0.078,0.226,0.188,0.264l0.079-0.265V20.885z"/>
	<path clip-path="url(#SVGID_4_)" fill="#B0E2F7" d="M5.813,21.151c-0.006-0.145-0.122-0.26-0.266-0.267v0.267H5.813z"/>
	<path clip-path="url(#SVGID_4_)" fill="#B0E2F7" d="M5.467,21.435c0.022,0.005,0.045,0.008,0.068,0.008
		c0.149,0,0.271-0.118,0.278-0.267h-0.27L5.467,21.435z"/>
	<path clip-path="url(#SVGID_4_)" fill="#B0E2F7" d="M3.694,22.851c-0.148,0.007-0.267,0.129-0.267,0.279
		c0,0.121,0.078,0.225,0.188,0.263l0.079-0.265V22.851z"/>
	<path clip-path="url(#SVGID_4_)" fill="#B0E2F7" d="M3.985,23.117c-0.007-0.145-0.122-0.26-0.267-0.267v0.267H3.985z"/>
	<path clip-path="url(#SVGID_4_)" fill="#B0E2F7" d="M3.639,23.4c0.021,0.005,0.045,0.008,0.068,0.008
		c0.149,0,0.271-0.118,0.278-0.267h-0.27L3.639,23.4z"/>
	<path clip-path="url(#SVGID_4_)" fill="#B0E2F7" d="M6.057,14.945c-0.149,0.006-0.269,0.129-0.269,0.28
		c0,0.122,0.079,0.227,0.188,0.265l0.08-0.267V14.945z"/>
	<path clip-path="url(#SVGID_4_)" fill="#B0E2F7" d="M6.35,15.213c-0.007-0.146-0.123-0.262-0.268-0.268v0.268H6.35z"/>
	<path clip-path="url(#SVGID_4_)" fill="#B0E2F7" d="M6.001,15.497c0.021,0.006,0.045,0.009,0.068,0.009
		c0.15,0,0.273-0.119,0.28-0.268H6.078L6.001,15.497z"/>
	<path clip-path="url(#SVGID_4_)" fill="#B0E2F7" d="M2.496,19.369C2.192,19.383,1.95,19.634,1.95,19.94
		c0,0.249,0.16,0.462,0.384,0.539l0.162-0.543V19.369z"/>
	<path clip-path="url(#SVGID_4_)" fill="#B0E2F7" d="M3.092,19.915c-0.013-0.296-0.249-0.532-0.545-0.546v0.546H3.092z"/>
	<path clip-path="url(#SVGID_4_)" fill="#B0E2F7" d="M2.383,20.494c0.045,0.012,0.091,0.018,0.139,0.018
		c0.307,0,0.558-0.242,0.57-0.546H2.541L2.383,20.494z"/>
	<path clip-path="url(#SVGID_4_)" fill="#B0E2F7" d="M6.487,7.333h0.861V6.79H6.487V7.333z M7.288,7.272H6.549V6.85h0.739V7.272z"/>
	<polygon clip-path="url(#SVGID_4_)" fill="#B0E2F7" points="7.021,7.424 6.814,7.424 6.878,7.311 6.958,7.311 	"/>
	<path clip-path="url(#SVGID_4_)" fill="#B0E2F7" d="M7.885,20.421h1.589v-1.002H7.885V20.421z M9.362,20.311H7.997v-0.781h1.365
		V20.311z"/>
	<polygon clip-path="url(#SVGID_4_)" fill="#B0E2F7" points="8.87,20.59 8.489,20.59 8.605,20.381 8.753,20.381 	"/>
	<path clip-path="url(#SVGID_4_)" fill="#B0E2F7" d="M2.043,23.653h1.078v-0.681H2.043V23.653z M3.045,23.578H2.119v-0.53h0.926
		V23.578z"/>
	<polygon clip-path="url(#SVGID_4_)" fill="#B0E2F7" points="2.711,23.768 2.452,23.768 2.531,23.626 2.632,23.626 	"/>
	<path clip-path="url(#SVGID_4_)" fill="#B0E2F7" d="M6.21,9.497h0.769V9.013H6.21V9.497z M6.925,9.444h-0.66V9.066h0.66V9.444z"/>
	<polygon clip-path="url(#SVGID_4_)" fill="#B0E2F7" points="6.687,9.579 6.502,9.579 6.559,9.479 6.63,9.479 	"/>
	<path clip-path="url(#SVGID_4_)" fill="#B0E2F7" d="M8.503,16.403h1.05V15.74h-1.05V16.403z M9.479,16.33H8.577v-0.517h0.901V16.33
		z"/>
	<polygon clip-path="url(#SVGID_4_)" fill="#B0E2F7" points="9.154,16.515 8.901,16.515 8.979,16.377 9.077,16.377 	"/>
	<path clip-path="url(#SVGID_4_)" fill="#B0E2F7" d="M6.646,11.446h0.415v-0.262H6.646V11.446z M7.031,11.417H6.675v-0.204h0.356
		V11.417z"/>
	<polygon clip-path="url(#SVGID_4_)" fill="#B0E2F7" points="6.902,11.49 6.803,11.49 6.833,11.436 6.872,11.436 	"/>
	<path clip-path="url(#SVGID_4_)" fill="#B0E2F7" d="M5.222,4.178H5.055c-0.025,0-0.047-0.021-0.047-0.047V3.673
		c0-0.025,0.021-0.047,0.047-0.047h0.167c0.026,0,0.047,0.021,0.047,0.047v0.458C5.269,4.157,5.248,4.178,5.222,4.178 M5.254,3.7
		h-0.23v0.403h0.23V3.7z M5.139,4.111c-0.015,0-0.026,0.012-0.026,0.026c0,0.014,0.012,0.025,0.026,0.025s0.025-0.012,0.025-0.025
		C5.164,4.123,5.153,4.111,5.139,4.111 M5.162,3.675L5.162,3.675c0-0.004-0.002-0.007-0.006-0.007H5.121
		c-0.003,0-0.006,0.003-0.006,0.006v0.001c0,0.003,0.003,0.006,0.006,0.006h0.035C5.16,3.681,5.162,3.678,5.162,3.675 M5.139,3.646
		c-0.004,0-0.008,0.004-0.008,0.008S5.135,3.66,5.139,3.66s0.007-0.003,0.007-0.007S5.143,3.646,5.139,3.646"/>
	<path clip-path="url(#SVGID_4_)" fill="#B0E2F7" d="M5.231,8.264H5.011c-0.035,0-0.063-0.028-0.063-0.062V7.593
		c0-0.035,0.028-0.063,0.063-0.063h0.221c0.035,0,0.063,0.028,0.063,0.063v0.608C5.295,8.235,5.267,8.264,5.231,8.264 M5.274,7.629
		H4.968v0.536h0.307V7.629z M5.121,8.176c-0.019,0-0.034,0.015-0.034,0.034c0,0.019,0.016,0.034,0.034,0.034
		c0.02,0,0.034-0.016,0.034-0.034C5.155,8.19,5.141,8.176,5.121,8.176 M5.152,7.595L5.152,7.595c0-0.006-0.003-0.009-0.008-0.009
		H5.098c-0.004,0-0.007,0.003-0.007,0.008v0.001c0,0.004,0.003,0.008,0.007,0.008h0.047C5.149,7.603,5.152,7.599,5.152,7.595
		 M5.121,7.556c-0.005,0-0.01,0.005-0.01,0.01c0,0.006,0.005,0.01,0.01,0.01s0.01-0.004,0.01-0.01
		C5.131,7.561,5.126,7.556,5.121,7.556"/>
	<path clip-path="url(#SVGID_4_)" fill="#B0E2F7" d="M4.389,10.816H4.233c-0.024,0-0.044-0.02-0.044-0.044v-0.427
		c0-0.023,0.02-0.044,0.044-0.044h0.155c0.024,0,0.044,0.021,0.044,0.044v0.427C4.433,10.797,4.413,10.816,4.389,10.816
		 M4.419,10.372H4.204v0.375h0.215V10.372z M4.312,10.755c-0.014,0-0.024,0.011-0.024,0.024c0,0.013,0.011,0.023,0.024,0.023
		c0.013,0,0.023-0.011,0.023-0.023C4.335,10.766,4.324,10.755,4.312,10.755 M4.333,10.348L4.333,10.348
		c0-0.004-0.002-0.006-0.005-0.006H4.295c-0.003,0-0.005,0.002-0.005,0.005v0.001c0,0.003,0.002,0.005,0.005,0.005h0.033
		C4.331,10.353,4.333,10.351,4.333,10.348 M4.312,10.32c-0.004,0-0.007,0.003-0.007,0.007s0.003,0.007,0.007,0.007
		c0.003,0,0.007-0.003,0.007-0.007S4.314,10.32,4.312,10.32"/>
	<path clip-path="url(#SVGID_4_)" fill="#B0E2F7" d="M6.967,6.667H6.82c-0.022,0-0.041-0.019-0.041-0.041v-0.4
		c0-0.023,0.019-0.042,0.041-0.042h0.146c0.022,0,0.041,0.019,0.041,0.042v0.4C7.008,6.648,6.989,6.667,6.967,6.667 M6.994,6.249
		H6.793v0.354h0.201V6.249z M6.894,6.609c-0.013,0-0.022,0.01-0.022,0.022s0.01,0.022,0.022,0.022s0.022-0.01,0.022-0.022
		S6.906,6.609,6.894,6.609 M6.914,6.227L6.914,6.227c0-0.004-0.002-0.006-0.005-0.006h-0.03c-0.003,0-0.006,0.002-0.006,0.005v0.001
		c0,0.003,0.003,0.005,0.006,0.005h0.03C6.912,6.231,6.914,6.229,6.914,6.227 M6.894,6.201c-0.004,0-0.006,0.003-0.006,0.007
		c0,0.003,0.002,0.006,0.006,0.006c0.003,0,0.006-0.003,0.006-0.006C6.899,6.204,6.896,6.201,6.894,6.201"/>
	<path clip-path="url(#SVGID_4_)" fill="#B0E2F7" d="M4.509,12.805H4.236c-0.043,0-0.077-0.034-0.077-0.077v-0.748
		c0-0.042,0.034-0.077,0.077-0.077h0.272c0.042,0,0.077,0.035,0.077,0.077v0.748C4.586,12.771,4.551,12.805,4.509,12.805
		 M4.561,12.024H4.184v0.659h0.377V12.024z M4.372,12.696c-0.023,0-0.042,0.019-0.042,0.042s0.019,0.042,0.042,0.042
		s0.043-0.019,0.043-0.042S4.396,12.696,4.372,12.696 M4.411,11.982L4.411,11.982c0-0.007-0.004-0.011-0.01-0.011H4.344
		c-0.005,0-0.009,0.004-0.009,0.01v0.001c0,0.005,0.004,0.01,0.009,0.01h0.058C4.407,11.992,4.411,11.987,4.411,11.982
		 M4.372,11.936c-0.006,0-0.012,0.005-0.012,0.012c0,0.006,0.006,0.012,0.012,0.012c0.007,0,0.012-0.006,0.012-0.012
		C4.384,11.94,4.379,11.936,4.372,11.936"/>
	<path clip-path="url(#SVGID_4_)" fill="#B0E2F7" d="M4.173,18.171H3.781c-0.062,0-0.111-0.051-0.111-0.111v-1.076
		c0-0.061,0.05-0.111,0.111-0.111h0.392c0.062,0,0.111,0.051,0.111,0.111v1.076C4.284,18.12,4.234,18.171,4.173,18.171
		 M4.248,17.048H3.706v0.947h0.542V17.048z M3.978,18.014c-0.034,0-0.062,0.027-0.062,0.061c0,0.034,0.027,0.062,0.062,0.062
		c0.033,0,0.061-0.027,0.061-0.062C4.038,18.041,4.011,18.014,3.978,18.014 M4.033,16.987v-0.002c0-0.008-0.006-0.014-0.014-0.014
		H3.937c-0.008,0-0.014,0.006-0.014,0.014v0.002c0,0.007,0.006,0.014,0.014,0.014H4.02C4.027,17.001,4.033,16.994,4.033,16.987
		 M3.977,16.919c-0.009,0-0.017,0.008-0.017,0.017c0,0.01,0.008,0.018,0.017,0.018c0.01,0,0.018-0.008,0.018-0.018
		C3.994,16.927,3.986,16.919,3.977,16.919"/>
	<path clip-path="url(#SVGID_4_)" fill="#B0E2F7" d="M8.131,17.623H7.794c-0.053,0-0.096-0.044-0.096-0.097V16.6
		c0-0.053,0.043-0.096,0.096-0.096h0.337c0.053,0,0.096,0.043,0.096,0.096v0.927C8.227,17.579,8.184,17.623,8.131,17.623
		 M8.196,16.655H7.729v0.816h0.467V16.655z M7.963,17.487c-0.029,0-0.053,0.023-0.053,0.053c0,0.028,0.023,0.053,0.053,0.053
		s0.053-0.024,0.053-0.053C8.016,17.511,7.992,17.487,7.963,17.487 M8.011,16.603L8.011,16.603c0-0.008-0.005-0.014-0.012-0.014
		H7.928c-0.007,0-0.012,0.006-0.012,0.013v0.001c0,0.007,0.005,0.012,0.012,0.012h0.071C8.006,16.614,8.011,16.609,8.011,16.603
		 M7.963,16.544c-0.009,0-0.015,0.007-0.015,0.015s0.006,0.015,0.015,0.015c0.008,0,0.015-0.007,0.015-0.015
		S7.971,16.544,7.963,16.544"/>
	<path clip-path="url(#SVGID_4_)" fill="#B0E2F7" d="M4.889,20.329H4.34c-0.085,0-0.155-0.07-0.155-0.156v-1.506
		c0-0.086,0.07-0.156,0.155-0.156h0.549c0.085,0,0.155,0.07,0.155,0.156v1.506C5.044,20.259,4.974,20.329,4.889,20.329
		 M4.994,18.757H4.235v1.326h0.759V18.757z M4.614,20.109c-0.047,0-0.085,0.038-0.085,0.085s0.038,0.085,0.085,0.085
		s0.085-0.038,0.085-0.085S4.661,20.109,4.614,20.109 M4.692,18.672v-0.003c0-0.011-0.009-0.02-0.019-0.02H4.558
		c-0.011,0-0.02,0.009-0.02,0.02v0.003c0,0.01,0.009,0.019,0.02,0.019h0.116C4.684,18.69,4.692,18.682,4.692,18.672 M4.614,18.577
		c-0.014,0-0.023,0.01-0.023,0.023c0,0.013,0.01,0.023,0.023,0.023c0.013,0,0.023-0.011,0.023-0.023
		C4.638,18.587,4.627,18.577,4.614,18.577"/>
	<path clip-path="url(#SVGID_4_)" fill="#B0E2F7" d="M7.312,20.409H6.976c-0.053,0-0.096-0.043-0.096-0.096v-0.926
		c0-0.053,0.043-0.096,0.096-0.096h0.337c0.053,0,0.096,0.043,0.096,0.096v0.926C7.408,20.366,7.365,20.409,7.312,20.409
		 M7.378,19.442H6.911v0.816h0.467V19.442z M7.145,20.274c-0.029,0-0.053,0.023-0.053,0.053c0,0.028,0.023,0.052,0.053,0.052
		c0.028,0,0.052-0.023,0.052-0.052C7.196,20.298,7.173,20.274,7.145,20.274 M7.192,19.391v-0.002c0-0.006-0.006-0.012-0.012-0.012
		H7.109c-0.007,0-0.012,0.006-0.012,0.012v0.002c0,0.007,0.005,0.012,0.012,0.012h0.071C7.187,19.402,7.192,19.397,7.192,19.391
		 M7.145,19.332c-0.009,0-0.015,0.007-0.015,0.015s0.006,0.015,0.015,0.015c0.008,0,0.014-0.007,0.014-0.015
		S7.152,19.332,7.145,19.332"/>
	<path clip-path="url(#SVGID_4_)" fill="#B0E2F7" d="M2.685,16.395H2.473c-0.033,0-0.061-0.027-0.061-0.061V15.75
		c0-0.033,0.027-0.061,0.061-0.061h0.212c0.033,0,0.061,0.027,0.061,0.061v0.584C2.745,16.367,2.718,16.395,2.685,16.395
		 M2.726,15.785H2.432v0.514h0.294V15.785z M2.579,16.309c-0.019,0-0.033,0.016-0.033,0.033c0,0.019,0.015,0.033,0.033,0.033
		c0.018,0,0.032-0.015,0.032-0.033C2.611,16.324,2.597,16.309,2.579,16.309 M2.609,15.752L2.609,15.752
		c0-0.005-0.004-0.009-0.008-0.009H2.557c-0.004,0-0.008,0.004-0.008,0.008v0.001c0,0.004,0.004,0.007,0.008,0.007h0.045
		C2.605,15.759,2.609,15.756,2.609,15.752 M2.578,15.715c-0.005,0-0.009,0.004-0.009,0.01c0,0.005,0.004,0.009,0.009,0.009
		c0.006,0,0.01-0.004,0.01-0.009C2.588,15.719,2.584,15.715,2.578,15.715"/>
</g>
<g>
	<defs>
		<rect id="SVGID_5_" x="-3.737" y="-6.578" width="23.475" height="34.823"/>
	</defs>
	<clipPath id="SVGID_6_">
		<use xlink:href="#SVGID_5_"  overflow="visible"/>
	</clipPath>
	<path clip-path="url(#SVGID_6_)" fill="#B0E2F7" d="M6.7,0.65C6.7,1.009,6.408,1.3,6.05,1.3c-0.359,0-0.65-0.291-0.65-0.649
		C5.399,0.291,5.69,0,6.05,0C6.408,0,6.7,0.291,6.7,0.65"/>
	<path clip-path="url(#SVGID_6_)" fill="#B0E2F7" d="M6.673,6.189c0,0.358-0.291,0.649-0.65,0.649c-0.358,0-0.649-0.291-0.649-0.649
		c0-0.359,0.291-0.65,0.649-0.65C6.382,5.539,6.673,5.83,6.673,6.189"/>
	<path clip-path="url(#SVGID_6_)" fill="#B0E2F7" d="M6.674,3.759c0,0.359-0.291,0.65-0.649,0.65c-0.359,0-0.65-0.291-0.65-0.65
		c0-0.358,0.291-0.649,0.65-0.649C6.383,3.109,6.674,3.4,6.674,3.759"/>
	<path clip-path="url(#SVGID_6_)" fill="#B0E2F7" d="M7.651,10.416c0,0.359-0.291,0.65-0.65,0.65s-0.65-0.291-0.65-0.65
		s0.291-0.65,0.65-0.65S7.651,10.057,7.651,10.416"/>
	<path clip-path="url(#SVGID_6_)" fill="#B0E2F7" d="M5.73,11.333c0,0.359-0.291,0.65-0.65,0.65s-0.65-0.291-0.65-0.65
		c0-0.358,0.291-0.649,0.65-0.649S5.73,10.975,5.73,11.333"/>
	<path clip-path="url(#SVGID_6_)" fill="#B0E2F7" d="M7.47,12.234c0,0.358-0.291,0.649-0.65,0.649s-0.65-0.291-0.65-0.649
		c0-0.359,0.291-0.65,0.65-0.65S7.47,11.875,7.47,12.234"/>
	<path clip-path="url(#SVGID_6_)" fill="#B0E2F7" d="M6.673,14.12c0,0.359-0.291,0.65-0.65,0.65c-0.358,0-0.649-0.291-0.649-0.65
		s0.291-0.65,0.649-0.65C6.382,13.47,6.673,13.761,6.673,14.12"/>
	<path clip-path="url(#SVGID_6_)" fill="#B0E2F7" d="M7.651,15.84c0,0.358-0.291,0.649-0.65,0.649s-0.65-0.291-0.65-0.649
		c0-0.359,0.291-0.65,0.65-0.65S7.651,15.48,7.651,15.84"/>
	<path clip-path="url(#SVGID_6_)" fill="#B0E2F7" d="M5.76,17.461c0,0.359-0.291,0.65-0.65,0.65s-0.65-0.291-0.65-0.65
		c0-0.358,0.291-0.649,0.65-0.649S5.76,17.103,5.76,17.461"/>
	<path clip-path="url(#SVGID_6_)" fill="#B0E2F7" d="M7.651,18.438c0,0.358-0.291,0.649-0.65,0.649s-0.65-0.291-0.65-0.649
		c0-0.359,0.291-0.65,0.65-0.65S7.651,18.079,7.651,18.438"/>
	<path clip-path="url(#SVGID_6_)" fill="#B0E2F7" d="M6.673,20.154c0,0.359-0.291,0.65-0.65,0.65c-0.358,0-0.649-0.291-0.649-0.65
		s0.291-0.65,0.649-0.65C6.382,19.504,6.673,19.795,6.673,20.154"/>
	<path clip-path="url(#SVGID_6_)" fill="#67A4D9" d="M6.7,0.65C6.7,1.009,6.408,1.3,6.05,1.3c-0.359,0-0.65-0.291-0.65-0.649
		C5.399,0.291,5.69,0,6.05,0C6.408,0,6.7,0.291,6.7,0.65"/>
	<path clip-path="url(#SVGID_6_)" fill="#FFFFFF" d="M6.612,0.656c0,0.313-0.254,0.567-0.567,0.567
		c-0.312,0-0.567-0.254-0.567-0.567s0.255-0.567,0.567-0.567C6.358,0.089,6.612,0.343,6.612,0.656"/>
	<polygon clip-path="url(#SVGID_6_)" fill="#F5C64B" points="6.05,0.242 6.145,0.533 6.449,0.533 6.202,0.713 6.297,1.004 
		6.05,0.824 5.803,1.004 5.896,0.713 5.649,0.533 5.955,0.533 	"/>
</g>
<g>
	<defs>
		<rect id="SVGID_7_" x="-3.737" y="-6.578" width="23.475" height="34.823"/>
	</defs>
	<clipPath id="SVGID_8_">
		<use xlink:href="#SVGID_7_"  overflow="visible"/>
	</clipPath>
	<g clip-path="url(#SVGID_8_)">
		<g>
			<defs>
				<rect id="SVGID_9_" x="5.457" y="3.192" width="1.135" height="1.134"/>
			</defs>
			<clipPath id="SVGID_10_">
				<use xlink:href="#SVGID_9_"  overflow="visible"/>
			</clipPath>
			<path clip-path="url(#SVGID_10_)" fill="#B0E2F7" d="M6.592,3.759c0,0.313-0.255,0.567-0.567,0.567
				c-0.313,0-0.567-0.254-0.567-0.567c0-0.312,0.254-0.567,0.567-0.567C6.337,3.191,6.592,3.446,6.592,3.759"/>
		</g>
	</g>
</g>
</svg>
