<?xml version="1.0" encoding="utf-8"?>
<!-- Generator: Adobe Illustrator 16.0.0, SVG Export Plug-In . SVG Version: 6.00 Build 0)  -->
<!DOCTYPE svg PUBLIC "-//W3C//DTD SVG 1.1//EN" "http://www.w3.org/Graphics/SVG/1.1/DTD/svg11.dtd">
<svg version="1.1" id="Layer_1" xmlns="http://www.w3.org/2000/svg" xmlns:xlink="http://www.w3.org/1999/xlink" x="0px" y="0px"
	 width="12.812px" height="1.469px" viewBox="0 0 12.812 1.469" enable-background="new 0 0 12.812 1.469" xml:space="preserve">
<g>
	<defs>
		<rect id="SVGID_1_" x="-34.009" y="-130.454" width="97.81" height="145.096"/>
	</defs>
	<clipPath id="SVGID_2_">
		<use xlink:href="#SVGID_1_"  overflow="visible"/>
	</clipPath>
	<path clip-path="url(#SVGID_2_)" fill="#4C8ECC" d="M4.985,1.016C5.11,1.043,5.168,1.09,5.24,1.108
		c0.125,0.032,0.197-0.055,0.197-0.055C5.348,0.853,5.249,0.935,5.249,0.935C5.187,1,4.985,1.016,4.985,1.016"/>
	<path clip-path="url(#SVGID_2_)" fill="#231F20" d="M6.734,0.729c-0.021,0-0.038,0.001-0.053,0.004
		c-0.016,0.004-0.028,0.008-0.04,0.013S6.619,0.757,6.607,0.763c-0.01,0.006-0.021,0.013-0.031,0.02L6.5,1.182H6.353l0.104-0.55
		h0.139L6.578,0.711C6.6,0.693,6.618,0.678,6.636,0.665c0.019-0.013,0.036-0.022,0.054-0.029C6.706,0.63,6.723,0.626,6.74,0.624
		s0.034-0.003,0.05-0.003c0.009,0,0.018,0.001,0.025,0.001c0.007,0,0.015,0,0.02,0L6.814,0.73L6.734,0.729z"/>
	<path clip-path="url(#SVGID_2_)" fill="#231F20" d="M7.398,0.906c0.006-0.034,0.01-0.062,0.01-0.086c0-0.021-0.004-0.04-0.01-0.056
		C7.392,0.749,7.381,0.737,7.367,0.728S7.334,0.711,7.311,0.706C7.287,0.702,7.258,0.7,7.223,0.7c-0.043,0-0.08,0.003-0.109,0.011
		C7.084,0.718,7.061,0.73,7.041,0.746C7.023,0.763,7.009,0.784,6.998,0.811c-0.01,0.026-0.02,0.058-0.025,0.096
		C6.969,0.923,6.966,0.938,6.965,0.953c-0.002,0.015-0.003,0.028-0.003,0.04c0,0.021,0.003,0.04,0.009,0.055
		s0.018,0.027,0.031,0.037c0.014,0.009,0.033,0.016,0.057,0.021s0.053,0.007,0.087,0.007c0.045,0,0.082-0.004,0.11-0.011
		c0.029-0.008,0.053-0.02,0.072-0.036c0.019-0.017,0.033-0.037,0.044-0.063S7.391,0.943,7.398,0.906 M7.557,0.906
		c-0.003,0.014-0.006,0.03-0.01,0.049s-0.011,0.039-0.02,0.059C7.519,1.034,7.507,1.055,7.491,1.074
		C7.477,1.094,7.455,1.112,7.43,1.129c-0.031,0.021-0.071,0.037-0.119,0.05C7.263,1.19,7.203,1.197,7.13,1.197
		c-0.078,0-0.14-0.007-0.184-0.022C6.901,1.16,6.868,1.142,6.846,1.119C6.828,1.102,6.816,1.082,6.812,1.062
		C6.806,1.042,6.803,1.021,6.803,1.001c0-0.018,0.001-0.035,0.004-0.052c0.002-0.016,0.006-0.03,0.008-0.043
		c0.003-0.015,0.007-0.032,0.012-0.053C6.83,0.833,6.838,0.812,6.848,0.79s0.025-0.043,0.043-0.064
		C6.909,0.705,6.935,0.687,6.966,0.67c0.03-0.017,0.068-0.029,0.112-0.04c0.045-0.01,0.1-0.015,0.163-0.015
		c0.038,0,0.072,0.002,0.103,0.006S7.4,0.63,7.423,0.637c0.023,0.007,0.043,0.016,0.06,0.024c0.016,0.009,0.029,0.02,0.04,0.03
		c0.019,0.019,0.03,0.038,0.037,0.06c0.006,0.021,0.009,0.042,0.009,0.062c0,0.019-0.001,0.036-0.004,0.052
		C7.562,0.88,7.559,0.895,7.557,0.906"/>
	<path clip-path="url(#SVGID_2_)" fill="#231F20" d="M8.293,0.726c-0.005,0-0.016-0.002-0.032-0.004S8.225,0.718,8.203,0.716
		C8.181,0.714,8.158,0.712,8.133,0.71C8.109,0.708,8.086,0.707,8.064,0.707c-0.052,0-0.094,0.004-0.126,0.013
		C7.906,0.728,7.881,0.74,7.861,0.757S7.828,0.793,7.818,0.817C7.81,0.841,7.802,0.868,7.797,0.897l-0.01,0.047
		C7.784,0.959,7.783,0.973,7.783,0.986c0,0.042,0.016,0.071,0.049,0.089s0.087,0.026,0.162,0.026c0.02,0,0.041,0,0.062-0.002
		c0.022-0.001,0.045-0.003,0.066-0.005c0.021-0.001,0.041-0.004,0.059-0.006s0.033-0.004,0.044-0.005L8.21,1.17
		C8.204,1.171,8.191,1.172,8.173,1.175C8.153,1.177,8.131,1.18,8.105,1.183C8.081,1.186,8.055,1.188,8.025,1.19
		C7.998,1.192,7.972,1.193,7.947,1.193c-0.059,0-0.109-0.005-0.149-0.015C7.757,1.17,7.724,1.157,7.698,1.14
		C7.673,1.123,7.654,1.103,7.643,1.078C7.631,1.055,7.625,1.027,7.625,0.997c0-0.009,0-0.018,0.001-0.027
		C7.627,0.961,7.629,0.951,7.63,0.941L7.644,0.87c0.002-0.011,0.005-0.025,0.01-0.042c0.005-0.018,0.012-0.035,0.022-0.054
		c0.01-0.02,0.023-0.038,0.041-0.057s0.04-0.036,0.068-0.051s0.062-0.026,0.103-0.036c0.04-0.009,0.089-0.014,0.144-0.014
		c0.032,0,0.062,0.001,0.094,0.004C8.156,0.623,8.184,0.626,8.21,0.629c0.025,0.003,0.048,0.005,0.065,0.009
		c0.017,0.003,0.028,0.005,0.033,0.006L8.293,0.726z"/>
	<polygon clip-path="url(#SVGID_2_)" fill="#231F20" points="8.793,1.182 8.537,0.906 8.514,0.906 8.463,1.182 8.311,1.182 
		8.46,0.39 8.611,0.39 8.524,0.854 8.547,0.854 8.889,0.632 9.086,0.632 8.697,0.868 9.004,1.182 	"/>
	<path clip-path="url(#SVGID_2_)" fill="#231F20" d="M9.599,0.87C9.6,0.868,9.6,0.865,9.601,0.86s0.002-0.01,0.003-0.015
		C9.605,0.84,9.605,0.834,9.607,0.827c0.002-0.012,0.002-0.021,0.002-0.031c0-0.037-0.014-0.063-0.042-0.079S9.496,0.693,9.44,0.692
		c-0.066,0-0.117,0.012-0.153,0.035s-0.06,0.065-0.072,0.124L9.211,0.87H9.599z M9.754,0.87C9.752,0.881,9.749,0.891,9.746,0.9
		C9.744,0.91,9.742,0.918,9.74,0.926C9.737,0.935,9.734,0.942,9.733,0.951H9.196L9.195,0.957C9.194,0.965,9.193,0.972,9.192,0.979
		s-0.001,0.014-0.001,0.02c0,0.028,0.006,0.05,0.018,0.065S9.236,1.09,9.257,1.097c0.02,0.006,0.042,0.01,0.068,0.011
		s0.052,0.002,0.079,0.002c0.029,0,0.057-0.001,0.084-0.002c0.026-0.002,0.051-0.003,0.073-0.005s0.04-0.004,0.056-0.006
		s0.025-0.002,0.031-0.003L9.633,1.179c-0.006,0-0.017,0.002-0.032,0.004C9.584,1.185,9.565,1.187,9.543,1.189
		C9.521,1.191,9.496,1.193,9.469,1.195c-0.026,0.002-0.053,0.003-0.08,0.003c-0.062,0-0.117-0.004-0.162-0.011
		c-0.045-0.008-0.08-0.02-0.108-0.035C9.09,1.136,9.069,1.116,9.057,1.091c-0.014-0.023-0.02-0.054-0.02-0.089
		c0-0.012,0.001-0.024,0.002-0.037c0.002-0.014,0.004-0.027,0.007-0.042l0.009-0.054C9.062,0.833,9.074,0.8,9.094,0.769
		c0.018-0.03,0.043-0.057,0.075-0.08c0.032-0.022,0.071-0.04,0.118-0.053S9.39,0.617,9.453,0.617c0.055,0,0.102,0.004,0.141,0.012
		s0.07,0.021,0.095,0.036S9.73,0.7,9.742,0.724S9.76,0.774,9.76,0.806C9.76,0.826,9.758,0.848,9.754,0.87"/>
	<path clip-path="url(#SVGID_2_)" fill="#231F20" d="M9.879,0.632L9.907,0.48l0.156-0.052l-0.039,0.203h0.169l-0.016,0.084h-0.169
		L9.948,1.037C9.947,1.044,9.945,1.052,9.945,1.06c-0.002,0.008,0,0.015,0.003,0.021c0.003,0.006,0.007,0.01,0.015,0.014
		C9.969,1.098,9.979,1.1,9.992,1.1h0.111l-0.016,0.082H9.924c-0.049,0-0.082-0.008-0.1-0.021C9.807,1.146,9.797,1.124,9.797,1.096
		c0-0.011,0.002-0.022,0.004-0.035C9.802,1.048,9.805,1.034,9.807,1.02l0.057-0.304L9.879,0.632z"/>
	<path clip-path="url(#SVGID_2_)" fill="#4C8ECC" d="M10.34,0.632l0.014-0.072c0.006-0.031,0.014-0.058,0.023-0.079
		s0.021-0.039,0.037-0.053s0.035-0.022,0.058-0.029c0.022-0.006,0.05-0.009,0.081-0.009h0.148l-0.016,0.084h-0.088
		c-0.018,0-0.031,0.002-0.042,0.004c-0.011,0.003-0.021,0.008-0.027,0.016C10.521,0.5,10.516,0.51,10.512,0.521
		c-0.005,0.012-0.008,0.027-0.012,0.045l-0.012,0.065h0.168L10.64,0.716h-0.167l-0.088,0.466h-0.148l0.088-0.466L10.34,0.632z"/>
	<path clip-path="url(#SVGID_2_)" fill="#4C8ECC" d="M11.148,1.188l0.012-0.058c-0.003,0.002-0.012,0.004-0.023,0.008
		c-0.013,0.004-0.028,0.009-0.046,0.014c-0.019,0.005-0.038,0.01-0.062,0.015c-0.021,0.006-0.045,0.011-0.066,0.015
		c-0.023,0.005-0.045,0.009-0.067,0.012s-0.042,0.005-0.06,0.005c-0.057,0-0.101-0.011-0.131-0.032
		c-0.029-0.021-0.045-0.058-0.045-0.109c0-0.021,0.002-0.045,0.008-0.069l0.065-0.349h0.147l-0.061,0.33
		c-0.005,0.022-0.008,0.041-0.008,0.056c0,0.027,0.009,0.048,0.025,0.06s0.045,0.018,0.085,0.018c0.009,0,0.019-0.001,0.029-0.002
		c0.011-0.002,0.024-0.003,0.036-0.005c0.014-0.003,0.026-0.005,0.04-0.008s0.027-0.006,0.04-0.009
		c0.031-0.007,0.062-0.015,0.096-0.023l0.078-0.416h0.146l-0.104,0.55H11.148z"/>
	<path clip-path="url(#SVGID_2_)" fill="#4C8ECC" d="M11.973,0.87c0-0.002,0-0.005,0.002-0.01c0-0.005,0.001-0.01,0.002-0.015
		c0.002-0.006,0.003-0.012,0.004-0.019c0.002-0.012,0.003-0.021,0.003-0.031c0-0.037-0.015-0.063-0.043-0.079
		s-0.071-0.023-0.127-0.024c-0.066,0-0.117,0.012-0.153,0.035c-0.035,0.023-0.06,0.065-0.071,0.124L11.584,0.87H11.973z
		 M12.127,0.87c-0.002,0.011-0.004,0.021-0.007,0.03s-0.005,0.018-0.007,0.025c-0.003,0.009-0.005,0.017-0.006,0.025H11.57
		l-0.002,0.006c-0.001,0.008-0.002,0.015-0.003,0.021s-0.001,0.014-0.001,0.02c0,0.028,0.006,0.05,0.018,0.065
		s0.027,0.026,0.048,0.033c0.021,0.006,0.043,0.01,0.068,0.011c0.026,0.001,0.053,0.002,0.079,0.002
		c0.029,0,0.057-0.001,0.084-0.002c0.027-0.002,0.051-0.003,0.073-0.005s0.041-0.004,0.056-0.006
		c0.016-0.002,0.026-0.002,0.032-0.003l-0.016,0.085c-0.007,0-0.017,0.002-0.032,0.004c-0.017,0.002-0.036,0.004-0.059,0.007
		c-0.021,0.002-0.047,0.004-0.074,0.006c-0.026,0.002-0.053,0.003-0.079,0.003c-0.063,0-0.118-0.004-0.163-0.011
		c-0.045-0.008-0.08-0.02-0.108-0.035c-0.028-0.017-0.048-0.036-0.062-0.062c-0.013-0.023-0.02-0.054-0.02-0.089
		c0-0.012,0.002-0.024,0.002-0.037c0.002-0.014,0.004-0.027,0.007-0.042l0.01-0.054c0.007-0.036,0.019-0.069,0.038-0.101
		c0.018-0.03,0.043-0.057,0.076-0.08c0.031-0.022,0.071-0.04,0.117-0.053c0.047-0.013,0.103-0.019,0.166-0.019
		c0.055,0,0.102,0.004,0.141,0.012s0.07,0.021,0.096,0.036c0.023,0.016,0.041,0.035,0.053,0.059s0.018,0.051,0.018,0.082
		C12.133,0.826,12.131,0.848,12.127,0.87"/>
	<path clip-path="url(#SVGID_2_)" fill="#4C8ECC" d="M12.448,0.389l-0.124,0.645c-0.002,0.007-0.003,0.015-0.004,0.022
		s0,0.016,0.004,0.021c0.003,0.006,0.008,0.011,0.014,0.014c0.008,0.004,0.018,0.005,0.03,0.005h0.155l-0.017,0.086h-0.208
		c-0.049,0-0.082-0.007-0.1-0.021s-0.025-0.035-0.025-0.064c0-0.011,0-0.022,0.002-0.035s0.004-0.026,0.008-0.041l0.119-0.631
		H12.448z"/>
	<path clip-path="url(#SVGID_2_)" fill="#4C8ECC" d="M5.102,0.892c0,0,0.062-0.109,0.215-0.163c0.152-0.055,0.232-0.044,0.367,0.075
		c0.134,0.12,0.045-0.086,0.197-0.13C6.032,0.63,6.301,0.782,6.345,0.837c0,0-0.42,0.217-0.51,0.25
		C5.538,1.195,5.603,0.978,5.424,0.869C5.312,0.802,5.102,0.892,5.102,0.892 M6.185,0.837c0,0-0.224-0.142-0.278-0.055
		c-0.053,0.087-0.062,0.142-0.17,0.12C5.629,0.88,5.558,0.88,5.558,0.88S5.728,0.988,5.781,1C5.882,1.021,6.185,0.837,6.185,0.837"
		/>
	<path clip-path="url(#SVGID_2_)" fill="#231F20" d="M0.705,1.003C0.681,1.015,0.651,1.023,0.624,1.023
		c-0.03,0-0.062-0.001-0.09-0.015V1.07c0,0.08-0.035,0.128-0.118,0.128c-0.024,0-0.069-0.007-0.083-0.028V1.071
		c0.013,0.015,0.032,0.024,0.052,0.024c0.022,0,0.035-0.013,0.035-0.034V0.723h0.113v0.199c0.019,0.006,0.038,0.009,0.058,0.009
		c0.073,0,0.133-0.049,0.133-0.125c0-0.119-0.103-0.165-0.208-0.165c-0.098,0-0.2,0.058-0.2,0.166c0,0.033,0.007,0.061,0.031,0.085
		L0.267,0.963C0.221,0.913,0.21,0.873,0.21,0.807c0-0.173,0.143-0.271,0.304-0.271c0.163,0,0.325,0.084,0.325,0.265
		C0.839,0.892,0.786,0.965,0.705,1.003"/>
	<path clip-path="url(#SVGID_2_)" fill="#231F20" d="M1.028,1.199c-0.1,0-0.18-0.081-0.18-0.181s0.081-0.181,0.18-0.181
		c0.1,0,0.181,0.081,0.181,0.181S1.128,1.199,1.028,1.199 M1.122,1.015C1.112,1.02,1.1,1.023,1.088,1.023
		c-0.039,0-0.072-0.032-0.072-0.07c0-0.011,0.002-0.02,0.005-0.027C0.973,0.929,0.938,0.97,0.938,1.019
		c0,0.051,0.038,0.093,0.09,0.093s0.096-0.042,0.094-0.093V1.015z"/>
	<path clip-path="url(#SVGID_2_)" fill="#231F20" d="M1.821,1.056c0,0.094-0.07,0.144-0.159,0.144c-0.039,0-0.087-0.021-0.106-0.057
		C1.535,1.18,1.49,1.199,1.449,1.199c-0.089,0-0.159-0.05-0.159-0.144v-0.21h0.104v0.202c0,0.034,0.017,0.064,0.055,0.064
		s0.055-0.03,0.055-0.064V0.846h0.103v0.199c0,0.038,0.023,0.067,0.063,0.067s0.063-0.029,0.063-0.067V1
		C1.691,0.997,1.659,0.962,1.659,0.919c0-0.044,0.036-0.08,0.081-0.08c0.045,0,0.082,0.036,0.082,0.08V1.056z"/>
	<path clip-path="url(#SVGID_2_)" fill="#231F20" d="M2.046,1.104c0.015,0.005,0.031,0.008,0.047,0.008
		c0.034,0,0.07-0.009,0.097-0.032v0.1c-0.028,0.014-0.066,0.02-0.097,0.02c-0.109,0-0.2-0.068-0.2-0.183
		c0-0.095,0.079-0.177,0.174-0.177c0.07,0,0.12,0.025,0.16,0.083L2.046,1.104z M2.103,0.938c-0.009-0.01-0.028-0.012-0.04-0.012
		c-0.051,0-0.078,0.042-0.078,0.09c0,0.013,0.002,0.025,0.007,0.037L2.103,0.938z"/>
	<path clip-path="url(#SVGID_2_)" fill="#231F20" d="M2.483,0.98c-0.021,0-0.041-0.01-0.054-0.026
		C2.412,0.964,2.403,0.98,2.398,0.998C2.397,1,2.394,1.011,2.394,1.013V1.19H2.291V0.846h0.104v0.05
		c0.019-0.031,0.052-0.057,0.089-0.057c0.04,0,0.072,0.031,0.072,0.07S2.523,0.98,2.483,0.98"/>
	<path clip-path="url(#SVGID_2_)" fill="#231F20" d="M2.725,1.104C2.74,1.108,2.756,1.111,2.772,1.111
		c0.034,0,0.07-0.009,0.097-0.032v0.1c-0.028,0.014-0.066,0.02-0.097,0.02c-0.109,0-0.2-0.068-0.2-0.183
		c0-0.095,0.079-0.177,0.174-0.177c0.07,0,0.12,0.025,0.16,0.083L2.725,1.104z M2.782,0.938c-0.009-0.01-0.028-0.012-0.04-0.012
		c-0.051,0-0.078,0.042-0.078,0.09c0,0.013,0.002,0.025,0.007,0.037L2.782,0.938z"/>
	<path clip-path="url(#SVGID_2_)" fill="#231F20" d="M3.396,1.176C3.375,1.192,3.345,1.198,3.317,1.198
		c-0.04,0-0.074-0.026-0.089-0.063C3.201,1.178,3.16,1.198,3.109,1.198c-0.102,0-0.167-0.082-0.167-0.181
		c0-0.097,0.065-0.179,0.167-0.179c0.044,0,0.082,0.015,0.109,0.05V0.546h0.104v0.528c0,0.021,0.017,0.032,0.037,0.032
		c0.013,0,0.027-0.005,0.038-0.014V1.176z M3.218,0.988c0-0.002-0.005-0.014-0.006-0.016C3.198,0.943,3.167,0.924,3.134,0.924
		c-0.051,0-0.089,0.044-0.089,0.094c0,0.051,0.039,0.095,0.089,0.095c0.033,0,0.063-0.02,0.078-0.049
		c0.001-0.002,0.006-0.013,0.006-0.016V0.988z"/>
	<path clip-path="url(#SVGID_2_)" fill="#231F20" d="M3.836,1.199c-0.1,0-0.181-0.081-0.181-0.182V0.546h0.103v0.472
		c0,0.044,0.041,0.083,0.084,0.083c0.052,0,0.085-0.04,0.085-0.09c0-0.012-0.003-0.027-0.008-0.038
		C3.908,0.986,3.884,0.997,3.865,0.997c-0.04,0-0.077-0.038-0.077-0.078c0-0.047,0.044-0.083,0.089-0.083
		c0.095,0,0.145,0.089,0.145,0.176C4.022,1.111,3.937,1.199,3.836,1.199"/>
	<path clip-path="url(#SVGID_2_)" fill="#231F20" d="M4.417,1.256c0,0.067-0.049,0.145-0.124,0.145L4.254,1.314
		c0.031,0,0.059-0.028,0.059-0.059V1.157C4.292,1.186,4.259,1.199,4.224,1.199c-0.071,0-0.121-0.059-0.121-0.127V0.846h0.104v0.216
		c0,0.027,0.015,0.051,0.044,0.051c0.028,0,0.045-0.018,0.055-0.043c0.002-0.002,0.006-0.018,0.006-0.021V0.846h0.104V1.256z"/>
</g>
</svg>
