<?xml version="1.0" encoding="utf-8"?>
<!-- Generator: Adobe Illustrator 18.1.0, SVG Export Plug-In . SVG Version: 6.00 Build 0)  -->
<!DOCTYPE svg PUBLIC "-//W3C//DTD SVG 1.1//EN" "http://www.w3.org/Graphics/SVG/1.1/DTD/svg11.dtd">
<svg version="1.1" id="Layer_1" xmlns="http://www.w3.org/2000/svg" xmlns:xlink="http://www.w3.org/1999/xlink" x="0px" y="0px"
	 width="385.3px" height="123.7px" viewBox="0 0 385.3 123.7" enable-background="new 0 0 385.3 123.7" xml:space="preserve">
<g>
	<linearGradient id="SVGID_1_" gradientUnits="userSpaceOnUse" x1="382.0495" y1="70.8536" x2="331.9291" y2="67.1605">
		<stop  offset="0" style="stop-color:#231F20;stop-opacity:0"/>
		<stop  offset="1" style="stop-color:#000000"/>
	</linearGradient>
	<path opacity="0.4" fill="url(#SVGID_1_)" d="M383.6,123.7c-50.8-35.7-131.7-37.4-190.7-37.6c0-37.8,0-38.2,0-76
		c70.5,7.4,126.9-7.7,188,17.7C372.5,66.1,388.1,90.9,383.6,123.7z"/>
	
		<linearGradient id="SVGID_2_" gradientUnits="userSpaceOnUse" x1="-8617.2334" y1="70.8555" x2="-8667.3594" y2="67.162" gradientTransform="matrix(-1 0 0 1 -8613.5518 0)">
		<stop  offset="0" style="stop-color:#231F20;stop-opacity:0"/>
		<stop  offset="1" style="stop-color:#000000"/>
	</linearGradient>
	<path opacity="0.4" fill="url(#SVGID_2_)" d="M2.1,123.7C52.9,88,133.8,86.3,192.9,86.1c0-37.8,0-38.2,0-76
		C122.4,17.6,66,2.4,4.8,27.8C13.2,66.1-2.6,90.8,2.1,123.7z"/>
	<path fill="#B0E2F7" d="M383.2,99.5C257.3,77.7,128,77.7,2.1,99.6c-7.6-27,8.3-54.1,1.5-81.1c124.8-24.5,253.2-24.6,378,0
		C374.9,45.4,390.8,72.5,383.2,99.5z"/>
</g>
<g>
	<path fill="#67A4D9" d="M73.6,33.3c0.2,1.9-0.4,3.2-2,3.9l3.5,3.8l-2.4,0.3l-3.2-3.5L66.9,38l0.5,3.8l-1.9,0.2l-1.4-11.4l4.2-0.5
		c1.7-0.2,3-0.1,3.8,0.4C73,31.1,73.5,32,73.6,33.3z M71.3,35.2c0.3-0.4,0.5-0.9,0.4-1.7c-0.1-0.7-0.4-1.2-0.8-1.5
		c-0.4-0.2-1.2-0.3-2.2-0.2l-2.4,0.3l0.5,4.1l2.4-0.3C70.2,35.8,70.9,35.6,71.3,35.2z"/>
	<path fill="#67A4D9" d="M84.3,38.7c-0.8,1-1.8,1.5-3.1,1.7c-1.3,0.1-2.4-0.2-3.4-0.9c-1-0.8-1.5-1.8-1.7-3c-0.1-1.2,0.2-2.4,1-3.3
		c0.8-1,1.8-1.5,3.1-1.7s2.4,0.2,3.4,0.9c1,0.8,1.5,1.8,1.7,3C85.4,36.6,85,37.7,84.3,38.7z M78.9,38.1c0.6,0.5,1.3,0.7,2.1,0.6
		c0.8-0.1,1.4-0.4,1.9-1c0.5-0.6,0.6-1.3,0.5-2.1c-0.1-0.8-0.4-1.5-1-2c-0.6-0.5-1.3-0.7-2.1-0.6c-0.8,0.1-1.4,0.4-1.9,1
		c-0.5,0.6-0.6,1.3-0.5,2.1C78,37,78.3,37.7,78.9,38.1z"/>
	<path fill="#67A4D9" d="M91.9,39.2c-1.2,0.1-2.3-0.2-3.2-0.9c-1-0.7-1.5-1.8-1.6-3.1c-0.1-1.3,0.2-2.5,1-3.4
		c0.8-0.9,1.9-1.5,3.2-1.6c1.3-0.1,2.5,0.2,3.5,1l-0.9,1.4c-0.8-0.6-1.6-0.8-2.4-0.7c-0.8,0.1-1.4,0.4-1.9,1c-0.5,0.6-0.7,1.2-0.6,2
		s0.4,1.4,1,1.9c0.6,0.5,1.3,0.7,2.1,0.6c0.8-0.1,1.5-0.5,2.2-1.3l1.2,1.1C94.5,38.4,93.3,39.1,91.9,39.2z"/>
	<path fill="#67A4D9" d="M99.6,38.3l-1.8,0.2l-1.1-12.1l1.8-0.2l0.7,7.1l3.2-4l2.4-0.2l-3,3.7l4,4.9l-2.2,0.2l-2.9-3.6l-1.2,1.5
		L99.6,38.3z"/>
	<path fill="#67A4D9" d="M115.4,33.4l-6.8,0.6c0.1,0.6,0.4,1.1,1,1.5c0.6,0.3,1.2,0.5,1.9,0.4c1.1-0.1,1.9-0.5,2.4-1.2l1.1,1.1
		c-0.9,1-2,1.6-3.5,1.8c-1.2,0.1-2.3-0.2-3.2-1s-1.4-1.8-1.5-3.2c-0.1-1.4,0.2-2.5,1-3.4c0.8-0.9,1.8-1.4,3-1.5
		c1.2-0.1,2.2,0.2,3.1,0.8s1.4,1.6,1.5,2.9L115.4,33.4z M108.4,32.5l5-0.4c-0.1-0.7-0.3-1.3-0.8-1.6c-0.5-0.4-1.1-0.5-1.7-0.5
		c-0.7,0.1-1.3,0.3-1.8,0.8C108.6,31.3,108.4,31.8,108.4,32.5z"/>
	<path fill="#67A4D9" d="M119.6,29.4l0.3,4.4c0,0.4,0.2,0.7,0.4,1s0.6,0.3,0.9,0.3s0.8-0.2,1.1-0.7l0.8,1.2c-0.6,0.6-1.3,1-2.1,1
		s-1.5-0.2-2.1-0.7c-0.6-0.5-0.9-1.2-1-2.1l-0.3-4.4l-1.1,0.1l-0.1-1.5l1.1-0.1l-0.2-2.7l1.8-0.1l0.2,2.7l2.3-0.2l0.1,1.5
		L119.6,29.4z"/>
	<path fill="#67A4D9" d="M131.5,26.2l0.2,3.1l5.1-0.3l0.1,1.8l-5.1,0.3l0.3,4.7l-1.9,0.1l-0.7-11.5l7.6-0.5l0.1,1.8L131.5,26.2z"/>
	<path fill="#67A4D9" d="M145.8,31.1l-0.2-4.7l1.8-0.1l0.4,8.7l-1.8,0.1l-0.1-1.6c-0.3,0.5-0.7,1-1.2,1.3s-1.1,0.5-1.7,0.5
		c-1,0-1.8-0.2-2.4-0.8s-1-1.4-1-2.6l-0.3-5.3l1.8-0.1l0.2,4.8c0.1,1.6,0.8,2.4,2.1,2.3c0.6,0,1.2-0.3,1.6-0.7
		C145.6,32.5,145.8,31.9,145.8,31.1z"/>
	<path fill="#67A4D9" d="M158.7,31l-6.8,0.3c0.1,0.6,0.4,1.1,0.9,1.5c0.5,0.4,1.2,0.5,1.9,0.5c1.1,0,1.9-0.4,2.5-1.1l1.1,1.1
		c-0.9,1-2.1,1.5-3.6,1.6c-1.2,0-2.3-0.3-3.2-1.1c-0.9-0.8-1.4-1.9-1.4-3.2c-0.1-1.4,0.3-2.5,1.2-3.3c0.8-0.8,1.9-1.3,3-1.3
		c1.2,0,2.2,0.3,3.1,1c0.9,0.7,1.3,1.7,1.4,2.9L158.7,31z M151.8,29.8l5-0.2c0-0.7-0.3-1.3-0.8-1.7c-0.5-0.4-1-0.6-1.7-0.5
		c-0.7,0-1.3,0.3-1.8,0.7C152.1,28.6,151.8,29.1,151.8,29.8z"/>
	<path fill="#67A4D9" d="M163,34.4l-1.8,0.1l-0.4-12.2l1.8-0.1L163,34.4z"/>
	<path fill="#67A4D9" d="M174,30.6l-6.8,0.2c0.1,0.6,0.4,1.1,0.9,1.5c0.5,0.4,1.2,0.6,1.9,0.5c1.1,0,1.9-0.4,2.5-1.1l1.1,1.1
		c-0.9,1-2.1,1.5-3.6,1.5c-1.2,0-2.3-0.4-3.2-1.2c-0.9-0.8-1.3-1.9-1.4-3.3c0-1.4,0.4-2.5,1.2-3.3s1.9-1.3,3.1-1.3s2.2,0.3,3.1,1
		s1.3,1.7,1.3,2.9L174,30.6z M167.1,29.3l5-0.1c0-0.7-0.3-1.3-0.7-1.7c-0.5-0.4-1-0.6-1.7-0.6c-0.7,0-1.3,0.2-1.8,0.7
		C167.4,28.1,167.1,28.6,167.1,29.3z"/>
	<path fill="#67A4D9" d="M180.9,27.1c-0.9,0-1.6,0.3-2,0.9s-0.7,1.4-0.7,2.4l0.1,3.7l-1.8,0l-0.1-8.7l1.8,0l0,1.8
		c0.3-0.6,0.7-1,1.2-1.4s1-0.5,1.6-0.6L180.9,27.1C181,27.1,180.9,27.1,180.9,27.1z"/>
	<path fill="#67A4D9" d="M189.5,31.4c0,0.8-0.3,1.5-0.9,2s-1.4,0.8-2.3,0.8c-0.6,0-1.3-0.1-2-0.3c-0.7-0.2-1.3-0.5-1.8-1l0.9-1.4
		c1,0.8,2,1.1,3,1.1c0.4,0,0.7-0.1,1-0.3c0.2-0.2,0.4-0.4,0.4-0.7c0-0.4-0.6-0.8-1.7-1.2c-0.1,0-0.2-0.1-0.2-0.1
		c-1.8-0.5-2.7-1.3-2.7-2.4c0-0.8,0.3-1.5,0.9-2c0.6-0.5,1.4-0.7,2.4-0.7c1,0,2,0.3,2.9,0.9l-0.7,1.4c-0.7-0.5-1.5-0.7-2.3-0.7
		c-0.4,0-0.8,0.1-1.1,0.2c-0.3,0.2-0.4,0.4-0.4,0.7c0,0.3,0.1,0.5,0.4,0.6c0.2,0.1,0.5,0.2,0.8,0.3c0.4,0.1,0.7,0.2,0.9,0.3
		c0.3,0.1,0.5,0.2,0.8,0.3c0.3,0.1,0.5,0.3,0.8,0.5C189.2,30,189.5,30.6,189.5,31.4z"/>
	<path fill="#67A4D9" d="M201.4,25.2c1.2,0,2.2,0.4,3,1.2c0.8,0.8,1.2,1.9,1.2,3.2c0,1.3-0.4,2.4-1.3,3.3c-0.8,0.8-1.8,1.2-2.9,1.2
		s-2.1-0.5-3-1.5l0,4.5l-1.8,0l0.1-11.9l1.8,0l0,1.5C199.3,25.7,200.2,25.2,201.4,25.2z M198.5,29.7c0,0.8,0.2,1.5,0.7,2
		c0.5,0.5,1.1,0.8,1.8,0.8c0.7,0,1.4-0.3,1.9-0.8c0.5-0.5,0.8-1.2,0.8-2c0-0.8-0.3-1.5-0.8-2.1s-1.1-0.8-1.9-0.8
		c-0.7,0-1.4,0.3-1.9,0.8C198.8,28.1,198.5,28.8,198.5,29.7z"/>
	<path fill="#67A4D9" d="M212.7,27.2c-0.9,0-1.6,0.3-2.1,0.9c-0.5,0.6-0.7,1.4-0.7,2.4l-0.1,3.7l-1.8,0l0.1-8.7l1.8,0l0,1.8
		c0.3-0.5,0.7-1,1.2-1.3s1.1-0.5,1.6-0.5L212.7,27.2C212.8,27.2,212.7,27.2,212.7,27.2z"/>
	<path fill="#67A4D9" d="M223,30.9l-6.8-0.2c0,0.6,0.3,1.2,0.8,1.6c0.5,0.4,1.1,0.6,1.8,0.6c1.1,0,1.9-0.3,2.5-1l1,1.2
		c-1,0.9-2.2,1.4-3.7,1.4c-1.2,0-2.3-0.5-3.1-1.3s-1.2-1.9-1.2-3.3s0.5-2.5,1.4-3.2c0.9-0.8,1.9-1.2,3.1-1.1c1.2,0,2.2,0.4,3,1.2
		c0.8,0.7,1.2,1.7,1.2,3L223,30.9z M216.2,29.3l5,0.1c0-0.7-0.2-1.3-0.6-1.7c-0.4-0.4-1-0.6-1.7-0.6c-0.7,0-1.3,0.2-1.8,0.6
		C216.5,28,216.2,28.6,216.2,29.3z"/>
	<path fill="#67A4D9" d="M226,33.4c-0.8-0.9-1.2-2-1.1-3.3c0-1.4,0.5-2.4,1.4-3.2s1.9-1.1,3.1-1.1s2.1,0.6,2.8,1.6l0.2-4.8l1.8,0.1
		l-0.4,12.2l-1.8-0.1l0-1.3c-0.7,0.9-1.7,1.4-3,1.3C227.7,34.7,226.8,34.3,226,33.4z M226.7,30.2c0,0.8,0.2,1.5,0.7,2.1
		c0.5,0.5,1.1,0.8,1.9,0.9c0.7,0,1.3-0.2,1.9-0.7c0.5-0.5,0.8-1.2,0.8-2s-0.2-1.5-0.7-2.1c-0.5-0.6-1.1-0.9-1.8-0.9
		c-0.7,0-1.4,0.2-1.9,0.8C227,28.7,226.7,29.4,226.7,30.2z"/>
	<path fill="#67A4D9" d="M238.4,35l-1.8-0.1l0.4-8.7l1.8,0.1L238.4,35z M237.2,24.5c-0.2-0.2-0.3-0.5-0.3-0.8c0-0.3,0.1-0.6,0.4-0.8
		c0.2-0.2,0.5-0.3,0.8-0.3s0.6,0.1,0.8,0.4c0.2,0.2,0.3,0.5,0.3,0.8c0,0.3-0.1,0.6-0.4,0.8s-0.5,0.3-0.8,0.3
		C237.6,24.9,237.4,24.7,237.2,24.5z"/>
	<path fill="#67A4D9" d="M245.2,35.5c-1.2-0.1-2.2-0.5-3.1-1.4c-0.8-0.9-1.2-2-1.1-3.3c0.1-1.3,0.6-2.4,1.5-3.2
		c1-0.8,2.1-1.1,3.4-1.1c1.3,0.1,2.4,0.6,3.3,1.5l-1.2,1.3c-0.7-0.7-1.5-1.1-2.2-1.1s-1.4,0.2-2,0.7s-0.9,1.1-0.9,1.9
		c0,0.8,0.2,1.5,0.7,2.1c0.5,0.6,1.2,0.9,2,0.9c0.8,0,1.6-0.3,2.4-1l1,1.2C247.9,35.1,246.6,35.6,245.2,35.5z"/>
	<path fill="#67A4D9" d="M253.8,28.6l-0.3,4.4c0,0.4,0.1,0.8,0.3,1c0.2,0.3,0.5,0.4,0.9,0.4c0.4,0,0.8-0.1,1.2-0.5l0.7,1.3
		c-0.7,0.5-1.4,0.8-2.2,0.7c-0.8,0-1.4-0.4-1.9-0.9c-0.5-0.6-0.8-1.3-0.7-2.2l0.3-4.4l-1.1-0.1l0.1-1.5l1.1,0.1l0.2-2.7l1.8,0.1
		l-0.2,2.7l2.3,0.1l-0.1,1.5L253.8,28.6z"/>
	<path fill="#67A4D9" d="M267.1,36.8l-2.1-0.2l-2.3-8.9l1.9,0.1l1.7,6.7l2.7-6.4l1.9,0.1l1.7,6.7l2.7-6.4l1.9,0.1l-3.7,8.5l-2.1-0.2
		l-1.6-6.1L267.1,36.8z"/>
	<path fill="#67A4D9" d="M280.5,33.1l-0.4,4.7l-1.8-0.2l1.1-12.1l1.8,0.2l-0.4,5c0.3-0.5,0.7-0.9,1.3-1.2c0.6-0.3,1.1-0.4,1.7-0.3
		c1,0.1,1.7,0.5,2.3,1.1c0.6,0.7,0.8,1.5,0.7,2.7l-0.5,5.3l-1.8-0.2l0.4-4.8c0.1-1.6-0.5-2.5-1.8-2.6c-0.6-0.1-1.2,0.1-1.7,0.5
		C280.9,31.7,280.6,32.3,280.5,33.1z"/>
	<path fill="#67A4D9" d="M296.1,39.3l-1.7-0.2l0.1-1.2c-0.8,0.8-1.8,1.1-3,1c-0.9-0.1-1.6-0.4-2.2-1s-0.8-1.3-0.7-2.1
		c0.1-0.9,0.5-1.5,1.1-1.8s1.5-0.5,2.6-0.4l2.4,0.2l0-0.3c0.1-1.2-0.5-1.8-1.8-1.9c-0.8-0.1-1.7,0.1-2.6,0.6l-0.7-1.2
		c1.1-0.7,2.4-1,3.7-0.9c1,0.1,1.8,0.4,2.4,1c0.6,0.6,0.8,1.4,0.7,2.5L296.1,39.3z M294.6,35.9l0.1-0.7l-2.1-0.2
		c-1.3-0.1-2,0.2-2.1,1c0,0.4,0.1,0.8,0.4,1c0.3,0.3,0.7,0.4,1.3,0.5c0.6,0.1,1.1-0.1,1.6-0.3S294.6,36.5,294.6,35.9z"/>
	<path fill="#67A4D9" d="M302,32.6l-0.5,4.4c0,0.4,0,0.8,0.2,1c0.2,0.3,0.5,0.4,0.9,0.5c0.4,0,0.8-0.1,1.2-0.4l0.6,1.4
		c-0.7,0.5-1.4,0.7-2.2,0.6c-0.8-0.1-1.4-0.4-1.9-1c-0.5-0.6-0.7-1.4-0.6-2.3l0.5-4.4l-1.1-0.1l0.2-1.5l1.1,0.1l0.3-2.7l1.8,0.2
		l-0.3,2.7l2.3,0.2l-0.2,1.5L302,32.6z"/>
	<path fill="#67A4D9" d="M307,30.8c-0.3-0.2-0.4-0.5-0.4-0.8c0-0.3,0.2-0.6,0.4-0.8c0.2-0.2,0.5-0.2,0.8-0.2c0.3,0,0.5,0.2,0.7,0.4
		c0.2,0.2,0.3,0.5,0.2,0.8c0,0.3-0.2,0.6-0.4,0.8l-1.1,1.3l-1-0.1L307,30.8z"/>
	<path fill="#67A4D9" d="M316,38.9c-0.1,0.8-0.5,1.4-1.1,1.9s-1.5,0.6-2.4,0.5c-0.6-0.1-1.3-0.3-1.9-0.6s-1.2-0.7-1.7-1.2l1-1.3
		c0.9,0.9,1.9,1.4,2.8,1.5c0.4,0,0.8,0,1-0.2c0.3-0.2,0.4-0.4,0.4-0.7c0.1-0.4-0.5-0.9-1.6-1.4c-0.1,0-0.1-0.1-0.2-0.1
		c-1.7-0.7-2.5-1.6-2.4-2.8c0.1-0.8,0.5-1.4,1.2-1.8s1.5-0.6,2.5-0.4c1,0.1,1.9,0.5,2.7,1.2l-0.8,1.3c-0.7-0.6-1.4-0.9-2.2-1
		c-0.4-0.1-0.8,0-1.1,0.1c-0.3,0.1-0.5,0.3-0.5,0.7c0,0.3,0.1,0.5,0.3,0.7c0.2,0.1,0.4,0.2,0.8,0.4c0.3,0.1,0.6,0.3,0.9,0.4
		c0.3,0.1,0.5,0.2,0.8,0.4c0.2,0.1,0.5,0.3,0.8,0.6C315.9,37.5,316.1,38.1,316,38.9z"/>
</g>
<g>
	<path fill="#67A4D9" d="M80.3,51.1c-0.3-0.2-0.4-0.5-0.4-0.8c0-0.3,0-0.6,0.3-0.9c0.2-0.3,0.5-0.4,0.8-0.4c0.3,0,0.6,0,0.9,0.3
		c0.3,0.2,0.4,0.5,0.4,0.8c0,0.3,0,0.6-0.3,0.9c-0.2,0.3-0.5,0.4-0.8,0.4S80.5,51.3,80.3,51.1z M83.1,61.3l-1.8,0.2l-1-8.7l1.8-0.2
		L83.1,61.3z"/>
	<path fill="#67A4D9" d="M87.4,56.1l0.5,4.7L86.1,61l-0.9-8.7l1.8-0.2l0.2,1.6c0.2-0.6,0.6-1,1.1-1.4c0.5-0.4,1-0.6,1.6-0.6
		c1-0.1,1.8,0.1,2.5,0.7c0.7,0.5,1.1,1.4,1.2,2.5l0.5,5.3l-1.8,0.2l-0.5-4.8c-0.2-1.6-0.9-2.3-2.2-2.2c-0.6,0.1-1.2,0.3-1.6,0.8
		C87.5,54.6,87.3,55.3,87.4,56.1z"/>
	<path fill="#67A4D9" d="M107.7,56.3c0.1,0.8-0.2,1.5-0.7,2.1s-1.3,0.9-2.2,0.9c-0.6,0.1-1.3,0-2-0.2s-1.3-0.4-1.9-0.8l0.8-1.5
		c1.1,0.7,2.1,1,3,0.9c0.4,0,0.7-0.2,1-0.4c0.2-0.2,0.3-0.5,0.3-0.8c0-0.4-0.7-0.8-1.8-1c-0.1,0-0.2,0-0.2,0
		c-1.9-0.3-2.8-1.1-2.9-2.2c-0.1-0.8,0.2-1.5,0.8-2c0.6-0.5,1.4-0.9,2.4-0.9s2,0.1,2.9,0.6l-0.6,1.4c-0.8-0.4-1.5-0.6-2.4-0.5
		c-0.4,0-0.8,0.1-1,0.3c-0.3,0.2-0.4,0.4-0.3,0.7c0,0.3,0.2,0.5,0.5,0.6c0.2,0.1,0.5,0.1,0.9,0.2c0.4,0.1,0.7,0.1,1,0.2
		c0.3,0.1,0.6,0.1,0.8,0.2c0.3,0.1,0.6,0.2,0.9,0.4C107.2,54.9,107.6,55.5,107.7,56.3z"/>
	<path fill="#67A4D9" d="M112,51.3l0.4,4.4c0,0.4,0.2,0.7,0.4,1c0.2,0.2,0.6,0.3,0.9,0.3c0.4,0,0.8-0.3,1.1-0.7l0.9,1.2
		c-0.6,0.6-1.3,1-2.1,1c-0.8,0.1-1.5-0.2-2.1-0.6c-0.6-0.5-0.9-1.2-1-2.1l-0.3-4.4l-1.1,0.1l-0.1-1.5L110,50l-0.2-2.7l1.8-0.1
		l0.2,2.7l2.3-0.2l0.1,1.5L112,51.3z"/>
	<path fill="#67A4D9" d="M124.5,56.4c-0.8,0.9-1.9,1.4-3.2,1.5s-2.4-0.3-3.4-1.1c-0.9-0.8-1.4-1.8-1.5-3.1c-0.1-1.3,0.3-2.3,1.1-3.3
		s1.9-1.4,3.2-1.5s2.4,0.3,3.4,1.1c0.9,0.8,1.4,1.8,1.5,3.1C125.7,54.4,125.4,55.5,124.5,56.4z M119.2,55.7c0.6,0.5,1.2,0.7,2,0.7
		c0.8-0.1,1.4-0.4,1.9-0.9c0.5-0.6,0.7-1.3,0.6-2.1c-0.1-0.8-0.4-1.5-0.9-2c-0.6-0.5-1.2-0.7-2-0.7c-0.8,0.1-1.4,0.4-1.9,0.9
		c-0.5,0.6-0.7,1.3-0.6,2.1C118.4,54.5,118.7,55.2,119.2,55.7z"/>
	<path fill="#67A4D9" d="M132.5,50.1c-0.9,0.1-1.6,0.4-2,1s-0.6,1.4-0.5,2.4l0.2,3.7l-1.8,0.1l-0.5-8.7l1.8-0.1l0.1,1.8
		c0.3-0.6,0.6-1,1.1-1.4c0.5-0.4,1-0.6,1.6-0.6L132.5,50.1C132.5,50.1,132.5,50.1,132.5,50.1z"/>
	<path fill="#67A4D9" d="M143.1,53l-6.8,0.4c0.1,0.6,0.4,1.1,1,1.5c0.6,0.4,1.2,0.5,1.9,0.5c1.1-0.1,1.9-0.4,2.4-1.2l1.1,1.1
		c-0.9,1-2.1,1.6-3.6,1.7c-1.2,0.1-2.3-0.3-3.2-1.1c-0.9-0.8-1.4-1.8-1.5-3.2c-0.1-1.4,0.3-2.5,1.1-3.3c0.8-0.9,1.8-1.3,3-1.4
		c1.2-0.1,2.2,0.2,3.1,0.9c0.9,0.7,1.3,1.6,1.4,2.9L143.1,53z M136.2,51.9l5-0.3c0-0.7-0.3-1.3-0.8-1.7c-0.5-0.4-1.1-0.5-1.7-0.5
		s-1.3,0.3-1.8,0.7C136.4,50.6,136.1,51.2,136.2,51.9z"/>
	<path fill="#67A4D9" d="M152.3,46.7l0,0.7l2.3-0.1l0.1,1.5l-2.3,0.1l0.3,7.2l-1.8,0.1l-0.3-7.2l-1.1,0l-0.1-1.5l1.1,0l0-0.7
		c0-0.9,0.2-1.7,0.7-2.2c0.5-0.6,1.2-0.9,2-0.9c0.8,0,1.5,0.2,2.2,0.8l-0.7,1.3c-0.4-0.4-0.8-0.5-1.2-0.5c-0.4,0-0.7,0.2-0.9,0.4
		C152.3,45.9,152.2,46.2,152.3,46.7z"/>
	<path fill="#67A4D9" d="M164.1,54.5c-0.8,0.9-1.9,1.4-3.2,1.4s-2.4-0.4-3.3-1.2c-0.9-0.8-1.4-1.9-1.4-3.1s0.4-2.3,1.2-3.2
		c0.8-0.9,1.9-1.4,3.2-1.4c1.3,0,2.4,0.4,3.3,1.2c0.9,0.8,1.4,1.9,1.4,3.1C165.3,52.6,164.9,53.6,164.1,54.5z M158.8,53.6
		c0.5,0.5,1.2,0.8,2,0.7c0.8,0,1.4-0.3,2-0.9c0.5-0.5,0.7-1.2,0.7-2.1c0-0.8-0.3-1.5-0.8-2c-0.5-0.5-1.2-0.8-2-0.7s-1.4,0.3-2,0.9
		c-0.5,0.5-0.7,1.2-0.7,2.1C157.9,52.4,158.2,53.1,158.8,53.6z"/>
	<path fill="#67A4D9" d="M172.2,48.5c-0.9,0-1.6,0.3-2,0.9c-0.4,0.6-0.7,1.4-0.6,2.4l0.1,3.7l-1.8,0l-0.2-8.7l1.8,0l0,1.8
		c0.3-0.6,0.7-1,1.2-1.4c0.5-0.4,1-0.6,1.6-0.6L172.2,48.5C172.3,48.5,172.2,48.5,172.2,48.5z"/>
	<path fill="#67A4D9" d="M186.5,55.3l-1.7,0l0-1.2c-0.7,0.9-1.7,1.3-2.9,1.3c-0.9,0-1.7-0.2-2.3-0.7s-0.9-1.2-0.9-2.1
		c0-0.9,0.3-1.5,0.9-1.9c0.6-0.4,1.5-0.7,2.6-0.7l2.4,0l0-0.3c0-1.2-0.7-1.7-2-1.7c-0.8,0-1.6,0.3-2.5,0.9l-0.8-1.1
		c1.1-0.9,2.3-1.3,3.6-1.3c1,0,1.9,0.2,2.5,0.8c0.7,0.5,1,1.3,1,2.4L186.5,55.3z M184.6,52.1l0-0.7l-2.1,0c-1.3,0-2,0.4-2,1.3
		c0,0.4,0.2,0.8,0.5,1c0.3,0.2,0.8,0.3,1.4,0.3c0.6,0,1.1-0.2,1.5-0.5C184.4,53.1,184.6,52.6,184.6,52.1z"/>
	<path fill="#67A4D9" d="M190,54.2c-0.8-0.8-1.2-1.9-1.2-3.3c0-1.4,0.4-2.4,1.3-3.2s1.8-1.2,3-1.2s2.1,0.5,2.8,1.5l0-4.8l1.8,0
		l0,12.2l-1.8,0l0-1.3c-0.7,1-1.7,1.4-3,1.4C191.8,55.4,190.8,55,190,54.2z M190.6,51c0,0.8,0.3,1.5,0.8,2c0.5,0.5,1.2,0.8,1.9,0.8
		c0.7,0,1.3-0.3,1.8-0.8c0.5-0.5,0.8-1.2,0.8-2c0-0.8-0.3-1.5-0.8-2.1c-0.5-0.6-1.1-0.8-1.9-0.8s-1.4,0.3-1.9,0.8
		S190.6,50.1,190.6,51z"/>
	<path fill="#67A4D9" d="M207.9,48.2l-0.1,4.4c0,0.4,0.1,0.7,0.3,1c0.2,0.2,0.5,0.4,0.9,0.4c0.4,0,0.8-0.2,1.1-0.6l0.7,1.3
		c-0.7,0.6-1.4,0.8-2.2,0.8c-0.8,0-1.4-0.3-2-0.8c-0.5-0.5-0.8-1.3-0.8-2.2l0.1-4.4l-1.1,0l0-1.5l1.1,0l0-2.7l1.8,0l0,2.7l2.3,0
		l0,1.5L207.9,48.2z"/>
	<path fill="#67A4D9" d="M220.9,52.1L214,52c0,0.6,0.3,1.2,0.8,1.6c0.5,0.4,1.1,0.6,1.8,0.6c1.1,0,1.9-0.3,2.5-1l1,1.2
		c-1,1-2.2,1.4-3.7,1.4c-1.2,0-2.3-0.5-3.1-1.3c-0.8-0.8-1.2-1.9-1.2-3.3s0.5-2.5,1.4-3.2c0.9-0.8,1.9-1.2,3.1-1.1s2.2,0.4,3,1.1
		s1.2,1.7,1.2,3L220.9,52.1z M214.1,50.5l5,0.1c0-0.7-0.2-1.3-0.6-1.7c-0.5-0.4-1-0.6-1.7-0.6c-0.7,0-1.3,0.2-1.8,0.6
		C214.4,49.3,214.1,49.8,214.1,50.5z"/>
	<path fill="#67A4D9" d="M227,56c-1.2,0-2.2-0.5-3.1-1.3c-0.8-0.9-1.2-1.9-1.2-3.3s0.5-2.4,1.5-3.2c0.9-0.8,2.1-1.2,3.4-1.1
		c1.3,0,2.4,0.5,3.3,1.5l-1.1,1.3c-0.7-0.7-1.5-1-2.2-1.1s-1.4,0.2-2,0.7s-0.9,1.1-0.9,1.9c0,0.8,0.2,1.5,0.8,2.1s1.2,0.9,2,0.9
		s1.6-0.3,2.3-1l1,1.2C229.6,55.6,228.4,56.1,227,56z"/>
	<path fill="#67A4D9" d="M234.9,51.5l-0.2,4.7l-1.8-0.1l0.5-12.1l1.8,0.1l-0.2,5c0.3-0.5,0.7-0.9,1.2-1.2s1.1-0.4,1.7-0.4
		c1,0,1.8,0.4,2.3,1c0.6,0.6,0.8,1.5,0.8,2.6l-0.2,5.3l-1.8-0.1l0.2-4.8c0.1-1.6-0.6-2.4-1.9-2.5c-0.6,0-1.2,0.2-1.7,0.6
		C235.2,50,234.9,50.6,234.9,51.5z"/>
	<path fill="#67A4D9" d="M250.4,57l-1.8-0.1l0.5-8.7l1.8,0.1L250.4,57z M249.2,46.4c-0.2-0.2-0.3-0.5-0.3-0.8c0-0.3,0.1-0.6,0.4-0.8
		s0.5-0.3,0.8-0.3c0.3,0,0.6,0.1,0.8,0.4c0.2,0.2,0.3,0.5,0.3,0.8c0,0.3-0.1,0.6-0.4,0.8s-0.5,0.3-0.8,0.3
		C249.7,46.8,249.5,46.6,249.2,46.4z"/>
	<path fill="#67A4D9" d="M255.5,52.5l-0.3,4.7l-1.8-0.1l0.6-8.7l1.8,0.1l-0.1,1.6c0.3-0.5,0.8-0.9,1.3-1.2s1.1-0.4,1.7-0.4
		c1,0.1,1.8,0.4,2.3,1.1c0.6,0.6,0.8,1.5,0.7,2.7l-0.3,5.3l-1.8-0.1l0.3-4.8c0.1-1.6-0.5-2.5-1.8-2.5c-0.6,0-1.2,0.1-1.7,0.5
		C255.8,51.1,255.5,51.7,255.5,52.5z"/>
	<path fill="#67A4D9" d="M274.3,51.6c0.4-0.4,0.6-0.9,0.6-1.3c0-0.5-0.1-0.9-0.4-1.2c-0.3-0.3-0.8-0.5-1.3-0.6
		c-0.9-0.1-1.8,0.3-2.5,1.3l-1.5-1c0.6-0.7,1.2-1.2,1.8-1.6c0.6-0.3,1.4-0.5,2.4-0.4s1.8,0.4,2.4,1.1c0.7,0.7,1,1.5,0.9,2.6
		c0,0.6-0.2,1.1-0.6,1.6s-1,1.2-1.8,1.9l-2.9,2.5l5.2,0.4l-0.1,1.8l-7.8-0.6l0.1-1.6l3.7-3.2C273.3,52.6,273.9,52,274.3,51.6z"/>
	<path fill="#67A4D9" d="M279.9,57.6c-0.7-1.1-0.9-2.6-0.8-4.4s0.7-3.2,1.5-4.2c0.9-1,2.1-1.4,3.6-1.3c1.6,0.1,2.7,0.8,3.4,1.9
		s0.9,2.6,0.8,4.4s-0.7,3.2-1.5,4.2c-0.9,1-2.1,1.4-3.6,1.3C281.7,59.4,280.5,58.7,279.9,57.6z M281.9,50.3c-0.5,0.7-0.8,1.8-1,3
		s0,2.3,0.4,3.2c0.4,0.8,1.1,1.3,2,1.4s1.7-0.2,2.2-1c0.5-0.7,0.8-1.8,0.9-3c0.1-1.3,0-2.3-0.4-3.2s-1-1.3-2-1.4
		C283.2,49.2,282.4,49.6,281.9,50.3z"/>
	<path fill="#67A4D9" d="M290.8,48.6l4.1,0.4l-1.1,11.4l-1.8-0.2l1-9.7l-2.3-0.2L290.8,48.6z"/>
	<path fill="#67A4D9" d="M304.8,50l-0.2,1.7l-4.8-0.5l-0.3,2.8c0.5-0.2,1.1-0.3,1.7-0.2c1.1,0.1,2,0.5,2.7,1.3
		c0.7,0.7,1,1.6,0.9,2.7c-0.1,1.1-0.6,2-1.5,2.6s-1.9,0.9-3.1,0.8c-1.5-0.2-2.7-0.8-3.5-1.9l1.2-1.3c0.1,0.1,0.2,0.2,0.3,0.3
		c0.1,0.1,0.4,0.3,0.9,0.6c0.4,0.3,0.9,0.4,1.5,0.5s1.1-0.1,1.5-0.3c0.5-0.3,0.8-0.7,0.8-1.4s-0.1-1.1-0.6-1.5
		c-0.4-0.4-1-0.6-1.7-0.7c-0.7-0.1-1.4,0-2.1,0.3l-0.7-1l0.6-5.5L304.8,50z"/>
</g>
</svg>
